<svg width="251" height="185" viewBox="0 0 251 185" fill="none" xmlns="http://www.w3.org/2000/svg">
<path d="M225.737 172.346H209.119V172.471H225.737V172.346Z" fill="#EBEBEB"/>
<path d="M166.19 173.711H161.829V173.836H166.19V173.711Z" fill="#EBEBEB"/>
<path d="M208.618 167.689H198.989V167.815H208.618V167.689Z" fill="#EBEBEB"/>
<path d="M47.9925 168.533H26.3219V168.659H47.9925V168.533Z" fill="#EBEBEB"/>
<path d="M55.6393 168.533H52.4633V168.659H55.6393V168.533Z" fill="#EBEBEB"/>
<path d="M112.969 170.65H65.9651V170.776H112.969V170.65Z" fill="#EBEBEB"/>
<path d="M118.915 141.895H22.037C21.2771 141.895 20.5484 141.593 20.0111 141.056C19.4738 140.518 19.172 139.79 19.172 139.03V2.8399C19.1786 2.08441 19.4834 1.36212 20.02 0.830247C20.5565 0.298371 21.2815 -2.8964e-05 22.037 2.10863e-09H118.915C119.675 2.10863e-09 120.403 0.301846 120.941 0.839136C121.478 1.37643 121.78 2.10515 121.78 2.86499V139.03C121.78 139.79 121.478 140.518 120.941 141.056C120.403 141.593 119.675 141.895 118.915 141.895ZM22.037 0.10035C21.3108 0.101677 20.6148 0.390732 20.1013 0.904211C19.5878 1.41769 19.2988 2.11373 19.2974 2.8399V139.03C19.2988 139.756 19.5878 140.452 20.1013 140.965C20.6148 141.479 21.3108 141.768 22.037 141.769H118.915C119.641 141.768 120.337 141.479 120.85 140.965C121.364 140.452 121.653 139.756 121.654 139.03V2.8399C121.653 2.11373 121.364 1.41769 120.85 0.904211C120.337 0.390732 119.641 0.101677 118.915 0.10035H22.037Z" fill="#EBEBEB"/>
<path d="M227.448 141.895H130.56C129.801 141.893 129.073 141.591 128.536 141.054C127.999 140.517 127.697 139.789 127.695 139.03V2.8399C127.703 2.08483 128.008 1.36329 128.545 0.831696C129.081 0.300101 129.805 0.0012786 130.56 0H227.448C228.202 0.00261135 228.924 0.302178 229.459 0.833771C229.993 1.36536 230.296 2.08615 230.303 2.8399V139.03C230.303 139.788 230.003 140.515 229.467 141.052C228.932 141.589 228.206 141.892 227.448 141.895ZM130.56 0.10035C129.834 0.101677 129.138 0.390732 128.625 0.904211C128.111 1.41769 127.822 2.11373 127.821 2.8399V139.03C127.822 139.756 128.111 140.452 128.625 140.965C129.138 141.479 129.834 141.768 130.56 141.769H227.448C228.174 141.768 228.87 141.479 229.384 140.965C229.897 140.452 230.186 139.756 230.188 139.03V2.8399C230.186 2.11373 229.897 1.41769 229.384 0.904211C228.87 0.390732 228.174 0.101677 227.448 0.10035H130.56Z" fill="#EBEBEB"/>
<path d="M250.875 164.272H0.00012207V164.398H250.875V164.272Z" fill="#EBEBEB"/>
<path d="M189.576 80.36H218.823C219.755 80.358 220.671 80.1243 221.49 79.68C222.308 79.2356 223.003 78.5946 223.513 77.8147C224.022 77.0348 224.329 76.1404 224.406 75.2122C224.484 74.284 224.329 73.3511 223.956 72.4976C222.014 68.037 217.885 65.6186 214.152 68.9853C208.537 74.0028 208.803 64.2538 202.085 65.6236C196.209 66.8228 197.017 72.608 193.42 73.7971C189.822 74.9863 184.855 79.0304 189.576 80.36Z" fill="#FAFAFA"/>
<path d="M143.24 27.7974H164.574C165.253 27.7971 165.921 27.6282 166.518 27.3059C167.115 26.9837 167.623 26.5182 167.996 25.9512C168.369 25.3842 168.596 24.7334 168.655 24.0573C168.715 23.3812 168.605 22.7009 168.337 22.0775C166.917 18.8211 163.902 17.06 161.182 19.4985C157.083 23.1813 157.274 16.0465 152.371 17.05C148.081 17.923 148.674 22.1477 146.044 23.0107C143.415 23.8737 139.798 26.824 143.24 27.7974Z" fill="#FAFAFA"/>
<path d="M185.486 164.333H181.974V52.0161C181.977 48.993 183.179 46.0945 185.316 43.9564C187.453 41.8183 190.351 40.6153 193.374 40.6113H196.48V44.1236H193.374C191.282 44.1262 189.277 44.9588 187.798 46.4385C186.319 47.9182 185.488 49.9241 185.486 52.0161V164.333Z" fill="#F0F0F0"/>
<path d="M209.797 22.5791H196.48V60.2003H209.797V22.5791Z" fill="#EBEBEB"/>
<path d="M196.48 60.21H209.797V60.2802C209.797 60.9682 209.523 61.628 209.037 62.1145C208.55 62.601 207.89 62.8742 207.202 62.8742H199.074C198.386 62.8742 197.726 62.601 197.24 62.1145C196.753 61.628 196.48 60.9682 196.48 60.2802V60.21Z" fill="#E6E6E6"/>
<path d="M203.139 34.4854C205.419 34.4854 207.268 32.6366 207.268 30.356C207.268 28.0754 205.419 26.2266 203.139 26.2266C200.858 26.2266 199.009 28.0754 199.009 30.356C199.009 32.6366 200.858 34.4854 203.139 34.4854Z" fill="#F0F0F0"/>
<path d="M203.139 33.4815C205.419 33.4815 207.268 31.6327 207.268 29.3521C207.268 27.0715 205.419 25.2227 203.139 25.2227C200.858 25.2227 199.009 27.0715 199.009 29.3521C199.009 31.6327 200.858 33.4815 203.139 33.4815Z" fill="#FAFAFA"/>
<path d="M203.139 45.7744C205.419 45.7744 207.268 43.9256 207.268 41.645C207.268 39.3644 205.419 37.5156 203.139 37.5156C200.858 37.5156 199.009 39.3644 199.009 41.645C199.009 43.9256 200.858 45.7744 203.139 45.7744Z" fill="#F0F0F0"/>
<path d="M203.139 44.7715C205.419 44.7715 207.268 42.9227 207.268 40.6421C207.268 38.3615 205.419 36.5127 203.139 36.5127C200.858 36.5127 199.009 38.3615 199.009 40.6421C199.009 42.9227 200.858 44.7715 203.139 44.7715Z" fill="#FAFAFA"/>
<path d="M203.139 57.0635C205.419 57.0635 207.268 55.2147 207.268 52.9341C207.268 50.6535 205.419 48.8047 203.139 48.8047C200.858 48.8047 199.009 50.6535 199.009 52.9341C199.009 55.2147 200.858 57.0635 203.139 57.0635Z" fill="#F0F0F0"/>
<path d="M203.139 56.0605C205.419 56.0605 207.268 54.2118 207.268 51.9312C207.268 49.6505 205.419 47.8018 203.139 47.8018C200.858 47.8018 199.009 49.6505 199.009 51.9312C199.009 54.2118 200.858 56.0605 203.139 56.0605Z" fill="#FAFAFA"/>
<path d="M219.22 131.483H196.044V141.599H219.22V131.483Z" fill="#EBEBEB"/>
<path d="M197.654 130.083H194.428V142.998H197.654V130.083Z" fill="#F5F5F5"/>
<path d="M220.83 130.083H217.604V142.998H220.83V130.083Z" fill="#F5F5F5"/>
<path d="M193.856 134.931H196.044V138.157H193.856C193.579 138.157 193.314 138.047 193.118 137.851C192.922 137.656 192.812 137.39 192.812 137.113V135.974C192.812 135.698 192.922 135.432 193.118 135.236C193.314 135.041 193.579 134.931 193.856 134.931Z" fill="#F5F5F5"/>
<path d="M221.397 138.156H219.209V134.93H221.397C221.674 134.93 221.939 135.04 222.135 135.236C222.331 135.431 222.441 135.697 222.441 135.974V137.113C222.441 137.389 222.331 137.655 222.135 137.851C221.939 138.046 221.674 138.156 221.397 138.156Z" fill="#F5F5F5"/>
<path d="M213.856 160.058H201.402V125.086C201.402 124.268 201.563 123.459 201.876 122.703C202.189 121.948 202.648 121.261 203.226 120.683C203.804 120.105 204.491 119.646 205.246 119.333C206.002 119.02 206.811 118.859 207.629 118.859C208.447 118.859 209.257 119.019 210.013 119.332C210.768 119.645 211.455 120.103 212.033 120.682C212.612 121.26 213.07 121.947 213.383 122.702C213.696 123.458 213.856 124.268 213.856 125.086V160.058Z" fill="#F5F5F5"/>
<path d="M202.24 157.956H213.023C213.429 157.957 213.832 158.038 214.207 158.194C214.582 158.351 214.922 158.58 215.209 158.869C215.495 159.157 215.721 159.5 215.875 159.876C216.029 160.252 216.106 160.655 216.104 161.062V164.358H199.154V161.062C199.152 160.655 199.23 160.252 199.384 159.875C199.537 159.498 199.764 159.156 200.051 158.867C200.338 158.578 200.679 158.349 201.055 158.193C201.43 158.037 201.833 157.956 202.24 157.956Z" fill="#EBEBEB"/>
<path d="M207.629 141.85C210.572 141.85 212.958 139.464 212.958 136.521C212.958 133.578 210.572 131.192 207.629 131.192C204.686 131.192 202.3 133.578 202.3 136.521C202.3 139.464 204.686 141.85 207.629 141.85Z" fill="#FAFAFA"/>
<path d="M208.898 136.52C208.899 136.772 208.826 137.017 208.687 137.227C208.548 137.436 208.35 137.6 208.118 137.697C207.886 137.793 207.631 137.819 207.384 137.771C207.138 137.723 206.911 137.602 206.733 137.425C206.555 137.247 206.434 137.021 206.384 136.775C206.335 136.528 206.36 136.273 206.456 136.041C206.552 135.808 206.714 135.61 206.923 135.47C207.132 135.33 207.378 135.256 207.629 135.256C207.965 135.256 208.287 135.389 208.525 135.626C208.763 135.863 208.897 136.184 208.898 136.52Z" fill="#EBEBEB"/>
<path d="M199.154 126.858C199.154 126.429 199.325 126.018 199.628 125.715C199.931 125.412 200.342 125.242 200.77 125.242H214.493C214.921 125.244 215.33 125.414 215.632 125.717C215.934 126.02 216.104 126.43 216.104 126.858C216.104 127.285 215.934 127.696 215.632 127.998C215.33 128.301 214.921 128.472 214.493 128.473H200.77C200.342 128.473 199.931 128.303 199.628 128C199.325 127.697 199.154 127.286 199.154 126.858Z" fill="#F0F0F0"/>
<path d="M204.919 144.75C205.347 144.75 205.757 144.92 206.06 145.221C206.363 145.523 206.534 145.933 206.535 146.361V154.705C206.535 154.917 206.493 155.127 206.412 155.323C206.331 155.519 206.212 155.697 206.062 155.847C205.912 155.997 205.734 156.116 205.538 156.197C205.342 156.279 205.132 156.32 204.919 156.32C204.492 156.319 204.082 156.148 203.78 155.845C203.478 155.543 203.309 155.132 203.309 154.705V146.361C203.309 145.933 203.479 145.524 203.781 145.222C204.083 144.92 204.492 144.75 204.919 144.75Z" fill="#EBEBEB"/>
<path d="M210.339 144.75C210.766 144.75 211.176 144.92 211.479 145.221C211.782 145.523 211.953 145.933 211.954 146.361V154.705C211.954 154.917 211.912 155.127 211.831 155.323C211.75 155.519 211.631 155.697 211.481 155.847C211.331 155.997 211.153 156.116 210.957 156.197C210.761 156.279 210.551 156.32 210.339 156.32C209.911 156.319 209.501 156.148 209.199 155.845C208.897 155.543 208.728 155.132 208.728 154.705V146.361C208.728 145.933 208.898 145.524 209.2 145.222C209.502 144.92 209.911 144.75 210.339 144.75Z" fill="#EBEBEB"/>
<path d="M36.1512 164.408H34.9169C34.8311 164.408 34.7461 164.391 34.6671 164.357C34.5881 164.323 34.5167 164.274 34.4572 164.212C34.3977 164.151 34.3513 164.077 34.3208 163.997C34.2903 163.917 34.2763 163.831 34.2797 163.746L35.6244 133.425H38.7854L36.7784 163.816C36.7671 163.975 36.6963 164.124 36.5802 164.234C36.464 164.344 36.3109 164.406 36.1512 164.408Z" fill="#F0F0F0"/>
<path d="M41.334 164.408H40.0997C40.0141 164.408 39.9294 164.391 39.8506 164.357C39.7719 164.323 39.7008 164.274 39.6417 164.212C39.5826 164.15 39.5367 164.077 39.5067 163.997C39.4768 163.916 39.4634 163.831 39.4675 163.746L40.7971 133.425H43.9682L41.9612 163.816C41.951 163.976 41.8807 164.125 41.7643 164.235C41.6479 164.345 41.4941 164.407 41.334 164.408Z" fill="#F0F0F0"/>
<path d="M55.7345 164.408H56.9688C57.0547 164.408 57.1396 164.391 57.2186 164.357C57.2976 164.323 57.369 164.274 57.4285 164.212C57.488 164.151 57.5344 164.077 57.5649 163.997C57.5954 163.917 57.6094 163.831 57.606 163.746L56.2714 133.425H53.1003L55.1073 163.816C55.1175 163.976 55.1879 164.125 55.3043 164.235C55.4207 164.345 55.5745 164.407 55.7345 164.408Z" fill="#F0F0F0"/>
<path d="M60.8421 164.408H62.0764C62.1622 164.408 62.2472 164.391 62.3262 164.357C62.4052 164.323 62.4766 164.274 62.5361 164.212C62.5956 164.151 62.642 164.077 62.6725 163.997C62.703 163.917 62.717 163.831 62.7136 163.746L61.384 133.425H58.2029L60.2099 163.816C60.2201 163.976 60.2912 164.127 60.4087 164.237C60.5261 164.347 60.6811 164.408 60.8421 164.408Z" fill="#F0F0F0"/>
<path d="M44.1037 115.588H41.4143V129.797H44.1037V115.588Z" fill="#F0F0F0"/>
<path d="M55.9954 115.588H53.306V129.797H55.9954V115.588Z" fill="#F0F0F0"/>
<path d="M65.1022 132.829C65.1022 135.969 57.8369 135.673 48.8756 135.673C39.9144 135.673 32.644 135.969 32.644 132.829C32.644 129.688 39.9094 127.139 48.8756 127.139C57.8419 127.139 65.1022 129.683 65.1022 132.829Z" fill="#F5F5F5"/>
<path d="M56.5922 117.134H41.1434C39.9667 117.133 38.8333 116.69 37.9693 115.891C37.1053 115.092 36.5743 113.997 36.4821 112.824L35.9804 106.662C35.9335 106.021 36.0192 105.377 36.2322 104.771C36.4451 104.165 36.7808 103.609 37.2182 103.138C37.6556 102.667 38.1853 102.292 38.7743 102.035C39.3633 101.778 39.999 101.645 40.6416 101.645H57.0438C57.6866 101.644 58.3227 101.776 58.912 102.033C59.5014 102.29 60.0314 102.665 60.469 103.136C60.9065 103.607 61.2421 104.164 61.4548 104.77C61.6675 105.377 61.7527 106.021 61.705 106.662L61.2033 112.824C61.113 113.988 60.5894 115.077 59.7358 115.875C58.8822 116.673 57.7606 117.122 56.5922 117.134Z" fill="#F5F5F5"/>
<path d="M52.6137 58.7646H34.3851V73.1348H52.6137V58.7646Z" fill="#F0F0F0"/>
<path d="M34.3849 58.7646H33.4015V73.1348H34.3849V58.7646Z" fill="#E0E0E0"/>
<path d="M50.7519 60.2305H36.2413V71.6704H50.7519V60.2305Z" fill="#FAFAFA"/>
<path d="M49.5631 61.1729H37.4408V70.7312H49.5631V61.1729Z" fill="#EBEBEB"/>
<path d="M76.4364 35.4434H56.3715V60.8871H76.4364V35.4434Z" fill="#EBEBEB"/>
<path d="M56.3715 35.4434H55.4132V60.8871H56.3715V35.4434Z" fill="#E0E0E0"/>
<path d="M74.3894 38.0381H58.4187V58.2937H74.3894V38.0381Z" fill="#F5F5F5"/>
<path d="M73.075 39.708H59.7335V56.632H73.075V39.708Z" fill="#FAFAFA"/>
<path d="M63.7622 45.6591C63.7622 45.6591 66.1204 48.9957 67.3347 48.9405C68.4435 48.8953 70.3452 45.6591 70.3452 45.6591C70.3452 45.6591 67.9869 42.3224 66.7727 42.3776C65.6488 42.4429 63.7622 45.6591 63.7622 45.6591Z" fill="#EBEBEB"/>
<path d="M69.934 53.0654C70.6315 51.7207 66.9888 48.8958 65.4735 48.9611C64.0836 49.0213 61.1885 51.7859 61.7304 53.0654C62.5232 54.957 68.9907 54.8867 69.934 53.0654Z" fill="#F0F0F0"/>
<path d="M39.9642 51.1838C44.966 51.1838 49.0207 45.5296 49.0207 38.5548C49.0207 31.58 44.966 25.9258 39.9642 25.9258C34.9624 25.9258 30.9076 31.58 30.9076 38.5548C30.9076 45.5296 34.9624 51.1838 39.9642 51.1838Z" fill="#E0E0E0"/>
<path d="M41.0431 51.1838C46.045 51.1838 50.0997 45.5296 50.0997 38.5548C50.0997 31.58 46.045 25.9258 41.0431 25.9258C36.0413 25.9258 31.9866 31.58 31.9866 38.5548C31.9866 45.5296 36.0413 51.1838 41.0431 51.1838Z" fill="#EBEBEB"/>
<path d="M41.0431 49.3119C45.305 49.3119 48.76 44.4956 48.76 38.5544C48.76 32.6132 45.305 27.7969 41.0431 27.7969C36.7811 27.7969 33.3262 32.6132 33.3262 38.5544C33.3262 44.4956 36.7811 49.3119 41.0431 49.3119Z" fill="#E6E6E6"/>
<path d="M41.0433 48.1675C44.8508 48.1675 47.9374 43.8633 47.9374 38.5539C47.9374 33.2445 44.8508 28.9404 41.0433 28.9404C37.2359 28.9404 34.1493 33.2445 34.1493 38.5539C34.1493 43.8633 37.2359 48.1675 41.0433 48.1675Z" fill="#FAFAFA"/>
<path d="M43.2059 43.7771C43.9242 43.0909 44.4861 42.2579 44.8532 41.3349C45.2203 40.4119 45.3841 39.4205 45.3334 38.4285C45.3334 38.4285 42.4884 38.0923 42.5737 42.8589C42.5737 42.8589 39.3676 39.5323 40.3159 37.425C41.8211 34.1285 41.8211 34.1285 40.7474 32.0713C40.7474 32.0713 37.9526 33.2002 39.2421 37.0035C39.2677 37.9951 39.4177 38.9795 39.6887 39.9337C39.6887 39.9337 36.8739 37.2343 35.9657 39.0004C35.9657 39.0004 37.4709 41.8554 39.6887 40.6713C39.6736 40.6713 42.1473 45.0415 43.2059 43.7771Z" fill="#EBEBEB"/>
<path d="M123.019 185C176.747 185 220.303 182.457 220.303 179.32C220.303 176.184 176.747 173.641 123.019 173.641C69.2902 173.641 25.7346 176.184 25.7346 179.32C25.7346 182.457 69.2902 185 123.019 185Z" fill="#F5F5F5"/>
<path d="M161.453 70.5513C160.103 69.1464 159.145 66.5373 158.678 64.8564L156.546 69.9442C156.888 70.34 157.137 70.8085 157.272 71.3143C157.408 71.8201 157.427 72.3501 157.328 72.8644C157.328 72.9095 157.253 73.7625 155.823 74.6355C155.823 74.6355 156.079 79.7835 159.145 79.056C162.21 78.3284 163.876 72.2171 163.876 72.2171L164.097 70.4861C164.097 70.4861 162.702 71.6602 161.453 70.5513Z" fill="#FFC3BD"/>
<path opacity="0.1" d="M157.083 68.6992L156.581 69.9436C156.982 70.4246 157.255 70.9995 157.374 71.6144C158.778 69.9586 158.934 67.2793 158.934 67.2793L157.083 68.6992Z" fill="black"/>
<path d="M134.825 93.4611C134.825 93.4611 143.099 93.7973 146.772 92.7938C150.444 91.7903 153.565 85.3629 153.565 85.3629L149.376 83.0498L145.211 89.2464L134.835 90.9072L131.855 88.8099C131.855 88.8099 125.834 87.5254 125.834 88.3081C125.834 89.0909 128.939 89.7231 128.939 89.7231C128.939 89.7231 129.125 93.426 130.4 93.5414C131.674 93.6568 134.825 93.4611 134.825 93.4611Z" fill="#FFC3BD"/>
<path d="M155.075 75.7648C155.075 75.7648 151.493 76.2665 149.15 80.6066C146.807 84.9468 148.809 85.1224 150.791 86.3467C152.772 87.5709 153.766 87.8519 154.679 85.1726C155.592 82.4932 157.394 75.4888 155.075 75.7648Z" fill="#407BFF"/>
<path opacity="0.1" d="M155.065 83.9474L153.736 81.238L151.503 81.0674C151.395 82.9842 151.434 84.9065 151.618 86.8174C153.068 87.5751 153.906 87.4245 154.679 85.1617C154.795 84.8205 154.93 84.409 155.065 83.9474Z" fill="black"/>
<path d="M147.931 58.474C147.931 58.474 145.322 59.3972 147.048 62.0515C148.774 64.7057 145.292 66.512 151.137 67.2446C156.982 67.9771 151.343 57.4053 151.343 57.4053L147.931 58.474Z" fill="#263238"/>
<path opacity="0.3" d="M147.931 58.474C147.931 58.474 145.322 59.3972 147.048 62.0515C148.774 64.7057 145.292 66.512 151.137 67.2446C156.982 67.9771 151.343 57.4053 151.343 57.4053L147.931 58.474Z" fill="black"/>
<path d="M170.404 75.1324C169.531 69.4526 166.224 69.5529 163.003 70.8224C163.229 72.9598 163.234 75.6893 160.138 77.3903C157.353 78.8955 156.27 76.3868 156.209 74.2694C153.289 75.9302 150.851 78.0576 151.649 82.2974C152.105 84.7058 154.233 87.35 156.41 90.7067C159.014 94.7207 161.694 99.2766 161.694 99.2766L176.576 91.7002C176.576 91.7002 171.352 81.2839 170.404 75.1324Z" fill="#407BFF"/>
<path opacity="0.2" d="M170.404 75.1323C170.298 74.4001 170.118 73.6806 169.867 72.9849L167.614 72.6035L166.44 74.47C166.44 74.47 168.924 78.8453 172.225 81.6099C171.419 79.5117 170.809 77.3432 170.404 75.1323Z" fill="black"/>
<path d="M174.383 73.3262C174.383 73.3262 179.491 76.8384 181.051 78.168C183.374 80.175 189.631 86.9336 189.631 86.9336L193.469 89.0309V91.4594L191.653 92.7138C191.52 92.8054 191.371 92.8697 191.213 92.9029C191.055 92.9362 190.893 92.9376 190.734 92.9073C190.576 92.8769 190.425 92.8153 190.291 92.7261C190.157 92.6369 190.041 92.5218 189.952 92.3876L187.624 88.9105C187.624 88.9105 181.884 83.6672 179.772 82.172C177.985 80.9076 172.195 77.8018 172.195 77.8018L174.383 73.3262Z" fill="#FFC3BD"/>
<path d="M164.955 70.2955C164.955 70.2955 168.246 68.8154 171.051 70.2955C173.856 71.7757 175.095 72.5885 174.819 74.3748C174.543 76.161 173.515 79.8539 171.668 79.2417C169.822 78.6296 163.931 72.7842 164.955 70.2955Z" fill="#407BFF"/>
<path d="M159.456 60.6216C159.837 64.47 160.083 66.0856 158.478 68.3485C156.059 71.7554 151.252 71.3841 149.732 67.7314C148.357 64.4399 147.966 58.6999 151.448 56.5925C152.212 56.1162 153.086 55.8439 153.986 55.8017C154.885 55.7595 155.781 55.9488 156.586 56.3516C157.392 56.7543 158.08 57.357 158.586 58.102C159.092 58.847 159.399 59.7093 159.476 60.6065L159.456 60.6216Z" fill="#FFC3BD"/>
<path d="M151.373 63.5615C151.211 64.3131 150.948 65.039 150.59 65.719C150.765 65.8075 150.957 65.8565 151.153 65.8626C151.349 65.8686 151.544 65.8316 151.724 65.7542L151.373 63.5615Z" fill="#ED893E"/>
<path d="M153.942 60.9931C153.965 60.9801 153.984 60.961 153.997 60.9379C154.016 60.9031 154.02 60.8624 154.01 60.8242C154 60.7859 153.975 60.7531 153.942 60.7322C153.696 60.5837 153.418 60.4966 153.132 60.4783C152.845 60.4599 152.559 60.5109 152.296 60.6269C152.26 60.647 152.234 60.6801 152.221 60.7193C152.209 60.7584 152.213 60.8008 152.231 60.8376C152.249 60.8726 152.28 60.8991 152.318 60.9113C152.355 60.9235 152.396 60.9204 152.431 60.9028C152.651 60.8105 152.889 60.7715 153.126 60.7889C153.363 60.8064 153.593 60.8798 153.796 61.0032C153.819 61.0145 153.845 61.0195 153.87 61.0177C153.896 61.0159 153.92 61.0075 153.942 60.9931Z" fill="#263238"/>
<path d="M148.196 61.9665L148.262 61.9163C148.411 61.7337 148.6 61.5887 148.816 61.4928C149.031 61.3969 149.266 61.3529 149.501 61.3644C149.541 61.3701 149.583 61.3597 149.616 61.3352C149.648 61.3108 149.67 61.2744 149.677 61.2339C149.678 61.1932 149.665 61.1532 149.639 61.1218C149.613 61.0903 149.576 61.0695 149.536 61.0633C149.251 61.0475 148.966 61.0993 148.704 61.2144C148.443 61.3294 148.212 61.5046 148.031 61.7256C148.003 61.7546 147.987 61.7933 147.987 61.8335C147.987 61.8737 148.003 61.9124 148.031 61.9414C148.053 61.9607 148.08 61.9737 148.109 61.979C148.139 61.9843 148.169 61.9817 148.196 61.9715V61.9665Z" fill="#263238"/>
<path d="M153.48 62.7185C153.53 63.0246 153.405 63.3006 153.199 63.3357C152.993 63.3708 152.793 63.15 152.748 62.8339C152.702 62.5178 152.818 62.2519 153.018 62.2168C153.219 62.1817 153.425 62.3874 153.48 62.7185Z" fill="#263238"/>
<path d="M149.973 63.2653C150.023 63.5714 149.898 63.8473 149.697 63.8824C149.496 63.9176 149.296 63.6918 149.24 63.3807C149.185 63.0696 149.316 62.7936 149.516 62.7635C149.717 62.7334 149.928 62.9492 149.973 63.2653Z" fill="#263238"/>
<path d="M149.606 62.7641L148.829 62.6738C148.829 62.6738 149.305 63.1906 149.606 62.7641Z" fill="#263238"/>
<path d="M153.114 62.2173L152.336 62.127C152.336 62.127 152.813 62.6237 153.114 62.2173Z" fill="#263238"/>
<path d="M154.227 67.1789C154.418 67.0861 154.6 66.9752 154.769 66.8478C154.781 66.8393 154.791 66.8285 154.799 66.8161C154.807 66.8036 154.812 66.7898 154.814 66.7753C154.817 66.7608 154.816 66.746 154.813 66.7317C154.809 66.7175 154.803 66.7041 154.794 66.6923C154.773 66.6729 154.745 66.6621 154.717 66.6621C154.688 66.6621 154.66 66.6729 154.639 66.6923C154.264 66.9792 153.828 67.1741 153.364 67.2613C152.9 67.3484 152.423 67.3254 151.969 67.194C151.956 67.1883 151.942 67.1853 151.927 67.1852C151.912 67.1851 151.898 67.188 151.884 67.1936C151.871 67.1992 151.858 67.2074 151.848 67.2179C151.838 67.2283 151.829 67.2406 151.824 67.2542C151.818 67.2679 151.814 67.2828 151.814 67.298C151.814 67.3131 151.817 67.3281 151.823 67.3419C151.829 67.3557 151.839 67.368 151.85 67.378C151.861 67.388 151.875 67.3954 151.889 67.3997C152.668 67.6328 153.506 67.5537 154.227 67.1789Z" fill="#263238"/>
<path d="M151.157 58.5144C149.652 58.695 145.638 59.839 146.275 56.096C146.912 52.3529 154.082 50.4814 157.414 52.8998C160.745 55.3183 163.304 55.1376 165.943 53.1758C168.583 51.214 169.867 51.9867 173.249 53.813C173.249 53.813 171.422 56.964 172.29 58.8807C172.29 58.8807 170.283 56.8737 166.535 59.0162C166.535 59.0162 170.871 57.8672 172.516 60.8626C172.516 60.8626 172.06 64.1691 173.655 66.136C175.251 68.1028 173.61 70.431 167.494 68.0577C161.377 65.6844 160.725 67.862 159.315 66.8134C157.905 65.7647 156.847 62.9248 156.626 60.8626C156.485 59.3774 155.818 57.9625 151.157 58.5144Z" fill="#263238"/>
<path d="M159.983 63.2661C159.935 63.6336 159.815 63.9881 159.63 64.3093C159.445 64.6304 159.198 64.9119 158.904 65.1376C158.116 65.7297 157.359 65.1376 157.278 64.1793C157.203 63.3414 157.524 62.0167 158.462 61.7859C158.669 61.7434 158.883 61.7528 159.085 61.8134C159.287 61.874 159.471 61.9838 159.621 62.133C159.77 62.2823 159.88 62.4662 159.94 62.6683C160.001 62.8705 160.01 63.0845 159.968 63.2912L159.983 63.2661Z" fill="#FFC3BD"/>
<path d="M180.128 169.592C180.258 172.798 180.354 175.342 180.354 175.342L176.791 175.748C176.791 175.748 176.45 173.581 175.938 170.254L180.128 169.592Z" fill="#FFC3BD"/>
<path d="M175.226 174.976C174.858 175.043 174.479 174.971 174.162 174.775C174.124 174.721 174.104 174.657 174.104 174.592C174.104 174.526 174.124 174.462 174.162 174.409C174.187 174.357 174.222 174.312 174.265 174.274C174.308 174.237 174.358 174.209 174.413 174.193C175 173.992 176.284 174.619 176.34 174.649C176.355 174.657 176.368 174.669 176.377 174.685C176.386 174.7 176.391 174.717 176.39 174.735C176.388 174.752 176.381 174.768 176.369 174.781C176.357 174.793 176.341 174.802 176.325 174.805C175.964 174.895 175.596 174.952 175.226 174.976ZM174.619 174.323C174.564 174.323 174.509 174.333 174.458 174.353C174.423 174.36 174.391 174.375 174.363 174.397C174.335 174.419 174.313 174.447 174.297 174.479C174.242 174.589 174.267 174.639 174.297 174.664C174.478 174.885 175.376 174.835 176.033 174.71C175.587 174.493 175.104 174.362 174.609 174.323H174.619Z" fill="#407BFF"/>
<path d="M176.295 174.805H176.259C175.823 174.645 174.92 173.927 174.97 173.521C174.97 173.425 175.035 173.305 175.266 173.265C175.353 173.247 175.443 173.248 175.529 173.268C175.616 173.288 175.697 173.326 175.768 173.38C176.117 173.747 176.341 174.217 176.405 174.72C176.408 174.732 176.408 174.745 176.405 174.757C176.401 174.77 176.395 174.781 176.385 174.79C176.376 174.798 176.365 174.805 176.352 174.807C176.34 174.81 176.327 174.809 176.315 174.805H176.295ZM175.331 173.42H175.286C175.135 173.42 175.125 173.506 175.125 173.526C175.125 173.767 175.718 174.339 176.174 174.569C176.107 174.169 175.917 173.799 175.632 173.511C175.546 173.446 175.439 173.414 175.331 173.42Z" fill="#407BFF"/>
<path d="M176.641 174.283L180.524 174.037C180.596 174.032 180.666 174.052 180.725 174.093C180.783 174.134 180.826 174.194 180.845 174.263L181.754 177.379C181.776 177.444 181.784 177.513 181.778 177.582C181.772 177.651 181.752 177.718 181.719 177.779C181.686 177.84 181.641 177.893 181.587 177.935C181.532 177.978 181.469 178.009 181.402 178.026C181.366 178.031 181.329 178.031 181.292 178.026C179.892 178.091 178.638 178.096 176.897 178.206C174.839 178.342 175.391 178.553 172.958 178.743C171.503 178.854 171.131 177.238 171.744 177.093C174.548 176.556 174.789 175.683 175.813 174.584C176.045 174.39 176.338 174.284 176.641 174.283Z" fill="#263238"/>
<path d="M177.97 93.9179L177.293 91.4844C177.272 91.4159 177.236 91.3526 177.188 91.299C177.141 91.2454 177.082 91.2027 177.016 91.1737C176.951 91.1447 176.88 91.1301 176.808 91.1309C176.736 91.1317 176.665 91.1479 176.6 91.1783L161.417 98.8451C161.356 98.8781 161.303 98.9236 161.26 98.9785C161.217 99.0334 161.186 99.0966 161.169 99.1641C161.152 99.2315 161.149 99.3018 161.161 99.3704C161.173 99.439 161.199 99.5045 161.237 99.5626L162.772 101.795C162.772 101.795 166.54 127.445 168.086 135.975C169.681 144.67 175.391 170.691 175.391 170.691C175.409 170.783 175.463 170.865 175.541 170.918C175.619 170.972 175.715 170.993 175.808 170.977L180.228 170.264C180.312 170.25 180.388 170.207 180.444 170.143C180.5 170.079 180.532 169.998 180.534 169.913C180.584 167.695 180.534 153.676 179.139 143.757C178.637 140.214 177.443 137.374 177.037 135.423C176.59 133.27 177.283 131.825 177.539 126.642C178.091 116.908 178.703 101.504 177.97 93.9179Z" fill="#263238"/>
<path opacity="0.5" d="M177.574 126.662C177.75 123.396 177.93 119.502 178.076 115.478L173.67 108.052L171.709 103.667L169.852 106.176C169.852 106.176 173.133 119.979 177.444 128.649C177.489 128.067 177.539 127.405 177.574 126.662Z" fill="black"/>
<path d="M210.985 157.318C212.832 159.943 214.031 161.669 214.031 161.669L211.236 163.936L207.543 159.782L210.985 157.318Z" fill="#FFC3BD"/>
<path d="M209.31 164.113C209.037 164.368 208.679 164.513 208.306 164.519C208.243 164.498 208.188 164.458 208.149 164.404C208.111 164.35 208.09 164.285 208.09 164.218C208.08 164.105 208.114 163.991 208.186 163.902C208.572 163.401 209.992 163.25 210.057 163.24C210.075 163.238 210.093 163.241 210.108 163.25C210.124 163.259 210.136 163.273 210.142 163.29C210.152 163.304 210.157 163.321 210.157 163.338C210.157 163.355 210.152 163.371 210.142 163.385C209.886 163.651 209.607 163.894 209.31 164.113ZM208.442 163.892C208.397 163.924 208.356 163.961 208.321 164.003C208.298 164.029 208.281 164.061 208.271 164.094C208.26 164.128 208.257 164.163 208.261 164.198C208.261 164.319 208.321 164.349 208.356 164.359C208.627 164.444 209.36 163.917 209.861 163.456C209.365 163.509 208.882 163.657 208.442 163.892Z" fill="#407BFF"/>
<path d="M210.117 163.39H210.087C209.631 163.49 208.482 163.39 208.306 163.009C208.256 162.923 208.241 162.788 208.417 162.632C208.478 162.575 208.551 162.531 208.63 162.503C208.71 162.474 208.794 162.462 208.878 162.467C209.373 162.588 209.817 162.862 210.148 163.25C210.155 163.263 210.159 163.277 210.159 163.292C210.159 163.307 210.155 163.322 210.148 163.335C210.144 163.356 210.133 163.375 210.117 163.39ZM208.557 162.748L208.517 162.773C208.401 162.873 208.427 162.928 208.437 162.949C208.562 163.154 209.375 163.31 209.887 163.255C209.609 162.957 209.249 162.749 208.853 162.658C208.747 162.652 208.642 162.684 208.557 162.748Z" fill="#407BFF"/>
<path d="M210.123 162.768L213.259 160.455C213.314 160.41 213.383 160.386 213.454 160.386C213.526 160.386 213.595 160.41 213.65 160.455L216.094 162.587C216.148 162.63 216.193 162.683 216.225 162.744C216.258 162.805 216.278 162.872 216.283 162.941C216.289 163.009 216.28 163.079 216.258 163.144C216.236 163.209 216.2 163.269 216.154 163.32C216.13 163.348 216.103 163.373 216.073 163.395C214.929 164.208 213.876 164.901 212.471 165.929C210.815 167.153 211.382 167.043 209.46 168.508C208.296 169.391 207.097 168.212 207.544 167.781C209.616 165.809 209.345 164.946 209.621 163.481C209.698 163.191 209.876 162.939 210.123 162.768Z" fill="#263238"/>
<path d="M166.852 100.109C166.852 100.109 178.477 126.907 183.971 134.895C188.853 141.99 207.388 160.143 207.388 160.143C207.525 160.291 207.713 160.38 207.914 160.392C208.115 160.404 208.313 160.338 208.467 160.208L211.041 158.021C211.182 157.899 211.275 157.732 211.304 157.548C211.334 157.365 211.297 157.176 211.201 157.017C209.621 154.443 202.967 143.741 197.127 136.777C194.799 134.002 192.561 131.965 191.457 130.434C190.007 128.427 190.348 126.792 189.199 121.177C187.062 110.736 182.898 95.3823 176.575 92.9287L166.852 100.109Z" fill="#263238"/>
<path opacity="0.3" d="M144.408 175.828H97.0481C96.2885 175.842 95.5347 175.693 94.8368 175.393C94.1389 175.093 93.513 174.647 93.0008 174.086C92.4886 173.525 92.1018 172.861 91.8661 172.139C91.6305 171.417 91.5515 170.652 91.6343 169.897L102.041 50.9825C102.204 49.375 102.95 47.8831 104.139 46.7892C105.329 45.6953 106.878 45.0754 108.493 45.0468H155.853C156.613 45.0329 157.368 45.1812 158.066 45.4818C158.764 45.7825 159.39 46.2285 159.903 46.7902C160.415 47.3519 160.802 48.0163 161.037 48.7392C161.272 49.4621 161.351 50.2269 161.267 50.9825L150.861 169.897C150.697 171.504 149.949 172.994 148.76 174.087C147.571 175.18 146.023 175.799 144.408 175.828Z" fill="#407BFF"/>
<path d="M155.853 45.0273H108.493C106.878 45.0558 105.329 45.6758 104.139 46.7696C102.95 47.8635 102.204 49.3555 102.041 50.963L91.6343 169.878C91.5515 170.633 91.6305 171.397 91.8661 172.119C92.1018 172.842 92.4886 173.505 93.0008 174.066C93.513 174.628 94.1389 175.073 94.8368 175.373C95.5347 175.674 96.2885 175.822 97.0481 175.808H144.408C146.023 175.78 147.571 175.161 148.76 174.068C149.949 172.975 150.697 171.484 150.861 169.878L161.267 50.963C161.351 50.2073 161.272 49.4426 161.037 48.7197C160.802 47.9968 160.415 47.3323 159.903 46.7706C159.39 46.209 158.764 45.7629 158.066 45.4623C157.368 45.1617 156.613 45.0134 155.853 45.0273ZM148.227 169.898C148.135 170.791 147.719 171.619 147.058 172.226C146.397 172.834 145.537 173.178 144.639 173.194H97.279C96.8567 173.202 96.4378 173.119 96.0499 172.952C95.662 172.785 95.3141 172.537 95.0293 172.226C94.7446 171.914 94.5294 171.545 94.3983 171.144C94.2671 170.742 94.2228 170.317 94.2685 169.898L104.675 50.983C104.765 50.0892 105.181 49.2596 105.842 48.6512C106.503 48.0428 107.364 47.6978 108.262 47.6815H155.622C156.045 47.674 156.465 47.7566 156.853 47.9239C157.241 48.0911 157.589 48.3392 157.874 48.6516C158.159 48.964 158.374 49.3335 158.505 49.7355C158.636 50.1375 158.679 50.5628 158.633 50.983L148.227 169.898Z" fill="#407BFF"/>
<path opacity="0.6" d="M155.853 45.0273H108.493C106.878 45.0558 105.329 45.6758 104.139 46.7696C102.95 47.8635 102.204 49.3555 102.041 50.963L91.6343 169.878C91.5515 170.633 91.6305 171.397 91.8661 172.119C92.1018 172.842 92.4886 173.505 93.0008 174.066C93.513 174.628 94.1389 175.073 94.8368 175.373C95.5347 175.674 96.2885 175.822 97.0481 175.808H144.408C146.023 175.78 147.571 175.161 148.76 174.068C149.949 172.975 150.697 171.484 150.861 169.878L161.267 50.963C161.351 50.2073 161.272 49.4426 161.037 48.7197C160.802 47.9968 160.415 47.3323 159.903 46.7706C159.39 46.209 158.764 45.7629 158.066 45.4623C157.368 45.1617 156.613 45.0134 155.853 45.0273ZM148.227 169.898C148.135 170.791 147.719 171.619 147.058 172.226C146.397 172.834 145.537 173.178 144.639 173.194H97.279C96.8567 173.202 96.4378 173.119 96.0499 172.952C95.662 172.785 95.3141 172.537 95.0293 172.226C94.7446 171.914 94.5294 171.545 94.3983 171.144C94.2671 170.742 94.2228 170.317 94.2685 169.898L104.675 50.983C104.765 50.0892 105.181 49.2596 105.842 48.6512C106.503 48.0428 107.364 47.6978 108.262 47.6815H155.622C156.045 47.674 156.465 47.7566 156.853 47.9239C157.241 48.0911 157.589 48.3392 157.874 48.6516C158.159 48.964 158.374 49.3335 158.505 49.7355C158.636 50.1375 158.679 50.5628 158.633 50.983L148.227 169.898Z" fill="#121415"/>
<path d="M127.841 168.482H114.795C114.596 168.486 114.406 168.562 114.26 168.697C114.114 168.832 114.022 169.016 114.002 169.214C113.992 169.307 114.002 169.401 114.032 169.49C114.061 169.578 114.108 169.66 114.172 169.729C114.235 169.798 114.312 169.852 114.398 169.889C114.484 169.926 114.576 169.944 114.67 169.942H127.715C127.914 169.939 128.105 169.864 128.252 169.73C128.399 169.595 128.492 169.412 128.513 169.214C128.523 169.121 128.513 169.026 128.484 168.937C128.454 168.847 128.406 168.765 128.342 168.696C128.279 168.627 128.201 168.572 128.115 168.535C128.028 168.498 127.935 168.48 127.841 168.482Z" fill="#121415"/>
<path opacity="0.1" d="M127.519 100.349H113.711C113.268 100.357 112.827 100.271 112.42 100.096C112.012 99.9208 111.647 99.6607 111.348 99.3331C111.049 99.0055 110.823 98.6178 110.685 98.196C110.548 97.7742 110.502 97.328 110.55 96.887L111.759 83.0739C111.855 82.1365 112.291 81.2666 112.984 80.6287C113.677 79.9908 114.581 79.629 115.523 79.6118H129.336C129.779 79.6042 130.219 79.6911 130.626 79.8665C131.033 80.042 131.399 80.3021 131.697 80.6295C131.996 80.957 132.222 81.3443 132.36 81.7657C132.498 82.1871 132.545 82.633 132.497 83.0739L131.288 96.887C131.192 97.8252 130.756 98.6958 130.061 99.3338C129.367 99.9718 128.462 100.333 127.519 100.349Z" fill="black"/>
<path d="M126.014 98.8442H112.206C111.762 98.8526 111.322 98.7663 110.915 98.5911C110.507 98.4159 110.141 98.1558 109.842 97.8282C109.543 97.5006 109.317 97.1129 109.18 96.6911C109.042 96.2694 108.996 95.8231 109.045 95.3821L110.254 81.569C110.35 80.6316 110.785 79.7618 111.479 79.1238C112.172 78.4859 113.075 78.1241 114.017 78.1069H127.83C128.274 78.0993 128.714 78.1862 129.121 78.3616C129.528 78.5371 129.893 78.7972 130.192 79.1246C130.491 79.4521 130.717 79.8394 130.855 80.2608C130.993 80.6822 131.039 81.1282 130.991 81.569L129.782 95.3821C129.687 96.3203 129.25 97.1909 128.556 97.8289C127.861 98.467 126.957 98.8282 126.014 98.8442Z" fill="#407BFF"/>
<path d="M122.337 87.2141C122.572 84.5347 120.33 82.3672 117.269 82.3672C114.208 82.3672 111.589 84.5347 111.358 87.2141C111.173 89.3265 112.553 91.1227 114.635 91.78C114.346 92.342 113.885 92.7972 113.32 93.0795C113.42 93.1413 113.526 93.1934 113.636 93.2351C114.198 93.4171 114.806 93.3981 115.355 93.1811C115.904 92.9641 116.361 92.5628 116.647 92.0459C119.577 91.9456 122.111 89.8132 122.337 87.2141Z" fill="#121415"/>
<path d="M128.694 89.5316C128.889 87.3239 127.018 85.5176 124.514 85.5176C124.074 85.5185 123.636 85.5741 123.209 85.6832C123.314 86.1777 123.346 86.6847 123.305 87.1884C123.196 88.1449 122.868 89.0633 122.346 89.872C121.824 90.6806 121.122 91.3574 120.294 91.8497C120.675 92.3408 121.159 92.7424 121.713 93.0259C122.266 93.3094 122.874 93.4679 123.495 93.4904C123.572 93.6921 123.687 93.8767 123.835 94.0336C123.983 94.1906 124.16 94.3167 124.357 94.4049C124.554 94.493 124.766 94.5414 124.982 94.5472C125.197 94.553 125.412 94.5161 125.613 94.4387C125.702 94.4054 125.789 94.3668 125.874 94.3233C125.495 94.1075 125.208 93.7616 125.066 93.3499C127.008 92.8983 128.533 91.363 128.694 89.5316Z" fill="#121415"/>
<path opacity="0.1" d="M121.187 143.099H110.917C110.587 143.105 110.259 143.041 109.956 142.911C109.653 142.781 109.381 142.587 109.158 142.344C108.936 142.1 108.767 141.812 108.665 141.499C108.562 141.185 108.528 140.853 108.563 140.525L109.461 130.254C109.533 129.556 109.857 128.907 110.374 128.432C110.891 127.957 111.564 127.688 112.266 127.675H122.537C122.867 127.669 123.195 127.733 123.499 127.864C123.802 127.994 124.075 128.188 124.297 128.432C124.52 128.676 124.688 128.965 124.79 129.279C124.893 129.593 124.927 129.926 124.89 130.254L123.992 140.525C123.921 141.223 123.596 141.871 123.079 142.345C122.562 142.82 121.889 143.088 121.187 143.099Z" fill="black"/>
<path opacity="0.1" d="M136.26 123.109H123.43C123.018 123.116 122.609 123.036 122.23 122.873C121.851 122.709 121.511 122.467 121.234 122.162C120.956 121.858 120.746 121.497 120.619 121.105C120.492 120.712 120.449 120.297 120.495 119.888L121.614 107.048C121.704 106.174 122.111 105.363 122.758 104.77C123.405 104.176 124.248 103.84 125.126 103.827H137.971C138.383 103.82 138.792 103.901 139.17 104.064C139.549 104.228 139.888 104.47 140.166 104.775C140.443 105.079 140.653 105.44 140.781 105.832C140.908 106.223 140.951 106.638 140.906 107.048L139.787 119.888C139.697 120.764 139.288 121.577 138.638 122.171C137.987 122.765 137.141 123.099 136.26 123.109Z" fill="black"/>
<path d="M134.755 121.603H121.925C121.513 121.61 121.103 121.53 120.725 121.367C120.346 121.204 120.006 120.961 119.728 120.657C119.451 120.352 119.241 119.991 119.114 119.599C118.986 119.207 118.944 118.792 118.99 118.382L120.109 105.542C120.198 104.668 120.605 103.858 121.253 103.264C121.9 102.67 122.743 102.335 123.621 102.321H136.466C136.878 102.314 137.287 102.395 137.665 102.558C138.044 102.722 138.383 102.964 138.66 103.269C138.938 103.573 139.148 103.934 139.275 104.326C139.403 104.718 139.446 105.132 139.401 105.542L138.282 118.382C138.192 119.258 137.783 120.071 137.133 120.665C136.482 121.259 135.636 121.593 134.755 121.603Z" fill="#407BFF"/>
<path d="M119.682 141.593H109.412C109.082 141.599 108.754 141.535 108.451 141.405C108.148 141.275 107.876 141.081 107.653 140.838C107.431 140.594 107.262 140.306 107.16 139.993C107.057 139.679 107.023 139.347 107.058 139.019L107.956 128.748C108.028 128.05 108.352 127.402 108.869 126.926C109.386 126.451 110.059 126.182 110.761 126.169H121.032C121.362 126.163 121.69 126.227 121.994 126.358C122.297 126.488 122.57 126.682 122.792 126.926C123.015 127.17 123.183 127.459 123.285 127.773C123.388 128.088 123.422 128.42 123.385 128.748L122.487 139.019C122.416 139.717 122.091 140.365 121.574 140.839C121.057 141.314 120.384 141.582 119.682 141.593Z" fill="#407BFF"/>
<path d="M135.598 106.667H123.681C123.304 106.665 122.941 106.805 122.662 107.059C122.383 107.312 122.21 107.661 122.176 108.036L121.509 115.904C121.49 116.078 121.509 116.254 121.563 116.42C121.618 116.586 121.707 116.739 121.826 116.868C121.944 116.997 122.088 117.099 122.249 117.169C122.409 117.238 122.583 117.272 122.758 117.269H134.67C135.046 117.27 135.409 117.131 135.687 116.878C135.966 116.626 136.14 116.278 136.175 115.904L136.862 108.046C136.883 107.87 136.866 107.691 136.811 107.522C136.757 107.353 136.667 107.197 136.547 107.066C136.427 106.935 136.28 106.832 136.116 106.763C135.952 106.694 135.775 106.661 135.598 106.667ZM126.471 111.955L122.482 115.623L123.124 108.287L126.471 111.955ZM123.852 107.615H135.257L129.491 112.918C129.439 112.971 129.377 113.013 129.309 113.041C129.24 113.07 129.167 113.085 129.093 113.085C129.018 113.085 128.945 113.07 128.877 113.041C128.808 113.013 128.746 112.971 128.694 112.918L123.852 107.615ZM127.083 112.632L127.961 113.596C128.093 113.738 128.253 113.85 128.431 113.926C128.609 114.002 128.801 114.04 128.995 114.037C129.407 114.035 129.803 113.877 130.104 113.596L131.152 112.632L134.514 116.315H123.079L127.083 112.632ZM131.88 111.96L135.894 108.292L135.252 115.628L131.88 111.96Z" fill="#121415"/>
<path d="M110.51 131.117L113.521 132.341L116.832 130.073L114.344 133.018L116.17 135.597L119.065 128.412L110.51 131.117Z" fill="#121415"/>
<path d="M113.315 133.023L114.67 134.679H113.225L113.315 133.023Z" fill="#121415"/>
<path d="M112.116 135.186L111.8 134.985C111.892 134.836 111.994 134.694 112.106 134.559L112.392 134.804C112.291 134.925 112.199 135.053 112.116 135.186Z" fill="#121415"/>
<path d="M111.965 137.659C111.653 137.487 111.42 137.199 111.318 136.857L111.679 136.756C111.764 137.007 111.944 137.215 112.181 137.333L111.965 137.659ZM111.649 136.365L111.273 136.335C111.31 136.007 111.407 135.689 111.559 135.396L111.9 135.567C111.768 135.815 111.683 136.086 111.649 136.365Z" fill="#121415"/>
<path d="M119.552 138.984L119.18 138.919C119.198 138.828 119.206 138.735 119.205 138.643C119.217 138.482 119.169 138.323 119.07 138.196L119.361 137.955C119.512 138.152 119.59 138.395 119.582 138.643C119.581 138.757 119.571 138.871 119.552 138.984ZM114.218 138.116H113.827V137.739C114.126 137.754 114.426 137.754 114.725 137.739V138.116H114.218ZM115.221 138.076V137.699C115.528 137.699 115.834 137.649 116.13 137.619L116.165 137.995L115.221 138.076ZM113.36 138.076H113.204C112.94 138.041 112.68 137.982 112.427 137.9L112.547 137.544C112.777 137.62 113.014 137.674 113.255 137.704H113.4L113.36 138.076ZM118.779 138C118.51 137.914 118.228 137.873 117.946 137.88V137.478C118.275 137.47 118.603 137.519 118.914 137.624L118.779 138ZM116.596 137.955L116.561 137.579C116.882 137.549 117.193 137.524 117.479 137.509V137.885C117.213 137.885 116.907 137.91 116.591 137.94L116.596 137.955Z" fill="#121415"/>
<path d="M119.241 139.938L118.894 139.788C118.965 139.627 119.025 139.471 119.07 139.336L119.426 139.451C119.376 139.602 119.316 139.762 119.241 139.938Z" fill="#121415"/>
<path opacity="0.1" d="M133.164 76.8028H121.624C121.253 76.8093 120.884 76.7366 120.543 76.5897C120.202 76.4427 119.896 76.2247 119.646 75.9503C119.396 75.676 119.207 75.3514 119.092 74.9983C118.977 74.6453 118.939 74.2717 118.98 73.9027L119.983 62.3624C120.063 61.5773 120.427 60.8486 121.008 60.3142C121.589 59.7798 122.345 59.4767 123.134 59.4623H134.674C135.046 59.4558 135.414 59.5285 135.755 59.6754C136.096 59.8224 136.402 60.0404 136.652 60.3148C136.902 60.5891 137.091 60.9137 137.206 61.2668C137.321 61.6198 137.359 61.9933 137.319 62.3624L136.315 73.9027C136.235 74.6878 135.871 75.4165 135.29 75.9509C134.709 76.4853 133.953 76.7884 133.164 76.8028Z" fill="black"/>
<path d="M131.659 75.2969H120.119C119.747 75.3034 119.379 75.2308 119.038 75.0838C118.697 74.9368 118.391 74.7189 118.141 74.4445C117.891 74.1701 117.702 73.8455 117.587 73.4925C117.472 73.1394 117.434 72.7659 117.474 72.3968L118.478 60.8566C118.557 60.0714 118.922 59.3427 119.503 58.8083C120.083 58.2739 120.84 57.9708 121.629 57.9565H133.169C133.54 57.9499 133.909 58.0226 134.25 58.1696C134.591 58.3166 134.896 58.5345 135.147 58.8089C135.397 59.0833 135.586 59.4078 135.701 59.7609C135.816 60.114 135.854 60.4875 135.813 60.8566L134.81 72.3968C134.73 73.1819 134.365 73.9106 133.785 74.4451C133.204 74.9795 132.448 75.2825 131.659 75.2969Z" fill="#407BFF"/>
<path d="M132.276 68.9749C132.2 66.9442 131.407 65.0062 130.037 63.5051C128.668 62.0041 126.81 61.0372 124.795 60.7763C124.206 60.4862 123.534 60.4087 122.894 60.5568C122.254 60.7049 121.685 61.0696 121.283 61.5891C120.279 62.8084 121.172 63.5961 122.286 64.4692C123.4 65.3422 124.399 66.0095 125.387 64.7903C125.758 64.344 125.987 63.7971 126.044 63.2198C126.971 63.5981 127.801 64.1781 128.476 64.9175C129.15 65.657 129.651 66.5374 129.943 67.4947C129.366 67.4974 128.804 67.6721 128.327 67.9965C127.028 68.8795 127.6 69.9081 128.378 71.1274C129.155 72.3466 129.848 73.2899 131.142 72.4018C131.695 72.0467 132.109 71.5126 132.315 70.8889C132.522 70.2652 132.508 69.5896 132.276 68.9749Z" fill="#121415"/>
<path d="M127.444 43.0298H135.322C135.713 43.0298 135.763 42.4277 135.377 42.4277H127.51C127.123 42.4277 127.068 43.0298 127.454 43.0298H127.444Z" fill="#407BFF"/>
<path d="M138.206 43.0298H140.489C140.881 43.0298 140.931 42.4277 140.545 42.4277H138.282C137.895 42.4277 137.84 43.0298 138.232 43.0298H138.206Z" fill="#407BFF"/>
<g opacity="0.3">
<path d="M127.444 43.0298H135.322C135.713 43.0298 135.763 42.4277 135.377 42.4277H127.51C127.123 42.4277 127.068 43.0298 127.454 43.0298H127.444Z" fill="#121415"/>
</g>
<g opacity="0.3">
<path d="M138.206 43.0298H140.489C140.881 43.0298 140.931 42.4277 140.545 42.4277H138.282C137.895 42.4277 137.84 43.0298 138.232 43.0298H138.206Z" fill="#121415"/>
</g>
<path d="M153.385 103.897L152.692 111.764C152.686 111.844 152.711 111.923 152.763 111.985C152.814 112.046 152.888 112.084 152.968 112.09C153.048 112.097 153.127 112.072 153.188 112.02C153.25 111.968 153.288 111.894 153.294 111.814C153.522 109.195 153.751 106.573 153.982 103.947C153.981 103.872 153.952 103.801 153.901 103.746C153.85 103.691 153.78 103.658 153.706 103.651C153.631 103.645 153.557 103.667 153.498 103.712C153.439 103.758 153.398 103.823 153.385 103.897Z" fill="#407BFF"/>
<path d="M152.442 114.644L152.246 116.907C152.247 116.981 152.276 117.053 152.327 117.108C152.378 117.162 152.447 117.196 152.522 117.202C152.596 117.209 152.67 117.187 152.73 117.142C152.789 117.096 152.829 117.03 152.843 116.957L153.039 114.699C153.039 114.624 153.011 114.551 152.96 114.496C152.91 114.44 152.84 114.406 152.765 114.399C152.69 114.392 152.616 114.413 152.556 114.458C152.496 114.504 152.455 114.57 152.442 114.644Z" fill="#407BFF"/>
<g opacity="0.3">
<path d="M153.385 103.897L152.692 111.764C152.686 111.844 152.711 111.923 152.763 111.985C152.814 112.046 152.888 112.084 152.968 112.09C153.048 112.097 153.127 112.072 153.188 112.02C153.25 111.968 153.288 111.894 153.294 111.814C153.522 109.195 153.751 106.573 153.982 103.947C153.981 103.872 153.952 103.801 153.901 103.746C153.85 103.691 153.78 103.658 153.706 103.651C153.631 103.645 153.557 103.667 153.498 103.712C153.439 103.758 153.398 103.823 153.385 103.897Z" fill="#121415"/>
</g>
<g opacity="0.3">
<path d="M152.442 114.644L152.246 116.907C152.247 116.981 152.276 117.053 152.327 117.108C152.378 117.162 152.447 117.196 152.522 117.202C152.596 117.209 152.67 117.187 152.73 117.142C152.789 117.096 152.829 117.03 152.843 116.957L153.039 114.699C153.039 114.624 153.011 114.551 152.96 114.496C152.91 114.44 152.84 114.406 152.765 114.399C152.69 114.392 152.616 114.413 152.556 114.458C152.496 114.504 152.455 114.57 152.442 114.644Z" fill="#121415"/>
</g>
<path d="M83.7169 68.8856C83.7169 68.8856 80.8067 68.4893 81.158 70.0045C81.4138 71.1084 82.3923 68.9358 83.7169 68.8856Z" fill="#263238"/>
<path d="M81.1882 72.3269C81.1882 72.3269 83.5866 72.3018 83.9579 67.9316C83.9579 67.9316 86.2459 67.1338 87.5454 68.5588C88.8449 69.9837 85.8595 72.7434 87.5053 74.1784C87.5053 74.1784 85.8595 75.0765 81.1882 72.3269Z" fill="#FF8B7B"/>
<path d="M90.0641 56.8886C90.0641 56.8886 93.1549 56.2263 93.9577 58.4992C94.7605 60.7722 89.3817 59.7737 89.3817 59.7737L90.0641 56.8886Z" fill="#263238"/>
<path opacity="0.3" d="M90.0641 56.8886C90.0641 56.8886 93.1549 56.2263 93.9577 58.4992C94.7605 60.7722 89.3817 59.7737 89.3817 59.7737L90.0641 56.8886Z" fill="black"/>
<path d="M92.593 62.5535C92.6431 62.2624 92.8338 62.0517 93.0245 62.0868C93.2151 62.122 93.3305 62.3778 93.2804 62.6689C93.2302 62.9599 93.0345 63.1706 92.8489 63.1405C92.6632 63.1104 92.5428 62.8445 92.593 62.5535Z" fill="#263238"/>
<path d="M92.7435 63.0996L94.0932 65.2872C93.8371 65.4453 93.5474 65.5408 93.2476 65.5661C92.9477 65.5914 92.6461 65.5457 92.3672 65.4327L92.7435 63.0996Z" fill="#FF5652"/>
<path d="M82.5226 61.1487C82.352 64.8666 82.2015 66.4421 83.8623 68.5344C86.5065 70.7722 90.9721 71.0833 92.2465 67.4858C93.3955 64.2545 93.4808 58.7302 90.0188 56.8537C89.2579 56.4409 88.4041 56.2295 87.5385 56.2396C86.6729 56.2497 85.8243 56.4809 85.0732 56.9112C84.3221 57.3415 83.6935 57.9567 83.2471 58.6984C82.8007 59.4401 82.5513 60.2835 82.5226 61.1487Z" fill="#FF8B7B"/>
<path d="M92.1263 61.6347C92.1509 61.6483 92.1785 61.6554 92.2066 61.6554C92.2347 61.6554 92.2623 61.6483 92.2869 61.6347C92.4592 61.5042 92.6599 61.4162 92.8726 61.3779C93.0853 61.3395 93.3041 61.3519 93.5111 61.4139C93.5531 61.4304 93.5998 61.4296 93.6412 61.4117C93.6825 61.3939 93.7152 61.3604 93.7319 61.3186C93.7486 61.2759 93.748 61.2285 93.7301 61.1863C93.7123 61.1441 93.6788 61.1106 93.6366 61.0928C93.3762 61.0083 93.0993 60.9879 92.8294 61.0334C92.5595 61.0788 92.3045 61.1887 92.0862 61.3537C92.0676 61.3654 92.0515 61.3807 92.0389 61.3987C92.0263 61.4167 92.0174 61.4371 92.0127 61.4586C92.008 61.4801 92.0077 61.5023 92.0117 61.5239C92.0157 61.5455 92.0239 61.5661 92.036 61.5845C92.0592 61.6114 92.0912 61.6291 92.1263 61.6347Z" fill="#263238"/>
<path d="M79.5023 73.0795C79.5023 73.0795 80.5359 70.2246 84.8158 72.0459C89.0958 73.8673 89.4972 76.376 89.4972 76.376L79.5023 73.0795Z" fill="#263238"/>
<path opacity="0.4" d="M79.5023 73.0795C79.5023 73.0795 80.5359 70.2246 84.8158 72.0459C89.0958 73.8673 89.4972 76.376 89.4972 76.376L79.5023 73.0795Z" fill="black"/>
<path d="M81.4237 127.188C81.4237 127.188 80.8166 132.392 80.5255 134.113C80.2646 135.618 71.9958 175.106 71.9958 175.106L68.2377 174.483C68.2377 174.483 67.8213 154.479 70.7163 141.237C71.3134 138.528 72.5126 136.26 72.9491 134.188C73.3004 132.527 72.7685 127.389 72.7685 127.389L81.4237 127.188Z" fill="#FF8B7B"/>
<path d="M65.7294 126.341C65.7294 126.341 63.9783 131.107 63.1604 132.583C62.2723 134.188 58.9006 138.558 58.9006 138.558L40.938 163.761L37.501 161.589C37.501 161.589 42.684 147.71 50.4913 136.411C52.3528 133.717 55.0321 131.664 56.5123 128.99C57.3502 127.455 58.0627 122.156 58.0627 122.156L65.7294 126.341Z" fill="#FF8B7B"/>
<path d="M70.5457 78.0918C70.5457 78.0918 66.2457 83.5759 66.612 85.8789C66.9783 88.182 73.7168 90.9868 73.7168 90.9868L75.4277 88.5533L71.0023 85.322L75.217 80.4902L70.5457 78.0918Z" fill="#FF8B7B"/>
<path d="M77.6556 72.6033C77.1188 72.3474 74.7355 71.3941 69.5925 78.0774C69.5925 78.0774 71.4641 80.4105 75.473 81.8004C75.473 81.7853 79.9888 73.6921 77.6556 72.6033Z" fill="#263238"/>
<path opacity="0.4" d="M75.4729 81.7851C75.4729 81.7851 76.2256 80.4404 76.9782 78.7746C76.8578 75.9096 76.5066 72.3522 75.5031 73.6316C74.1684 75.3275 72.322 78.7445 71.7148 79.8884C72.8763 80.6871 74.1405 81.3251 75.4729 81.7851Z" fill="black"/>
<path d="M71.4239 94.8301C76.3661 97.4978 81.8254 99.0689 87.4297 99.4361L81.6295 131.754C81.6295 131.754 64.9011 131.699 56.1556 123.39C56.1556 123.37 59.6428 105.758 71.4239 94.8301Z" fill="#407BFF"/>
<path d="M70.7167 94.9006C70.7167 94.9006 77.415 99.8378 88.0822 99.5016C88.0822 99.5016 94.2086 82.5525 90.3702 76.8175C87.9969 73.2752 78.8852 71.6746 76.4316 72.6831C73.4763 73.8974 75.1873 84.5244 70.7167 94.9006Z" fill="#263238"/>
<path opacity="0.1" d="M72.3223 112.312L64.8713 128.603C67.4838 129.552 70.1685 130.289 72.8993 130.806C72.8993 130.806 73.1502 115.588 72.3223 112.312Z" fill="black"/>
<path opacity="0.4" d="M87.5603 79.5928L86.3762 80.4658C87.3246 83.7657 88.8169 86.8842 90.7916 89.693C91.2983 87.3283 91.5789 84.9208 91.6295 82.5029L88.9903 80.2802L87.5603 79.5928Z" fill="black"/>
<path d="M94.2739 82.041L98.2878 87.6355L108.378 88.3079L110.229 86.7675C110.353 86.6632 110.505 86.6 110.666 86.5869L116.055 86.1604C116.094 86.1582 116.132 86.1642 116.169 86.1781C116.205 86.1919 116.238 86.2133 116.265 86.2408C116.293 86.2682 116.314 86.3012 116.328 86.3375C116.342 86.3738 116.348 86.4126 116.346 86.4514L116.316 86.908C116.31 86.9732 116.282 87.0344 116.236 87.0811C116.191 87.1278 116.13 87.1571 116.065 87.1639L113.511 87.3646L113.009 89.9787C112.98 90.1259 112.91 90.2619 112.807 90.371C112.704 90.4802 112.572 90.5581 112.427 90.5958L110.42 91.0976C110.292 91.1328 110.157 91.1328 110.029 91.0976L108.614 90.7414C108.614 90.7414 100.751 92.3269 97.1439 91.6897C93.5363 91.0524 89.9789 85.1669 89.9789 85.1669L94.2739 82.041Z" fill="#FF8B7B"/>
<path d="M89.6275 86.3009C89.6275 86.3009 83.165 77.6558 87.1539 75.6488C91.1428 73.6418 95.3324 82.5228 95.3324 82.5228C95.3324 82.5228 93.6967 85.0215 89.6275 86.3009Z" fill="#263238"/>
<path d="M72.8189 174.879C72.7996 174.876 72.782 174.866 72.7685 174.851C72.755 174.837 72.7463 174.819 72.7436 174.799C72.7407 174.779 72.7439 174.758 72.7528 174.739C72.7617 174.72 72.776 174.704 72.7938 174.694C72.859 174.664 74.3392 173.886 75.0266 174.107C75.0902 174.125 75.1495 174.156 75.2012 174.197C75.2528 174.238 75.2958 174.29 75.3276 174.348C75.3729 174.41 75.3973 174.484 75.3973 174.561C75.3973 174.638 75.3729 174.712 75.3276 174.774C74.9656 175.014 74.5275 175.11 74.0983 175.045C73.6676 175.031 73.2391 174.975 72.8189 174.879ZM73.145 174.759C73.9127 174.884 74.9614 174.92 75.152 174.654C75.1821 174.624 75.2122 174.563 75.152 174.438C75.1338 174.401 75.1076 174.37 75.0755 174.344C75.0434 174.319 75.0061 174.301 74.9664 174.292C74.9048 174.272 74.8405 174.262 74.7757 174.262C74.2055 174.323 73.6521 174.491 73.145 174.759Z" fill="#407BFF"/>
<path d="M72.7537 174.875C72.739 174.865 72.7273 174.852 72.7202 174.836C72.7131 174.82 72.7108 174.802 72.7136 174.785C72.7136 174.73 72.8741 173.616 73.416 173.199C73.4944 173.139 73.584 173.095 73.6797 173.07C73.7754 173.045 73.8751 173.039 73.973 173.054C74.2439 173.089 74.3192 173.229 74.3292 173.345C74.3994 173.811 73.3658 174.674 72.8591 174.88H72.8189C72.7972 174.886 72.7743 174.884 72.7537 174.875ZM73.8977 173.234C73.7743 173.228 73.6528 173.267 73.5565 173.345C73.231 173.691 73.0207 174.129 72.9544 174.599C73.4562 174.313 74.1636 173.636 74.1486 173.35C74.1486 173.325 74.1486 173.254 73.9579 173.234H73.8977Z" fill="#407BFF"/>
<path d="M72.4174 174.282L67.9016 174.112C67.8183 174.109 67.7366 174.135 67.67 174.185C67.6034 174.235 67.5559 174.307 67.5354 174.387L66.577 178.045C66.5356 178.2 66.5571 178.365 66.637 178.505C66.717 178.644 66.8487 178.746 67.0035 178.788C67.0467 178.795 67.0908 178.795 67.134 178.788C68.7697 178.823 70.2248 178.788 72.2619 178.868C74.6652 178.958 74.0431 179.219 76.8679 179.37C78.5688 179.455 78.9502 177.533 78.2327 177.413C74.9462 176.876 74.6401 175.863 73.4109 174.633C73.1328 174.4 72.78 174.276 72.4174 174.282Z" fill="#263238"/>
<path d="M41.4999 164.007C41.4853 163.993 41.4748 163.975 41.4695 163.956C41.4642 163.936 41.4643 163.916 41.4698 163.896C41.4761 163.877 41.4883 163.861 41.5045 163.849C41.5207 163.837 41.5402 163.831 41.5601 163.831C41.6354 163.831 43.3062 163.831 43.823 164.333C43.9198 164.427 43.9772 164.554 43.9836 164.689C43.9936 164.765 43.9797 164.842 43.9437 164.909C43.9077 164.977 43.8515 165.031 43.7829 165.065C43.3498 165.114 42.9141 165.001 42.5586 164.749C42.184 164.534 41.8296 164.286 41.4999 164.007ZM41.8461 164.047C42.4733 164.503 43.3965 165.005 43.6976 164.86C43.7377 164.86 43.7879 164.809 43.7829 164.664C43.7833 164.623 43.7745 164.582 43.7572 164.545C43.7398 164.507 43.7143 164.474 43.6825 164.448C43.6362 164.404 43.5838 164.367 43.527 164.338C42.9882 164.145 42.4181 164.055 41.8461 164.072V164.047Z" fill="#407BFF"/>
<path d="M41.4593 163.977C41.4494 163.962 41.4441 163.944 41.4441 163.926C41.4441 163.908 41.4494 163.891 41.4593 163.876C41.4894 163.836 42.1266 162.908 42.804 162.782C42.8998 162.763 42.9985 162.764 43.0941 162.784C43.1898 162.804 43.2805 162.842 43.3609 162.898C43.5867 163.053 43.5968 163.214 43.5516 163.319C43.4011 163.771 42.0915 164.077 41.5446 164.032C41.5316 164.036 41.5175 164.036 41.5045 164.032C41.4828 164.02 41.4667 164 41.4593 163.977ZM43.2205 163.033C43.1133 162.97 42.9863 162.948 42.8642 162.973C42.4176 163.138 42.0322 163.435 41.7604 163.826C42.3625 163.826 43.2656 163.505 43.391 163.249C43.391 163.224 43.4212 163.154 43.2706 163.053H43.2205V163.033Z" fill="#407BFF"/>
<path d="M41.4094 163.294L37.4405 161.096C37.3679 161.056 37.2836 161.041 37.2015 161.055C37.1195 161.068 37.0445 161.11 36.989 161.172L34.4802 164.007C34.4268 164.066 34.3856 164.135 34.3589 164.21C34.3323 164.285 34.3207 164.365 34.3249 164.445C34.3291 164.525 34.349 164.603 34.3834 164.675C34.4178 164.747 34.466 164.811 34.5254 164.865L34.6307 164.94C36.0758 165.707 37.3954 166.335 39.1766 167.323C41.2789 168.487 40.6066 168.442 43.0601 169.832C44.5654 170.68 45.7495 169.134 45.1625 168.703C42.4731 166.741 42.6537 165.692 42.1118 164.047C41.9734 163.721 41.7247 163.455 41.4094 163.294Z" fill="#263238"/>
<path d="M88.8097 64.3447C88.8097 64.3447 90.3149 63.8429 89.763 61.6603C89.763 61.6603 90.6511 60.155 90.5106 59.3573C90.5106 59.3573 95.0264 56.7532 92.4474 53.8982C89.8684 51.0433 85.1871 52.9499 83.1148 56.5976C83.1148 56.5976 72.1014 60.1801 79.7682 66.9136C87.2292 73.4915 88.8097 64.3447 88.8097 64.3447Z" fill="#263238"/>
<path d="M84.264 58.1278C84.264 58.1278 82.543 54.3496 85.127 51.4946C87.711 48.6397 83.411 55.5187 84.264 58.1278Z" fill="#263238"/>
<path d="M88.8095 64.3446C88.8524 64.3306 88.8943 64.3138 88.935 64.2944C88.935 61.4645 87.8462 58.0727 83.6716 55.7646C83.471 56.0355 83.2851 56.3168 83.1147 56.6076C83.1147 56.6076 82.7986 56.713 82.3119 56.9137C83.7569 58.449 87.7258 63.5317 83.2652 69.0861C87.7358 70.481 88.8095 64.3446 88.8095 64.3446Z" fill="#407BFF"/>
<path d="M88.9853 63.0198C89.4977 63.5811 89.7666 64.3227 89.7329 65.082C89.6777 66.0855 88.6943 66.2812 87.9116 65.7393C87.2041 65.2375 86.3812 64.1337 86.8228 63.2305C86.9221 63.0387 87.0678 62.8748 87.2467 62.7538C87.4255 62.6327 87.6318 62.5583 87.8468 62.5374C88.0617 62.5164 88.2785 62.5496 88.4774 62.6338C88.6762 62.7181 88.8509 62.8508 88.9853 63.0198Z" fill="#FF8B7B"/>
<path d="M92.954 62.0919L93.7668 62.0518C93.7668 62.0518 93.235 62.5585 92.954 62.0919Z" fill="#263238"/>
<path opacity="0.2" d="M85.5131 69.5771C85.9203 70.4003 86.5472 71.0949 87.3244 71.5841C87.4999 71.1289 87.6523 70.665 87.781 70.1943C86.9951 70.1206 86.2279 69.9118 85.5131 69.5771Z" fill="black"/>
</svg>
