<svg width="440" height="328" viewBox="0 0 440 328" fill="none" xmlns="http://www.w3.org/2000/svg">
<path d="M440 288.112H0V288.332H440V288.112Z" fill="#EBEBEB"/>
<path d="M395.912 302.271H366.766V302.491H395.912V302.271Z" fill="#EBEBEB"/>
<path d="M291.474 304.665H283.826V304.885H291.474V304.665Z" fill="#EBEBEB"/>
<path d="M365.886 294.104H348.999V294.324H365.886V294.104Z" fill="#EBEBEB"/>
<path d="M84.172 295.584H46.1648V295.804H84.172V295.584Z" fill="#EBEBEB"/>
<path d="M97.5832 295.584H92.0128V295.804H97.5832V295.584Z" fill="#EBEBEB"/>
<path d="M198.132 299.297H115.694V299.517H198.132V299.297Z" fill="#EBEBEB"/>
<path d="M208.56 248.864H38.6408C37.3097 248.862 36.0339 248.331 35.0934 247.389C34.153 246.447 33.6248 245.17 33.6248 243.839V4.9808C33.6364 3.6573 34.1697 2.39182 35.1089 1.45923C36.0481 0.526643 37.3173 0.00226722 38.6408 0H208.56C209.893 0 211.171 0.529397 212.113 1.47173C213.055 2.41406 213.585 3.69214 213.585 5.0248V243.839C213.585 245.172 213.055 246.45 212.113 247.392C211.171 248.335 209.893 248.864 208.56 248.864ZM38.6408 0.176001C37.368 0.178332 36.1482 0.685577 35.249 1.5864C34.3498 2.48722 33.8448 3.70801 33.8448 4.9808V243.839C33.8448 245.112 34.3498 246.333 35.249 247.234C36.1482 248.134 37.368 248.642 38.6408 248.644H208.56C209.834 248.642 211.054 248.135 211.955 247.234C212.856 246.334 213.363 245.113 213.365 243.839V4.9808C213.363 3.7072 212.856 2.48643 211.955 1.58586C211.054 0.685291 209.834 0.178327 208.56 0.176001H38.6408Z" fill="#EBEBEB"/>
<path d="M398.913 248.864H228.985C227.653 248.862 226.376 248.332 225.434 247.39C224.493 246.448 223.962 245.171 223.96 243.839V4.9808C223.974 3.6565 224.509 2.39103 225.45 1.45868C226.39 0.526336 227.66 0.0022425 228.985 0H398.913C400.235 0.00457996 401.502 0.529979 402.439 1.46232C403.376 2.39466 403.908 3.65882 403.92 4.9808V243.839C403.92 245.169 403.393 246.444 402.455 247.386C401.516 248.328 400.242 248.859 398.913 248.864ZM228.985 0.176001C227.711 0.178327 226.49 0.685291 225.59 1.58586C224.689 2.48643 224.182 3.7072 224.18 4.9808V243.839C224.182 245.113 224.689 246.334 225.59 247.234C226.49 248.135 227.711 248.642 228.985 248.644H398.913C400.186 248.642 401.407 248.135 402.308 247.234C403.208 246.334 403.715 245.113 403.718 243.839V4.9808C403.715 3.7072 403.208 2.48643 402.308 1.58586C401.407 0.685291 400.186 0.178327 398.913 0.176001H228.985Z" fill="#EBEBEB"/>
<path d="M272.351 282.981H253.774L263.542 203.456C263.777 201.795 264.593 200.271 265.844 199.154C267.096 198.038 268.703 197.401 270.38 197.357H351.428L339.548 282.981H272.351Z" fill="#F5F5F5"/>
<path d="M331.258 282.982H349.835L359.603 203.457C359.723 202.692 359.674 201.91 359.458 201.167C359.243 200.423 358.867 199.736 358.356 199.154C357.846 198.572 357.213 198.11 356.504 197.8C355.795 197.489 355.027 197.338 354.253 197.358H347.873C346.194 197.4 344.585 198.036 343.332 199.152C342.078 200.269 341.261 201.794 341.026 203.457L331.258 282.982Z" fill="#F0F0F0"/>
<path d="M324.421 282.893L327.782 244.42C327.86 243.59 328.217 242.811 328.796 242.211C329.375 241.611 330.141 241.226 330.968 241.12L332.358 240.944C333.464 240.803 334.49 240.292 335.267 239.492C336.044 238.693 336.526 237.653 336.635 236.544L337.242 229.504C337.302 228.825 337.22 228.141 337.001 227.495C336.783 226.849 336.432 226.256 335.972 225.753C335.512 225.25 334.953 224.848 334.329 224.572C333.705 224.297 333.031 224.154 332.35 224.153H363.387C364.07 224.153 364.745 224.295 365.369 224.57C365.994 224.845 366.555 225.246 367.016 225.75C367.477 226.253 367.828 226.846 368.047 227.493C368.266 228.139 368.349 228.824 368.289 229.504L367.673 236.544C367.566 237.654 367.084 238.694 366.306 239.494C365.529 240.294 364.503 240.805 363.396 240.944L362.014 241.12C361.185 241.227 360.417 241.614 359.837 242.218C359.258 242.821 358.902 243.604 358.829 244.437L355.458 282.911C355.34 284.263 354.719 285.521 353.719 286.438C352.719 287.355 351.412 287.864 350.055 287.865H319.009C320.369 287.864 321.68 287.352 322.682 286.432C323.684 285.511 324.304 284.249 324.421 282.893Z" fill="#E6E6E6"/>
<path d="M238.99 234.793C238.735 231.879 237.397 229.166 235.24 227.19C233.083 225.214 230.264 224.118 227.339 224.118H254.364C257.289 224.118 260.108 225.214 262.265 227.19C264.422 229.166 265.76 231.879 266.015 234.793L268.655 265.285H241.657L238.99 234.793Z" fill="#E6E6E6"/>
<path d="M215.336 224.118H227.339C230.264 224.118 233.083 225.214 235.24 227.19C237.397 229.166 238.735 231.879 238.99 234.793L241.63 265.285H305.994L308.634 234.793C308.891 231.873 310.235 229.157 312.399 227.18C314.563 225.204 317.389 224.111 320.32 224.118H332.332C333.014 224.119 333.688 224.262 334.311 224.537C334.935 224.813 335.495 225.215 335.955 225.718C336.415 226.221 336.765 226.814 336.984 227.46C337.203 228.105 337.285 228.79 337.225 229.469L336.618 236.509C336.509 237.618 336.026 238.658 335.249 239.457C334.472 240.257 333.447 240.768 332.341 240.909L330.95 241.085C330.121 241.192 329.353 241.579 328.773 242.182C328.194 242.786 327.838 243.569 327.765 244.402L324.403 282.876C324.282 284.228 323.66 285.486 322.659 286.403C321.657 287.32 320.349 287.829 318.991 287.83H228.668C227.311 287.829 226.004 287.319 225.004 286.403C224.004 285.486 223.384 284.227 223.265 282.876L219.894 244.402C219.821 243.569 219.465 242.786 218.886 242.182C218.307 241.579 217.538 241.192 216.709 241.085L215.327 240.909C214.221 240.77 213.194 240.259 212.417 239.459C211.64 238.659 211.158 237.619 211.05 236.509L210.434 229.469C210.375 228.789 210.457 228.104 210.676 227.458C210.895 226.811 211.247 226.218 211.708 225.714C212.169 225.211 212.729 224.809 213.354 224.535C213.979 224.26 214.654 224.118 215.336 224.118Z" fill="#F0F0F0"/>
<path d="M81.4088 67.1878C81.4088 67.1878 80.3792 60.3854 85.3336 56.0294C90.288 51.6734 89.8568 49.0774 88.44 48.7342C87.0232 48.391 85.7208 52.7558 83.5384 53.9526C83.5384 53.9526 83.468 47.7398 85.6856 45.4518C87.9032 43.1638 89.0648 37.2678 86.9528 37.171C84.8408 37.0742 84.6296 40.691 84.1896 43.2254C83.7496 45.7598 81.4088 49.3854 81.4088 49.3854C81.4088 49.3854 80.9512 43.8326 79.5168 41.5358C78.0824 39.239 81.9016 34.0206 80.3968 31.7326C78.892 29.4446 76.3488 33.7918 76.56 38.7198C76.7712 43.6478 80.08 48.8574 79.288 53.979C79.288 53.979 77.8448 50.3886 76.5512 50.063C75.2576 49.7374 73.9112 47.3526 73.0752 46.4726C72.2392 45.5926 71.1128 48.6462 73.0752 51.4798C75.0376 54.3134 80.08 61.8638 79.288 67.9886L81.4088 67.1878Z" fill="#E6E6E6"/>
<path d="M84.3744 64.0908L86.0024 74.2812C86.1194 75.0218 86.0745 75.7788 85.871 76.5004C85.6674 77.2219 85.31 77.8909 84.8234 78.4611C84.3367 79.0314 83.7323 79.4895 83.0517 79.804C82.3712 80.1185 81.6306 80.2818 80.8808 80.2828H79.1208C78.3714 80.282 77.6311 80.1188 76.9508 79.8042C76.2706 79.4897 75.6667 79.0314 75.1807 78.4609C74.6947 77.8904 74.3381 77.2213 74.1357 76.4997C73.9333 75.7782 73.8897 75.0213 74.008 74.2812L75.68 64.0908H84.3744Z" fill="#E6E6E6"/>
<path d="M59.8136 82.4209L174.601 82.4209V76.5249L59.8136 76.5249V82.4209Z" fill="#E0E0E0"/>
<path d="M164.252 76.5156H169.312V54.7796H164.252V76.5156Z" fill="#EBEBEB"/>
<path d="M139.806 76.5156H144.866V54.7796H139.806V76.5156Z" fill="#EBEBEB"/>
<path d="M108.352 75.66L113.338 76.5195L117.03 55.0994L112.044 54.2399L108.352 75.66Z" fill="#EBEBEB"/>
<path d="M157.986 76.5244H163.046V57.6484H157.986V76.5244Z" fill="#EBEBEB"/>
<path d="M146.362 76.5244H151.422V57.6484H146.362V76.5244Z" fill="#EBEBEB"/>
<path d="M117.031 76.5244H122.091V57.6484H117.031V76.5244Z" fill="#EBEBEB"/>
<path d="M129.077 75.41L134.017 76.5078L138.112 58.0814L133.172 56.9836L129.077 75.41Z" fill="#EBEBEB"/>
<path d="M153.622 76.5244H156.147V53.706H153.622V76.5244Z" fill="#EBEBEB"/>
<path d="M123.543 76.5244H126.069V53.706H123.543V76.5244Z" fill="#EBEBEB"/>
<path d="M174.601 120.542H59.8135V126.438H174.601V120.542Z" fill="#E0E0E0"/>
<path d="M70.1536 98.8066H65.0936V120.543H70.1536V98.8066Z" fill="#EBEBEB"/>
<path d="M94.6088 98.8066H89.5488V120.543H94.6088V98.8066Z" fill="#EBEBEB"/>
<path d="M122.365 98.2606L117.378 99.1201L121.07 120.54L126.057 119.681L122.365 98.2606Z" fill="#EBEBEB"/>
<path d="M76.4192 101.675H71.3592V120.551H76.4192V101.675Z" fill="#EBEBEB"/>
<path d="M88.044 101.675H82.984V120.551H88.044V101.675Z" fill="#EBEBEB"/>
<path d="M117.383 101.675H112.323V120.551H117.383V101.675Z" fill="#EBEBEB"/>
<path d="M101.254 101.02L96.3143 102.118L100.409 120.545L105.349 119.447L101.254 101.02Z" fill="#EBEBEB"/>
<path d="M80.7928 97.7236H78.2672V120.542H80.7928V97.7236Z" fill="#EBEBEB"/>
<path d="M110.871 97.7236H108.346V120.542H110.871V97.7236Z" fill="#EBEBEB"/>
<path d="M163.583 103.339H138.943V120.349H163.583V103.339Z" fill="#EBEBEB"/>
<path d="M361.09 60.9043H262.363V170.095H361.09V60.9043Z" fill="#E0E0E0"/>
<path d="M364.241 60.9043H261.844V170.095H364.241V60.9043Z" fill="#F0F0F0"/>
<path d="M359.911 64.3896H266.015V165.079H359.911V64.3896Z" fill="#121415"/>
<path d="M359.911 64.3896H357.192V165.079H359.911V64.3896Z" fill="#E0E0E0"/>
<path d="M265.769 136.788V139.507H357.482V136.788H265.769Z" fill="#E0E0E0"/>
<path d="M359.911 132.237H264.554V136.796H359.911V132.237Z" fill="#F0F0F0"/>
<path d="M220 327.853C314.233 327.853 390.623 323.393 390.623 317.891C390.623 312.39 314.233 307.93 220 307.93C125.767 307.93 49.3768 312.39 49.3768 317.891C49.3768 323.393 125.767 327.853 220 327.853Z" fill="#F5F5F5"/>
<path d="M287.91 303.38C288.034 303.111 288.093 302.816 288.081 302.519C288.069 302.223 287.986 301.934 287.84 301.676C287.694 301.417 287.488 301.198 287.24 301.035C286.992 300.873 286.709 300.771 286.414 300.74C286.68 299.965 286.701 299.127 286.475 298.34C286.248 297.553 285.784 296.854 285.146 296.34C284.996 296.201 284.805 296.114 284.601 296.094C284.381 296.116 284.174 296.209 284.011 296.358L280.491 298.857C280.213 299.03 279.978 299.265 279.805 299.543C279.092 300.925 281.653 302.694 280.597 303.829C280.298 304.155 279.814 304.225 279.435 304.463C278.599 304.982 278.502 306.117 278.115 307.015C277.728 307.912 276.355 308.616 275.862 307.78C276.241 306.9 275.097 306.179 274.155 306.073C273.214 305.967 272.246 305.906 271.726 305.035C270.398 306.187 267.423 302.949 267.494 301.647C266.969 301.741 266.487 301.997 266.114 302.379C265.742 302.761 265.498 303.249 265.417 303.776C265.264 304.854 265.226 305.946 265.302 307.032C265.302 309.144 264.59 311.212 264.625 313.324C264.625 314.97 265.294 316.8 266.798 317.46C267.549 317.725 268.345 317.833 269.139 317.777L286.29 317.663C286.702 317.693 287.115 317.627 287.496 317.469C288.27 317.064 288.429 316.043 288.499 315.172L289.423 303.996L287.91 303.38Z" fill="#407BFF"/>
<path opacity="0.3" d="M287.91 303.38C288.034 303.111 288.093 302.816 288.081 302.519C288.069 302.223 287.986 301.934 287.84 301.676C287.694 301.417 287.488 301.198 287.24 301.035C286.992 300.873 286.709 300.771 286.414 300.74C286.68 299.965 286.701 299.127 286.475 298.34C286.248 297.553 285.784 296.854 285.146 296.34C284.996 296.201 284.805 296.114 284.601 296.094C284.381 296.116 284.174 296.209 284.011 296.358L280.491 298.857C280.213 299.03 279.978 299.265 279.805 299.543C279.092 300.925 281.653 302.694 280.597 303.829C280.298 304.155 279.814 304.225 279.435 304.463C278.599 304.982 278.502 306.117 278.115 307.015C277.728 307.912 276.355 308.616 275.862 307.78C276.241 306.9 275.097 306.179 274.155 306.073C273.214 305.967 272.246 305.906 271.726 305.035C270.398 306.187 267.423 302.949 267.494 301.647C266.969 301.741 266.487 301.997 266.114 302.379C265.742 302.761 265.498 303.249 265.417 303.776C265.264 304.854 265.226 305.946 265.302 307.032C265.302 309.144 264.59 311.212 264.625 313.324C264.625 314.97 265.294 316.8 266.798 317.46C267.549 317.725 268.345 317.833 269.139 317.777L286.29 317.663C286.702 317.693 287.115 317.627 287.496 317.469C288.27 317.064 288.429 316.043 288.499 315.172L289.423 303.996L287.91 303.38Z" fill="#121415"/>
<path d="M288.904 285.253H262.293L262.513 287.946L262.671 289.864L263.076 294.854L263.305 297.731L263.613 301.551L263.745 303.187L263.789 303.671L263.947 305.599L264.158 308.239L264.29 309.875L264.422 311.539L264.581 313.466L264.704 314.927L264.836 316.563L264.889 317.276H289.309L289.37 316.563L289.502 314.927L289.617 313.457L289.775 311.53L289.916 309.875L290.048 308.239L290.259 305.599L290.418 303.68V303.196L290.55 301.559L290.858 297.74L291.095 294.871L291.491 289.873L291.65 287.955L291.87 285.262L288.904 285.253ZM290.506 287.013L289.995 286.503H290.55L290.506 287.013ZM290.4 288.641L290.356 289.292L287.971 291.668L285.234 288.94L287.681 286.494H288.262L290.4 288.641ZM289.714 297.159L287.954 298.919L285.217 296.183L287.954 293.463L289.837 295.347L289.714 297.159ZM264.387 295.329L266.279 293.446L269.007 296.165L266.279 298.902L264.519 297.142L264.387 295.329ZM287.091 292.557L284.354 295.285L281.626 292.557L284.354 289.82L287.091 292.557ZM282.797 286.494H285.921L284.354 288.06L282.797 286.494ZM283.466 296.174L280.738 298.911L278.01 296.174L280.738 293.455L283.466 296.174ZM274.393 299.791L277.13 297.063L279.858 299.791L277.13 302.527L274.393 299.791ZM276.241 303.407L273.504 306.135L270.785 303.407L273.513 300.679L276.241 303.407ZM280.738 300.679L283.466 303.407L280.738 306.135L278.01 303.407L280.738 300.679ZM277.13 295.294L274.393 292.566L277.13 289.829L279.858 292.566L277.13 295.294ZM276.25 296.174L273.522 298.911L270.794 296.174L273.522 293.455L276.25 296.174ZM269.905 295.294L267.177 292.566L269.905 289.829L272.633 292.566L269.905 295.294ZM269.905 297.054L272.633 299.782L269.905 302.519L267.177 299.782L269.905 297.054ZM272.633 307.015L269.905 309.743L267.177 307.015L269.905 304.287L272.633 307.015ZM273.513 307.895L276.25 310.632L273.522 313.36L270.794 310.632L273.513 307.895ZM274.393 307.015L277.13 304.287L279.858 307.015L277.13 309.743L274.393 307.015ZM280.738 307.895L283.466 310.632L280.738 313.36L278.01 310.632L280.738 307.895ZM284.328 311.521L287.065 314.258L285.305 316.018H283.36L281.6 314.258L284.328 311.521ZM281.6 307.024L284.328 304.296L287.065 307.024L284.328 309.761L281.6 307.024ZM281.6 299.791L284.328 297.063L287.065 299.791L284.328 302.527L281.6 299.791ZM283.439 288.949L280.711 291.677L277.983 288.949L280.43 286.503H281.002L283.439 288.949ZM277.103 288.069L275.537 286.503H278.661L277.103 288.069ZM276.223 288.949L273.495 291.677L270.767 288.949L273.205 286.503H273.786L276.223 288.949ZM271.436 286.503L269.878 288.069L268.321 286.503H271.436ZM266.552 286.503L268.99 288.949L266.262 291.677L263.886 289.301L263.833 288.65L265.971 286.503H266.552ZM264.211 286.503L263.701 287.013V286.503H264.211ZM264.044 291.228L265.382 292.566L264.238 293.701L264.044 291.228ZM264.783 300.389L264.678 299.095L265.382 299.799L264.783 300.398V300.389ZM264.915 302.026L266.262 300.679L268.99 303.407L266.262 306.135L265.162 305.035L264.915 302.026ZM265.32 307.086V306.963L265.382 307.024L265.32 307.086ZM265.795 312.903L265.452 308.714L266.262 307.904L268.99 310.641L266.262 313.369L265.795 312.903ZM266.05 316.027L265.998 315.402L266.262 315.138L267.142 316.018L266.05 316.027ZM267.15 314.267L269.878 311.53L272.606 314.267L270.846 316.027H268.919L267.15 314.267ZM272.606 316.027L273.486 315.147L274.366 316.027H272.606ZM276.126 316.027L274.366 314.267L277.103 311.53L279.831 314.267L278.071 316.027H276.126ZM279.822 316.027L280.702 315.147L281.582 316.027H279.822ZM288.147 316.027H287.056L287.936 315.147L288.2 315.411L288.147 316.027ZM288.402 312.903L287.936 313.369L285.208 310.641L287.945 307.904L288.754 308.714L288.402 312.903ZM288.886 306.954V307.086L288.834 307.024L288.904 306.954H288.886ZM289.045 305.035L287.936 306.135L285.199 303.407L287.936 300.679L289.282 302.026L289.045 305.035ZM289.414 300.389L288.816 299.791L289.52 299.095L289.414 300.389ZM290.162 291.219L289.96 293.71L288.816 292.566L290.162 291.219Z" fill="#407BFF"/>
<g opacity="0.6">
<path d="M288.904 285.253H262.293L262.513 287.946L262.671 289.864L263.076 294.854L263.305 297.731L263.613 301.551L263.745 303.187L263.789 303.671L263.947 305.599L264.158 308.239L264.29 309.875L264.422 311.539L264.581 313.466L264.704 314.927L264.836 316.563L264.889 317.276H289.309L289.37 316.563L289.502 314.927L289.617 313.457L289.775 311.53L289.916 309.875L290.048 308.239L290.259 305.599L290.418 303.68V303.196L290.55 301.559L290.858 297.74L291.095 294.871L291.491 289.873L291.65 287.955L291.87 285.262L288.904 285.253ZM290.506 287.013L289.995 286.503H290.55L290.506 287.013ZM290.4 288.641L290.356 289.292L287.971 291.668L285.234 288.94L287.681 286.494H288.262L290.4 288.641ZM289.714 297.159L287.954 298.919L285.217 296.183L287.954 293.463L289.837 295.347L289.714 297.159ZM264.387 295.329L266.279 293.446L269.007 296.165L266.279 298.902L264.519 297.142L264.387 295.329ZM287.091 292.557L284.354 295.285L281.626 292.557L284.354 289.82L287.091 292.557ZM282.797 286.494H285.921L284.354 288.06L282.797 286.494ZM283.466 296.174L280.738 298.911L278.01 296.174L280.738 293.455L283.466 296.174ZM274.393 299.791L277.13 297.063L279.858 299.791L277.13 302.527L274.393 299.791ZM276.241 303.407L273.504 306.135L270.785 303.407L273.513 300.679L276.241 303.407ZM280.738 300.679L283.466 303.407L280.738 306.135L278.01 303.407L280.738 300.679ZM277.13 295.294L274.393 292.566L277.13 289.829L279.858 292.566L277.13 295.294ZM276.25 296.174L273.522 298.911L270.794 296.174L273.522 293.455L276.25 296.174ZM269.905 295.294L267.177 292.566L269.905 289.829L272.633 292.566L269.905 295.294ZM269.905 297.054L272.633 299.782L269.905 302.519L267.177 299.782L269.905 297.054ZM272.633 307.015L269.905 309.743L267.177 307.015L269.905 304.287L272.633 307.015ZM273.513 307.895L276.25 310.632L273.522 313.36L270.794 310.632L273.513 307.895ZM274.393 307.015L277.13 304.287L279.858 307.015L277.13 309.743L274.393 307.015ZM280.738 307.895L283.466 310.632L280.738 313.36L278.01 310.632L280.738 307.895ZM284.328 311.521L287.065 314.258L285.305 316.018H283.36L281.6 314.258L284.328 311.521ZM281.6 307.024L284.328 304.296L287.065 307.024L284.328 309.761L281.6 307.024ZM281.6 299.791L284.328 297.063L287.065 299.791L284.328 302.527L281.6 299.791ZM283.439 288.949L280.711 291.677L277.983 288.949L280.43 286.503H281.002L283.439 288.949ZM277.103 288.069L275.537 286.503H278.661L277.103 288.069ZM276.223 288.949L273.495 291.677L270.767 288.949L273.205 286.503H273.786L276.223 288.949ZM271.436 286.503L269.878 288.069L268.321 286.503H271.436ZM266.552 286.503L268.99 288.949L266.262 291.677L263.886 289.301L263.833 288.65L265.971 286.503H266.552ZM264.211 286.503L263.701 287.013V286.503H264.211ZM264.044 291.228L265.382 292.566L264.238 293.701L264.044 291.228ZM264.783 300.389L264.678 299.095L265.382 299.799L264.783 300.398V300.389ZM264.915 302.026L266.262 300.679L268.99 303.407L266.262 306.135L265.162 305.035L264.915 302.026ZM265.32 307.086V306.963L265.382 307.024L265.32 307.086ZM265.795 312.903L265.452 308.714L266.262 307.904L268.99 310.641L266.262 313.369L265.795 312.903ZM266.05 316.027L265.998 315.402L266.262 315.138L267.142 316.018L266.05 316.027ZM267.15 314.267L269.878 311.53L272.606 314.267L270.846 316.027H268.919L267.15 314.267ZM272.606 316.027L273.486 315.147L274.366 316.027H272.606ZM276.126 316.027L274.366 314.267L277.103 311.53L279.831 314.267L278.071 316.027H276.126ZM279.822 316.027L280.702 315.147L281.582 316.027H279.822ZM288.147 316.027H287.056L287.936 315.147L288.2 315.411L288.147 316.027ZM288.402 312.903L287.936 313.369L285.208 310.641L287.945 307.904L288.754 308.714L288.402 312.903ZM288.886 306.954V307.086L288.834 307.024L288.904 306.954H288.886ZM289.045 305.035L287.936 306.135L285.199 303.407L287.936 300.679L289.282 302.026L289.045 305.035ZM289.414 300.389L288.816 299.791L289.52 299.095L289.414 300.389ZM290.162 291.219L289.96 293.71L288.816 292.566L290.162 291.219Z" fill="#121415"/>
</g>
<path d="M262.029 287.62H292.16C292.957 287.62 293.603 286.974 293.603 286.177V285.579C293.603 284.781 292.957 284.135 292.16 284.135H262.029C261.232 284.135 260.586 284.781 260.586 285.579V286.177C260.586 286.974 261.232 287.62 262.029 287.62Z" fill="#407BFF"/>
<path d="M289.784 315.401H264.413C263.616 315.401 262.97 316.047 262.97 316.845V317.443C262.97 318.24 263.616 318.886 264.413 318.886H289.784C290.581 318.886 291.227 318.24 291.227 317.443V316.845C291.227 316.047 290.581 315.401 289.784 315.401Z" fill="#407BFF"/>
<path d="M377.89 33.8887H159.597C157.59 33.8887 155.962 35.5158 155.962 37.5231V194.999C155.962 197.006 157.59 198.633 159.597 198.633H377.89C379.897 198.633 381.524 197.006 381.524 194.999V37.5231C381.524 35.5158 379.897 33.8887 377.89 33.8887Z" fill="#407BFF"/>
<path opacity="0.4" d="M381.524 42.7939H155.962V191.496H381.524V42.7939Z" fill="black"/>
<path d="M376.244 40.348C377.415 40.348 378.365 39.3985 378.365 38.2272C378.365 37.056 377.415 36.1064 376.244 36.1064C375.073 36.1064 374.123 37.056 374.123 38.2272C374.123 39.3985 375.073 40.348 376.244 40.348Z" fill="#121415"/>
<path d="M369.09 40.348C370.261 40.348 371.21 39.3985 371.21 38.2272C371.21 37.056 370.261 36.1064 369.09 36.1064C367.918 36.1064 366.969 37.056 366.969 38.2272C366.969 39.3985 367.918 40.348 369.09 40.348Z" fill="#121415"/>
<path d="M361.935 40.348C363.106 40.348 364.056 39.3985 364.056 38.2272C364.056 37.056 363.106 36.1064 361.935 36.1064C360.764 36.1064 359.814 37.056 359.814 38.2272C359.814 39.3985 360.764 40.348 361.935 40.348Z" fill="#121415"/>
<path d="M230.094 120.076H156.798V184.299H230.094V120.076Z" fill="#263238"/>
<path d="M230.094 54.4365H156.798V118.659H230.094V54.4365Z" fill="#263238"/>
<path d="M305.069 54.4365H231.774V118.659H305.069V54.4365Z" fill="#407BFF"/>
<path d="M380.054 54.4365H306.759V118.659H380.054V54.4365Z" fill="#121415"/>
<path d="M305.069 120.076H231.774V184.299H305.069V120.076Z" fill="#263238"/>
<path d="M380.054 120.076H306.759V184.299H380.054V120.076Z" fill="#407BFF"/>
<path d="M367.497 118.658L369.16 104.649C369.382 102.84 368.924 101.012 367.875 99.5216C366.826 98.0307 365.262 96.9822 363.484 96.5792C344.458 92.3464 333.106 96.5352 333.106 96.5352C328.849 103.427 325.559 110.871 323.33 118.658H367.497Z" fill="#263238"/>
<path d="M353.76 95.9724C355.391 95.7933 357.034 95.7609 358.67 95.8756C354.534 92.4172 356.585 83.6348 358.266 78.8652L345.479 86.09C345.627 86.7009 345.733 87.3214 345.796 87.9468C345.957 89.0647 345.823 90.2051 345.409 91.2556C344.655 92.6043 343.619 93.7748 342.373 94.6876L347.494 96.9668L353.76 95.9724Z" fill="#E4897B"/>
<path opacity="0.2" d="M355.335 83.459C354.825 89.3198 348.524 90.9302 345.435 91.2558C345.85 90.2053 345.983 89.0648 345.822 87.947L355.335 83.459Z" fill="black"/>
<path d="M338.518 65.7269C338.518 65.7269 337.515 74.0605 342.355 77.5717C347.195 81.0829 346.148 60.7197 346.148 60.7197L338.518 65.7269Z" fill="#263238"/>
<path d="M357.28 83.3352C357.026 83.8506 356.732 84.345 356.4 84.8136C355.457 86.2119 354.107 87.2872 352.534 87.8946C350.96 88.502 349.238 88.6123 347.6 88.2104C347.368 88.1593 347.138 88.0947 346.914 88.0168C344.755 87.3417 342.924 85.8899 341.774 83.9424C341.774 83.8808 341.695 83.8016 341.651 83.74C341.493 83.4584 341.352 83.168 341.211 82.86C340.94 82.2125 340.702 81.5516 340.498 80.88C338.738 75.2216 338.95 65.7616 344.203 62.5144C348.383 59.8744 354.992 60.7544 357.623 64.952C358.38 66.14 357.535 69.2464 357.667 70.6456C358.292 76.3304 358.926 79.9472 357.28 83.3352Z" fill="#E4897B"/>
<path d="M348.163 74.1307C348.286 74.6411 348.049 75.1251 347.697 75.1867C347.345 75.2483 347.002 74.8611 346.914 74.3067C346.826 73.7523 347.028 73.3035 347.371 73.2507C347.714 73.1979 348.066 73.6027 348.163 74.1307Z" fill="#263238"/>
<path d="M342.214 75.1431C342.338 75.6623 342.091 76.1463 341.748 76.1991C341.405 76.2519 341.062 75.8735 340.965 75.3191C340.868 74.7647 341.088 74.3159 341.422 74.2631C341.757 74.2103 342.126 74.6503 342.214 75.1431Z" fill="#263238"/>
<path d="M344.15 75.0811C343.795 76.7973 343.202 78.4558 342.39 80.009C342.8 80.2093 343.249 80.317 343.705 80.3246C344.162 80.3322 344.614 80.2395 345.03 80.053L344.15 75.0811Z" fill="#DE5753"/>
<path d="M349.677 71.8873C349.621 71.905 349.562 71.9079 349.505 71.8955C349.447 71.8832 349.394 71.8561 349.351 71.8169C349.071 71.5436 348.731 71.3386 348.359 71.2181C347.986 71.0975 347.591 71.0645 347.204 71.1217C347.123 71.1404 347.039 71.127 346.968 71.0842C346.898 71.0415 346.846 70.9728 346.826 70.8929C346.815 70.8536 346.813 70.8125 346.819 70.7723C346.825 70.732 346.839 70.6934 346.86 70.6588C346.882 70.6242 346.91 70.5944 346.943 70.5711C346.977 70.5478 347.014 70.5315 347.054 70.5233C347.546 70.4386 348.051 70.4744 348.527 70.6277C349.002 70.7809 349.433 71.0471 349.782 71.4033C349.839 71.4623 349.871 71.5412 349.871 71.6233C349.871 71.7054 349.839 71.7842 349.782 71.8433C349.75 71.8633 349.714 71.8782 349.677 71.8873Z" fill="#263238"/>
<path d="M339.31 73.5322C339.254 73.5644 339.19 73.5797 339.126 73.5762C339.086 73.5651 339.049 73.5462 339.017 73.5206C338.985 73.495 338.958 73.4632 338.938 73.4271C338.919 73.391 338.906 73.3514 338.902 73.3105C338.898 73.2696 338.902 73.2283 338.914 73.189C339.042 72.7067 339.283 72.2622 339.619 71.8931C339.954 71.5239 340.374 71.241 340.842 71.0682C340.921 71.0462 341.006 71.0559 341.078 71.0953C341.15 71.1348 341.204 71.2008 341.229 71.2794C341.251 71.3587 341.241 71.4435 341.202 71.5158C341.162 71.588 341.096 71.6421 341.018 71.6666C340.654 71.8144 340.329 72.0448 340.069 72.3395C339.81 72.6343 339.622 72.9853 339.522 73.365C339.5 73.406 339.47 73.442 339.434 73.4708C339.397 73.4996 339.355 73.5205 339.31 73.5322Z" fill="#263238"/>
<path d="M360.131 66.6419C360.131 66.4659 360.202 66.2899 360.228 66.0963C361.108 59.8571 351.965 56.1875 343.71 56.9619C340.111 57.3051 340.938 63.4563 340.938 63.4563C340.938 63.4563 338.897 63.4563 337.973 64.6971C336.345 66.8971 338.853 71.7371 338.853 71.7371C337.594 64.6971 341.238 64.3099 341.238 64.3099C341.238 64.3099 342.118 67.0379 343.746 66.7915C345.374 66.5451 349.492 62.5587 351.516 63.0339C352.155 63.1693 352.747 63.4709 353.232 63.9081C353.717 64.3454 354.078 64.9028 354.279 65.5243C354.308 66.1488 354.204 66.7725 353.974 67.3537C353.743 67.9348 353.391 68.4602 352.942 68.8947C351.182 70.8395 354.138 74.9931 356.171 76.2603C356.171 76.2603 356.101 75.2131 357.007 75.3803C357.914 75.5475 358.345 80.9947 356.937 83.8019C356.937 83.8019 359.251 81.1619 360.026 75.2483C360.463 72.3985 360.499 69.5015 360.131 66.6419Z" fill="#263238"/>
<path d="M346.333 82.6312C347.103 82.6143 347.859 82.4129 348.536 82.0439C349.212 81.6749 349.791 81.1491 350.222 80.5104C350.235 80.4923 350.244 80.4717 350.248 80.4499C350.252 80.4282 350.252 80.4059 350.247 80.3843C350.242 80.3628 350.232 80.3425 350.219 80.3248C350.206 80.3071 350.189 80.2924 350.17 80.2816C350.152 80.27 350.133 80.262 350.112 80.2579C350.092 80.2539 350.071 80.2539 350.05 80.258C350.03 80.262 350.011 80.2701 349.993 80.2817C349.976 80.2934 349.961 80.3083 349.95 80.3256C349.538 80.91 348.996 81.3906 348.367 81.7297C347.738 82.0687 347.038 82.2569 346.324 82.2792C346.281 82.2792 346.24 82.2956 346.209 82.325C346.178 82.3545 346.159 82.3948 346.157 82.4376C346.157 82.4805 346.173 82.5217 346.203 82.5528C346.232 82.584 346.272 82.6026 346.315 82.6048L346.333 82.6312Z" fill="#263238"/>
<path d="M361.381 75.4688C360.912 77.0507 359.837 78.3828 358.389 79.1736C356.462 80.212 355.027 78.6016 355.15 76.5336C355.291 74.6944 356.426 71.8784 358.565 71.72C360.703 71.5616 361.926 73.5152 361.381 75.4688Z" fill="#E4897B"/>
<path opacity="0.1" d="M347.6 88.2106C347.368 88.1595 347.138 88.0949 346.914 88.017C344.755 87.3419 342.924 85.8901 341.774 83.9426C343.306 83.7754 346.5 83.4586 347.151 83.7402C347.802 84.0218 347.688 86.9082 347.6 88.2106Z" fill="black"/>
<path d="M337.938 118.659H342.223L346.887 101.464L351.129 96.9668H343.702L345.435 101.296L337.938 118.659Z" fill="#407BFF"/>
<path d="M322.159 115.446L321.886 118.658H328.847C334.805 104.517 340.34 94.2646 340.34 94.2646L333.106 96.5351C316.386 101.428 314.978 112.375 317.83 115.173C320.681 117.972 322.159 115.446 322.159 115.446Z" fill="#407BFF"/>
<path opacity="0.5" d="M322.159 115.446L321.886 118.658H328.847C334.805 104.517 340.34 94.2646 340.34 94.2646L333.106 96.5351C316.386 101.428 314.978 112.375 317.83 115.173C320.681 117.972 322.159 115.446 322.159 115.446Z" fill="#121415"/>
<path d="M327.36 118.659H328.979C334.4 106.981 343.402 93.2794 343.402 93.2794C339.712 93.2707 336.056 93.9852 332.64 95.3826L334.497 100.557L330.018 101.437L327.36 118.659Z" fill="#407BFF"/>
<path opacity="0.4" d="M327.36 118.659H328.979C334.4 106.981 343.402 93.2794 343.402 93.2794C339.712 93.2707 336.056 93.9852 332.64 95.3826L334.497 100.557L330.018 101.437L327.36 118.659Z" fill="#121415"/>
<path opacity="0.2" d="M325.477 118.658C326.398 116.678 326.89 114.524 326.92 112.34L322.159 115.446L321.886 118.658H325.477Z" fill="black"/>
<path d="M341.044 94.9863L344.467 91.8887L347.521 96.0511L357.201 91.8887L359.63 95.8135L350.249 100.469L347.134 97.4679L343.702 99.6327L341.044 94.9863Z" fill="#263238"/>
<path opacity="0.2" d="M341.044 94.9863L344.467 91.8887L347.521 96.0511L357.201 91.8887L359.63 95.8135L350.249 100.469L347.134 97.4679L343.702 99.6327L341.044 94.9863Z" fill="#121415"/>
<path d="M330 105.327L340.331 94.2652C341.666 94.2416 342.949 93.7423 343.948 92.8573C345.479 91.4141 347.565 85.0252 347.054 84.6116C346.544 84.198 340.384 83.6876 339.803 84.4092C339.222 85.1308 336.67 91.59 336.67 91.59L325.6 100.249L330 105.327Z" fill="#E4897B"/>
<path d="M331.144 95.6556L333.186 93.8516L338.078 97.6444L335.861 100.592L331.144 95.6556Z" fill="#263238"/>
<path opacity="0.2" d="M331.144 95.6556L333.186 93.8516L338.078 97.6444L335.861 100.592L331.144 95.6556Z" fill="#121415"/>
<path d="M331.698 94.5029L337.559 99.1405C337.559 99.1405 323.937 120.718 318.982 116.16C314.028 111.601 316.562 104.465 331.698 94.5029Z" fill="#407BFF"/>
<path opacity="0.6" d="M331.698 94.5029L337.559 99.1405C337.559 99.1405 323.937 120.718 318.982 116.16C314.028 111.601 316.562 104.465 331.698 94.5029Z" fill="#121415"/>
<path d="M369.274 118.658L370.154 103.188C370.222 101.688 369.815 100.205 368.99 98.9502C368.165 97.6954 366.965 96.7333 365.561 96.2009L357.843 93.2793C357.843 93.2793 358.169 104.895 359.066 118.632L369.274 118.658Z" fill="#407BFF"/>
<path opacity="0.5" d="M369.274 118.658L370.154 103.188C370.222 101.688 369.815 100.205 368.99 98.9502C368.165 97.6954 366.965 96.7333 365.561 96.2009L357.843 93.2793C357.843 93.2793 358.169 104.895 359.066 118.632L369.274 118.658Z" fill="#121415"/>
<path d="M362.226 118.658L365.068 110.677L360.8 106.787L365.684 105.326C362.578 95.7521 357.544 92.4961 357.544 92.4961C356.294 98.6561 357.544 110.809 358.538 118.658H362.226Z" fill="#407BFF"/>
<path opacity="0.4" d="M362.226 118.658L365.068 110.677L360.8 106.787L365.684 105.326C362.578 95.7521 357.544 92.4961 357.544 92.4961C356.294 98.6561 357.544 110.809 358.538 118.658H362.226Z" fill="#121415"/>
<path d="M323.382 116.775C324.262 117.11 331.17 117.567 331.17 117.567L332.781 118.658H344.027L332.587 113.264C332.156 112.002 331.293 110.932 330.15 110.246C328.302 109.225 321.578 109.198 321.35 109.806C321.121 110.413 322.511 116.432 323.382 116.775Z" fill="#E4897B"/>
<path d="M340.49 118.659L341.528 116.793L337.251 114.919L335.729 118.659H340.49Z" fill="#263238"/>
<path opacity="0.2" d="M340.49 118.659L341.528 116.793L337.251 114.919L335.729 118.659H340.49Z" fill="#121415"/>
<path d="M363.748 118.659C368.852 110.677 372.442 100.962 368.271 98.1375C368.271 98.1375 365.068 97.2575 351.842 117.436C351.842 117.436 350.39 120.551 339.522 115.676L338.105 118.668L363.748 118.659Z" fill="#407BFF"/>
<path opacity="0.6" d="M363.748 118.659C368.852 110.677 372.442 100.962 368.271 98.1375C368.271 98.1375 365.068 97.2575 351.842 117.436C351.842 117.436 350.39 120.551 339.522 115.676L338.105 118.668L363.748 118.659Z" fill="#121415"/>
<path opacity="0.3" d="M305.069 120.076H231.774V184.299H305.069V120.076Z" fill="#121415"/>
<path d="M169.409 118.659C171.169 114.074 181.509 105.142 181.509 105.142V95.9199C176.229 96.9055 163.302 108.029 162.967 118.633L169.409 118.659Z" fill="#407BFF"/>
<path opacity="0.6" d="M169.409 118.659C170.289 116.477 173.025 113.318 175.692 110.598C178.657 107.606 181.509 105.151 181.509 105.151V95.9199C176.229 96.9055 163.293 108.029 162.967 118.633L169.409 118.659Z" fill="#121415"/>
<path opacity="0.2" d="M175.692 110.598C178.657 107.606 181.509 105.151 181.509 105.151V102.467C181.509 102.467 176.422 104.992 175.692 110.598Z" fill="black"/>
<path d="M218.75 118.659C220.07 110.546 221.39 103.858 221.962 100.831C222.057 100.365 221.965 99.8817 221.706 99.4835C221.448 99.0853 221.044 98.8044 220.581 98.7009C218.689 98.2873 216.735 97.9353 214.773 97.6361C205.896 96.3916 196.94 95.8034 187.977 95.8761C183.999 95.8761 181.509 95.9905 181.509 95.9905C179.696 102.485 178.614 110.572 177.989 118.703L218.75 118.659Z" fill="#407BFF"/>
<path opacity="0.7" d="M218.759 118.659L218.865 117.982C220.141 110.176 221.373 103.77 221.953 100.831C221.98 100.67 221.98 100.507 221.953 100.347C221.936 99.9557 221.789 99.5818 221.536 99.2838C221.283 98.9858 220.937 98.7807 220.554 98.7009C218.653 98.2873 216.709 97.9353 214.746 97.6361C205.87 96.3916 196.913 95.8034 187.95 95.8761C183.973 95.8761 181.482 95.9905 181.482 95.9905C179.669 102.485 178.587 110.572 177.962 118.703L218.759 118.659Z" fill="#121415"/>
<path d="M195.817 106.287C207.257 107.501 214.922 97.7505 214.922 97.7505L214.773 97.6361C205.896 96.3916 196.94 95.8034 187.977 95.8761C187.977 95.8761 185.055 105.143 195.817 106.287Z" fill="#407BFF"/>
<path d="M208.489 96.7379C205.269 99.6683 197.375 98.5859 197.375 98.5859C197.375 98.5859 192.447 97.2395 193.477 95.6995C196.381 95.2155 197.789 93.8603 198.369 92.1267C198.686 91.0543 198.785 89.9292 198.66 88.8179C198.615 88.195 198.536 87.5751 198.422 86.9611L208.181 79.7363C206.905 84.4795 205.339 93.2795 208.489 96.7379Z" fill="#E4897B"/>
<path opacity="0.2" d="M205.92 84.3301C205.533 90.1821 200.719 91.8013 198.361 92.1269C198.678 91.0544 198.776 89.9293 198.651 88.8181L205.92 84.3301Z" fill="black"/>
<path d="M207.055 93.0244L197.727 97.2308L197.173 93.8604L193.749 95.0396C193.15 95.2499 192.639 95.6561 192.299 96.1926C191.959 96.7291 191.81 97.3646 191.875 97.9964L192.262 101.692L196.997 99.1052L199.355 102.44L210.566 97.046L207.055 93.0244Z" fill="#407BFF"/>
<path opacity="0.3" d="M207.055 93.0244L197.727 97.2308L197.173 93.8604L193.749 95.0396C193.15 95.2499 192.639 95.6561 192.299 96.1926C191.959 96.7291 191.81 97.3646 191.875 97.9964L192.262 101.692L196.997 99.1052L199.355 102.44L210.566 97.046L207.055 93.0244Z" fill="#121415"/>
<path d="M191.03 65.04C191.03 65.04 188.39 74.1744 192.852 78.416C197.313 82.6576 199.619 65.304 199.619 65.304L191.03 65.04Z" fill="#263238"/>
<path opacity="0.2" d="M191.03 65.04C191.03 65.04 188.39 74.1744 192.852 78.416C197.313 82.6576 199.619 65.304 199.619 65.304L191.03 65.04Z" fill="#121415"/>
<path d="M190.96 83.67C191.057 83.9956 191.162 84.3212 191.285 84.6292C192.185 86.8739 193.902 88.6944 196.09 89.7244C198.053 90.6668 200.297 90.8425 202.382 90.2172C203.868 89.7496 205.2 88.8891 206.237 87.7268C209.528 84.154 209.29 80.1676 209.431 73.4092C209.493 71.8302 209.149 70.2617 208.431 68.8536C207.714 67.4456 206.648 66.245 205.334 65.3666C204.021 64.4882 202.504 63.9614 200.929 63.8365C199.353 63.7116 197.772 63.9928 196.337 64.6532C189.825 67.5836 189.279 77.6508 190.96 83.67Z" fill="#E4897B"/>
<path d="M199.258 75.6791C199.311 76.2159 199.003 76.6823 198.642 76.6911C198.281 76.6999 197.973 76.2687 197.947 75.7231C197.921 75.1775 198.211 74.7111 198.563 74.7023C198.915 74.6935 199.232 75.1247 199.258 75.6791Z" fill="#263238"/>
<path d="M193.037 75.9164C193.098 76.462 192.781 76.9284 192.421 76.9372C192.06 76.946 191.761 76.5148 191.734 75.9604C191.708 75.406 191.989 74.9572 192.35 74.9484C192.711 74.9396 193.019 75.3972 193.037 75.9164Z" fill="#263238"/>
<path d="M195.025 76.1191C194.434 77.8267 193.607 79.4438 192.57 80.9239C192.957 81.1744 193.392 81.3387 193.848 81.4055C194.304 81.4723 194.768 81.4401 195.21 81.3111L195.025 76.1191Z" fill="#DE5753"/>
<path d="M190.634 73.3473C190.684 73.3795 190.742 73.3967 190.802 73.3967C190.861 73.3967 190.919 73.3795 190.969 73.3473C191.3 73.1145 191.68 72.9609 192.079 72.8983C192.479 72.8358 192.888 72.866 193.274 72.9865C193.313 73.0039 193.355 73.0133 193.397 73.0143C193.439 73.0153 193.481 73.0077 193.521 72.9922C193.56 72.9766 193.596 72.9532 193.626 72.9236C193.657 72.8939 193.68 72.8584 193.697 72.8193C193.729 72.741 193.73 72.653 193.699 72.5742C193.668 72.4953 193.607 72.4317 193.53 72.3969C193.046 72.2296 192.53 72.1798 192.023 72.2517C191.517 72.3236 191.034 72.5152 190.617 72.8105C190.545 72.8574 190.494 72.9309 190.476 73.015C190.458 73.099 190.474 73.1869 190.52 73.2593C190.551 73.2969 190.59 73.3269 190.634 73.3473Z" fill="#263238"/>
<path d="M200.394 73.1541C200.458 73.1476 200.519 73.1232 200.57 73.0837C200.628 73.0217 200.66 72.9399 200.66 72.8549C200.66 72.7699 200.628 72.6881 200.57 72.6261C200.174 72.298 199.705 72.0699 199.203 71.9612C198.7 71.8524 198.179 71.8662 197.683 72.0013C197.603 72.0293 197.538 72.0872 197.5 72.1628C197.462 72.2383 197.455 72.3255 197.481 72.4061C197.511 72.4864 197.57 72.5521 197.647 72.5898C197.724 72.6275 197.813 72.6341 197.894 72.6085C198.289 72.518 198.698 72.5194 199.092 72.6125C199.486 72.7055 199.853 72.8878 200.165 73.1453C200.238 73.1736 200.318 73.1767 200.394 73.1541Z" fill="#263238"/>
<path d="M204.16 65.1719L203.764 68.1463C204.267 68.3893 204.66 68.8141 204.862 69.3351C205.065 69.856 205.062 70.4343 204.855 70.9535C203.87 73.4527 205.251 77.3511 207.161 78.9175C207.161 78.9175 207.231 77.8351 208.146 78.0991C209.062 78.3631 208.745 84.0215 206.932 86.6967C206.932 86.6967 209.66 84.2855 211.244 78.3631C212.714 72.8895 212.934 68.3135 211.825 66.1839L204.16 65.1719Z" fill="#263238"/>
<path d="M196.24 84.8578C196.2 84.8706 196.157 84.8706 196.117 84.8578C196.069 84.8241 196.036 84.7733 196.025 84.7161C196.013 84.6588 196.024 84.5993 196.055 84.5498C196.769 83.4881 197.845 82.7219 199.082 82.3938C199.111 82.3875 199.141 82.387 199.17 82.3924C199.199 82.3979 199.227 82.4092 199.252 82.4256C199.276 82.4421 199.297 82.4633 199.314 82.4881C199.33 82.5129 199.341 82.5407 199.346 82.5698C199.357 82.6257 199.345 82.6836 199.314 82.7311C199.283 82.7787 199.235 82.8124 199.179 82.825C198.056 83.1346 197.08 83.8333 196.425 84.7962C196.4 84.8195 196.371 84.8371 196.339 84.8477C196.307 84.8583 196.273 84.8618 196.24 84.8578Z" fill="#263238"/>
<path opacity="0.1" d="M193.186 87.6123C194.009 88.4971 194.995 89.2143 196.09 89.7243C198.053 90.6667 200.297 90.8424 202.382 90.2171C201.455 89.3845 200.327 88.8082 199.109 88.5451C197.172 88.03 195.187 87.7174 193.186 87.6123Z" fill="black"/>
<path opacity="0.2" d="M204.16 65.1719L203.764 68.1463C204.267 68.3893 204.66 68.8141 204.862 69.3351C205.065 69.856 205.062 70.4343 204.855 70.9535C203.87 73.4527 205.251 77.3511 207.161 78.9175C207.161 78.9175 207.231 77.8351 208.146 78.0991C209.062 78.3631 208.745 84.0215 206.932 86.6967C206.932 86.6967 209.66 84.2855 211.244 78.3631C212.714 72.8895 212.934 68.3135 211.825 66.1839L204.16 65.1719Z" fill="#121415"/>
<path d="M212.291 67.5484C212.291 67.5484 213.022 63.6412 206.87 60.5876C200.719 57.534 193.978 61.0188 189.869 58.3876C185.759 55.7564 185.61 66.5716 194.392 67.786C200.344 68.4761 206.36 68.3963 212.291 67.5484Z" fill="#263238"/>
<path opacity="0.3" d="M212.291 67.5484C212.291 67.5484 213.022 63.6412 206.87 60.5876C200.719 57.534 193.978 61.0188 189.869 58.3876C185.759 55.7564 185.61 66.5716 194.392 67.786C200.344 68.4761 206.36 68.3963 212.291 67.5484Z" fill="#121415"/>
<path d="M212.59 78.8384C211.909 80.3872 210.644 81.6047 209.07 82.2264C206.958 83.0184 205.709 81.1792 206.113 79.0848C206.501 77.2192 208.049 74.5 210.258 74.6232C212.467 74.7464 213.417 76.9112 212.59 78.8384Z" fill="#E4897B"/>
<path d="M202.145 100.618L201.212 95.6552C201.212 95.6552 203.148 93.8248 202.919 92.1352C202.69 90.4456 194.119 87.6472 192.57 87.5328C191.021 87.4184 191.629 93.6136 192.095 94.7488C192.561 95.884 197.727 97.2392 197.727 97.2392L198.369 102.475L202.145 100.618Z" fill="#E4897B"/>
<path opacity="0.2" d="M217.597 118.659C218.046 118.439 218.477 118.21 218.865 117.981C220.141 110.175 221.373 103.769 221.953 100.83C221.98 100.669 221.98 100.506 221.953 100.346C216.392 106.013 207.733 115.491 208.753 118.659H217.597Z" fill="black"/>
<path d="M214.579 118.659C220.977 112.921 226.538 105.01 222.605 99.6682C219.155 94.969 210.285 111.988 207.583 113.159C204.881 114.329 202.541 98.7178 202.541 98.7178L197.261 100.284C197.261 100.284 198.229 111.531 200.939 118.659H214.579Z" fill="#407BFF"/>
<path opacity="0.6" d="M214.579 118.659C220.977 112.921 226.538 105.01 222.605 99.6682C219.155 94.969 210.285 111.988 207.583 113.159C204.881 114.329 202.541 98.7178 202.541 98.7178L197.261 100.284C197.261 100.284 198.229 111.531 200.939 118.659H214.579Z" fill="#121415"/>
<path d="M254.461 118.659C256.318 116.785 257.523 115.465 257.523 115.465L256.502 99.8623C253.563 101.429 244.754 113.186 240.126 118.659H254.461Z" fill="#407BFF"/>
<path opacity="0.5" d="M254.461 118.659C256.318 116.785 257.523 115.465 257.523 115.465L256.502 99.8623C253.563 101.429 244.754 113.186 240.126 118.659H254.461Z" fill="#121415"/>
<path opacity="0.2" d="M254.452 118.66C256.318 116.785 257.523 115.465 257.523 115.465L257.286 111.76L256.08 108.17C253.37 110.983 251.883 114.754 251.944 118.66H254.452Z" fill="black"/>
<path d="M285.305 118.66C285.736 117.111 286.185 115.465 286.783 113.67C287.381 111.875 287.918 110.071 288.587 108.056C289.086 106.536 289.634 104.923 290.233 103.216C286.661 102.074 283.011 101.192 279.312 100.576C275.416 99.8818 271.475 99.4672 267.52 99.335C262.407 99.335 256.52 99.863 256.52 99.863C256.52 99.863 255.64 100.065 255.156 105.495C254.901 108.232 254.645 112.456 254.628 118.695L285.305 118.66Z" fill="#407BFF"/>
<path opacity="0.5" d="M285.305 118.66C285.736 117.111 286.185 115.465 286.783 113.67C287.381 111.875 287.918 110.071 288.587 108.056C289.086 106.536 289.634 104.923 290.233 103.216C286.661 102.074 283.011 101.192 279.312 100.576C275.416 99.8818 271.475 99.4672 267.52 99.335C262.407 99.335 256.52 99.863 256.52 99.863C256.52 99.863 255.64 100.065 255.156 105.495C254.901 108.232 254.645 112.456 254.628 118.695L285.305 118.66Z" fill="#121415"/>
<path d="M268.954 118.659L276.17 105.741L267.828 110.414L262.988 104.342L264.757 118.659H268.954Z" fill="#263238"/>
<path d="M276.452 98.9378C281.221 100.064 282.665 103.883 282.137 107.359L278.661 106.198C274.655 107.648 270.897 109.708 267.52 112.305C267.52 112.305 264.88 107.465 262.363 105.881L258.79 106.303C258.79 106.303 264.361 96.1042 276.452 98.9378Z" fill="#263238"/>
<path opacity="0.1" d="M276.452 98.9378C281.221 100.064 282.665 103.883 282.137 107.359L278.661 106.198C274.655 107.648 270.897 109.708 267.52 112.305C267.52 112.305 264.88 107.465 262.363 105.881L258.79 106.303C258.79 106.303 264.361 96.1042 276.452 98.9378Z" fill="#121415"/>
<path d="M267.802 100.461C268.058 100.324 268.326 100.21 268.602 100.118C269.21 99.6426 269.949 98.481 269.914 95.7178C269.886 94.615 269.783 93.5154 269.606 92.4266L277.411 90.9746C277.411 90.9746 274.771 96.2546 276.971 100.118C277.728 100.461 278.186 100.945 278.106 101.579C277.517 106.084 267.828 110.449 267.828 110.449C267.828 110.449 263.12 103.048 267.802 100.461Z" fill="#EEC1BB"/>
<path opacity="0.2" d="M269.605 92.4002C269.783 93.489 269.886 94.5887 269.913 95.6914C275.193 95.6914 277.411 90.9482 277.411 90.9482L269.605 92.4002Z" fill="black"/>
<path d="M273.09 66.6514C273.09 66.6514 263.938 65.4898 262.249 72.8114C261.766 74.9017 261.886 77.0861 262.595 79.111C263.303 81.1359 264.572 82.9183 266.253 84.2514L273.09 66.6514Z" fill="#263238"/>
<path d="M273.918 70.5763C267.133 70.2067 264.757 73.7178 263.877 80.6786C262.777 89.3818 264.37 95.6915 272.958 94.2922C284.61 92.4002 285.182 71.1923 273.918 70.5763Z" fill="#EEC1BB"/>
<path d="M268.277 80.5371C267.681 81.5194 266.969 82.4264 266.156 83.2387C266.338 83.5348 266.6 83.7741 266.911 83.9296C267.222 84.0851 267.57 84.1506 267.916 84.1187L268.277 80.5371Z" fill="#D4827D"/>
<path d="M272.466 80.2121C272.422 80.7665 272.686 81.2418 273.055 81.2682C273.425 81.2946 273.759 80.8722 273.803 80.3178C273.847 79.7634 273.583 79.2882 273.214 79.253C272.844 79.2178 272.51 79.6577 272.466 80.2121Z" fill="#263238"/>
<path d="M273.363 79.2966L272.193 78.7246C272.193 78.7246 272.712 79.7894 273.363 79.2966Z" fill="#263238"/>
<path d="M265.549 79.5521C265.549 80.1065 265.778 80.5818 266.147 80.617C266.517 80.6522 266.851 80.2122 266.895 79.6578C266.939 79.1034 266.675 78.6282 266.306 78.6018C265.936 78.5754 265.593 78.9977 265.549 79.5521Z" fill="#263238"/>
<path d="M266.455 78.6364L265.285 78.0645C265.285 78.0645 265.804 79.138 266.455 78.6364Z" fill="#263238"/>
<path d="M275.669 77.0177C275.622 77.0177 275.576 77.0065 275.535 76.9851C275.493 76.9636 275.458 76.9326 275.431 76.8945C275.1 76.5292 274.69 76.2436 274.233 76.0592C273.776 75.8748 273.283 75.7963 272.791 75.8297C272.713 75.8326 272.636 75.8063 272.576 75.7559C272.516 75.7055 272.476 75.6346 272.465 75.5569C272.461 75.4766 272.487 75.3975 272.54 75.3367C272.593 75.2759 272.667 75.238 272.747 75.2313C273.338 75.1892 273.931 75.2859 274.478 75.5135C275.025 75.7412 275.511 76.0935 275.897 76.5425C275.944 76.6072 275.963 76.6873 275.952 76.7661C275.94 76.8448 275.899 76.9161 275.836 76.9649C275.785 76.9956 275.728 77.0137 275.669 77.0177Z" fill="#263238"/>
<path d="M265.135 75.6805C265.083 75.6798 265.033 75.6657 264.988 75.6394C264.943 75.6132 264.906 75.5758 264.88 75.5309C264.859 75.4969 264.846 75.4591 264.84 75.4198C264.834 75.3805 264.836 75.3404 264.846 75.3019C264.856 75.2634 264.873 75.2273 264.897 75.1956C264.921 75.1639 264.951 75.1373 264.986 75.1173C265.423 74.8251 265.921 74.6346 266.441 74.56C266.962 74.4854 267.493 74.5285 267.995 74.6861C268.031 74.7022 268.063 74.7253 268.09 74.754C268.117 74.7826 268.138 74.8163 268.152 74.8531C268.166 74.8899 268.172 74.929 268.171 74.9683C268.17 75.0076 268.161 75.0463 268.145 75.0821C268.131 75.1192 268.11 75.1531 268.083 75.1816C268.056 75.2101 268.023 75.2325 267.986 75.2474C267.95 75.2624 267.911 75.2695 267.871 75.2683C267.832 75.2671 267.793 75.2576 267.758 75.2405C267.343 75.1192 266.907 75.0918 266.481 75.1603C266.055 75.2288 265.649 75.3915 265.294 75.6365C265.245 75.6631 265.191 75.6782 265.135 75.6805Z" fill="#263238"/>
<path d="M280.72 82.4119C280.72 82.4119 277.86 76.6655 278.573 72.3887C278.573 72.3887 265.434 66.1583 264.018 79.7719C264.018 79.7719 263.375 67.584 275.044 67.9536C286.713 68.3232 285.736 85.3776 279.444 90.1295C279.418 90.1295 282.48 86.0023 280.72 82.4119Z" fill="#263238"/>
<path d="M271.92 66.1228C271.92 66.1228 266.35 64.75 264.766 66.2284C263.182 67.7068 274.446 78.1172 280.342 79.1644C280.342 79.1644 282.339 85.6852 280.755 88.7388C280.755 88.7388 287.39 86.4244 287.698 76.322C288.006 66.2196 277.402 62.4796 271.92 66.1228Z" fill="#263238"/>
<path d="M279.523 83.7849C279.576 83.3977 279.705 83.0247 279.902 82.6873C280.099 82.3499 280.361 82.0547 280.672 81.8185C280.984 81.5823 281.339 81.4098 281.717 81.3108C282.095 81.2118 282.489 81.1884 282.876 81.2417C284.962 81.5849 285.727 85.9585 280.438 86.7065C279.681 86.8121 279.303 86.0553 279.523 83.7849Z" fill="#EEC1BB"/>
<path d="M282.48 70.1184C282.48 70.1184 284.794 64.2312 290.998 64.6448C297.202 65.0584 298.153 74.7472 294.888 81.9016C291.623 89.056 293.841 91.3704 293.841 91.3704C293.841 91.3704 290.365 90.948 290.365 84.5328C290.175 85.891 290.104 87.2632 290.154 88.6336C290.154 88.6336 287.839 85.3688 290.048 79.1648C292.257 72.9608 285.208 75.8032 285.208 75.8032L282.48 70.1184Z" fill="#263238"/>
<path d="M276.135 79.3581C276.103 79.3659 276.07 79.3659 276.038 79.3581C268.118 76.5069 265.047 66.9589 265.012 66.8621C264.99 66.785 264.999 66.7025 265.036 66.6318C265.074 66.5612 265.138 66.508 265.214 66.4837C265.252 66.4713 265.291 66.4666 265.331 66.4697C265.37 66.4727 265.409 66.4836 265.444 66.5016C265.479 66.5196 265.51 66.5444 265.536 66.5745C265.561 66.6047 265.581 66.6396 265.593 66.6773C265.593 66.7741 268.585 76.0405 276.241 78.7949C276.316 78.8227 276.377 78.8787 276.412 78.951C276.446 79.0233 276.451 79.1062 276.425 79.1821C276.401 79.2374 276.36 79.2838 276.308 79.3152C276.256 79.3467 276.196 79.3616 276.135 79.3581Z" fill="#263238"/>
<path d="M269.509 88.4141H269.28C269.24 88.4141 269.201 88.4061 269.165 88.3904C269.128 88.3747 269.095 88.3517 269.068 88.3229C269.041 88.294 269.02 88.2599 269.006 88.2226C268.993 88.1853 268.987 88.1457 268.989 88.1061C268.994 88.0259 269.03 87.9507 269.089 87.8965C269.148 87.8422 269.226 87.8132 269.306 87.8157C270.673 87.8124 271.985 87.2793 272.967 86.3285C273.023 86.2726 273.099 86.2412 273.178 86.2412C273.257 86.2412 273.333 86.2726 273.389 86.3285C273.445 86.3846 273.477 86.4605 273.477 86.5397C273.477 86.6188 273.445 86.6948 273.389 86.7509C272.352 87.7747 270.966 88.3687 269.509 88.4141Z" fill="#263238"/>
<path d="M270.486 83.01C270.113 83.0383 269.741 82.9537 269.417 82.7673C269.094 82.5808 268.834 82.3012 268.672 81.9648C268.51 81.6284 268.453 81.251 268.509 80.8818C268.564 80.5126 268.73 80.1687 268.984 79.8951C269.238 79.6215 269.569 79.4308 269.933 79.348C270.297 79.2652 270.678 79.2941 271.025 79.4309C271.372 79.5677 271.671 79.806 271.88 80.1149C272.09 80.4237 272.202 80.7886 272.202 81.162C272.213 81.3968 272.178 81.6315 272.098 81.8524C272.017 82.0733 271.893 82.2759 271.733 82.4481C271.574 82.6204 271.381 82.7588 271.166 82.8553C270.952 82.9518 270.721 83.0044 270.486 83.01ZM270.486 79.754C270.201 79.7256 269.914 79.7841 269.663 79.9219C269.412 80.0597 269.209 80.2703 269.08 80.5259C268.951 80.7815 268.902 81.0702 268.941 81.3539C268.979 81.6376 269.103 81.9031 269.295 82.1152C269.487 82.3273 269.739 82.4763 270.018 82.5424C270.296 82.6084 270.588 82.5886 270.855 82.4854C271.122 82.3822 271.352 82.2005 271.514 81.9642C271.676 81.728 271.762 81.4483 271.762 81.162C271.778 80.8063 271.653 80.4584 271.414 80.1945C271.175 79.9306 270.841 79.7722 270.486 79.754Z" fill="#263238"/>
<path d="M265.17 82.7199C264.8 82.7392 264.431 82.647 264.114 82.4551C263.796 82.2632 263.543 81.9804 263.387 81.6433C263.232 81.3061 263.181 80.9301 263.241 80.5638C263.302 80.1975 263.47 79.8577 263.726 79.5882C263.981 79.3188 264.312 79.1321 264.674 79.0522C265.037 78.9724 265.415 79.0031 265.76 79.1403C266.105 79.2775 266.401 79.515 266.609 79.8221C266.818 80.1292 266.93 80.4918 266.93 80.8631C266.943 81.1022 266.908 81.3415 266.825 81.5664C266.743 81.7912 266.615 81.9968 266.45 82.1706C266.286 82.3445 266.087 82.4828 265.867 82.5773C265.647 82.6717 265.41 82.7202 265.17 82.7199ZM265.17 79.4551C264.886 79.4284 264.599 79.4886 264.35 79.6276C264.1 79.7666 263.898 79.978 263.77 80.2339C263.643 80.4899 263.596 80.7784 263.635 81.0616C263.675 81.3448 263.799 81.6095 263.992 81.8207C264.184 82.0319 264.437 82.1799 264.715 82.2451C264.993 82.3104 265.285 82.2898 265.552 82.1862C265.818 82.0826 266.047 81.9008 266.208 81.6646C266.37 81.4285 266.456 81.149 266.455 80.8631C266.462 80.5119 266.332 80.1717 266.092 79.9153C265.852 79.6588 265.521 79.5063 265.17 79.4903V79.4551Z" fill="#263238"/>
<path d="M268.989 81.3828C268.947 81.3849 268.905 81.3742 268.869 81.3523C268.833 81.3303 268.805 81.298 268.787 81.2596C268.709 81.0947 268.597 80.9477 268.46 80.828C268.322 80.7084 268.161 80.6186 267.986 80.5644C267.767 80.5516 267.548 80.5903 267.346 80.6774C267.144 80.7645 266.966 80.8976 266.825 81.066C266.782 81.1069 266.725 81.1297 266.666 81.1297C266.607 81.1297 266.55 81.1069 266.508 81.066C266.468 81.0249 266.445 80.9696 266.445 80.912C266.445 80.8544 266.468 80.7991 266.508 80.758C266.699 80.5411 266.94 80.3729 267.209 80.2673C267.478 80.1617 267.769 80.1218 268.057 80.1508C268.299 80.2185 268.525 80.3377 268.718 80.5001C268.911 80.6626 269.066 80.8646 269.174 81.0924C269.187 81.1182 269.195 81.1465 269.197 81.1754C269.199 81.2043 269.195 81.2333 269.185 81.2606C269.175 81.2878 269.159 81.3127 269.139 81.3337C269.119 81.3548 269.095 81.3715 269.069 81.3828H268.989Z" fill="#263238"/>
<path d="M271.982 81.3829C271.925 81.3829 271.87 81.3609 271.829 81.3216C271.788 81.2822 271.764 81.2285 271.762 81.1717C271.761 81.1139 271.783 81.0582 271.822 81.0158C271.861 80.9734 271.915 80.9473 271.973 80.9429C272.325 80.9429 280.412 80.6877 281.406 80.7317C281.466 80.7362 281.521 80.7635 281.56 80.8078C281.599 80.8521 281.62 80.91 281.618 80.9693C281.613 81.0261 281.587 81.0789 281.544 81.1166C281.501 81.1544 281.446 81.1741 281.389 81.1717C280.403 81.1277 272.078 81.3829 271.99 81.3829H271.982Z" fill="#263238"/>
<path d="M296.718 118.659C293.515 110.246 290.233 103.215 290.233 103.215C290.233 103.215 284.874 111.012 284.39 118.659H296.718Z" fill="#407BFF"/>
<path opacity="0.5" d="M296.718 118.659C293.515 110.246 290.233 103.215 290.233 103.215C290.233 103.215 284.874 111.012 284.39 118.659H296.718Z" fill="#121415"/>
<path d="M298.725 184.308C296.965 179.486 295.205 175.402 295.205 175.402L287.848 181.844L289.133 184.308H298.725Z" fill="#E4897B"/>
<path d="M246.778 184.308C248.538 182.178 249.779 180.612 249.779 180.612L242.59 174.646C242.59 174.646 239.07 180.075 236.201 184.325L246.778 184.308Z" fill="#E4897B"/>
<path d="M248.538 184.308L252.806 181.316L251.152 161.445C245.714 162.325 237.811 178.165 237.811 178.165L243.971 184.325L248.538 184.308Z" fill="#407BFF"/>
<path opacity="0.2" d="M243.98 184.308H248.538L251.601 182.161L252.806 181.281L251.152 161.401C245.714 162.334 237.811 178.121 237.811 178.121L243.25 183.516L243.98 184.308Z" fill="#121415"/>
<path d="M245.318 184.308L237.811 176.432L236.518 178.596L242.528 184.308H245.318Z" fill="#407BFF"/>
<path opacity="0.2" d="M248.538 184.307L251.601 182.16L250.149 173.545C250.149 173.545 244.464 177.135 243.25 183.577L243.98 184.307H248.538Z" fill="black"/>
<path d="M288.323 184.308C290.136 173.114 291.905 164.596 291.905 164.596C274.489 160.389 251.108 161.445 251.108 161.445C249.277 167.975 248.195 176.115 247.588 184.325L288.323 184.308Z" fill="#407BFF"/>
<path opacity="0.2" d="M288.323 184.308C288.446 183.524 288.569 182.75 288.693 181.993C290.373 171.961 291.905 164.596 291.905 164.596C274.489 160.389 251.108 161.445 251.108 161.445C249.277 167.975 248.204 176.115 247.588 184.325L288.323 184.308Z" fill="#121415"/>
<path opacity="0.2" d="M288.323 184.308C288.446 183.524 288.569 182.75 288.693 181.993L286.123 179.582C285.501 181.091 285.103 182.683 284.944 184.308H288.323Z" fill="black"/>
<path d="M261.026 184.307H263.789C264.09 179.27 264.805 174.267 265.927 169.347L270.811 165.352L266.966 164.111L263.446 164.305L264.387 168.925C264.387 168.925 262.715 176 261.026 184.307Z" fill="#263238"/>
<path d="M278.08 162.237C274.859 165.167 266.957 164.085 266.957 164.085C266.957 164.085 262.029 162.73 263.067 161.19C265.971 160.715 267.379 159.359 267.951 157.67C268.271 156.595 268.373 155.467 268.25 154.352C268.203 153.732 268.121 153.115 268.004 152.504L277.772 145.271C276.496 149.996 274.929 158.779 278.08 162.237Z" fill="#E4897B"/>
<path opacity="0.2" d="M275.519 149.82C275.132 155.681 270.318 157.292 267.96 157.626C268.28 156.551 268.382 155.423 268.259 154.308L275.519 149.82Z" fill="black"/>
<path d="M276.645 158.515L267.317 162.73L266.772 159.351L263.34 160.556C262.741 160.767 262.231 161.173 261.893 161.71C261.554 162.247 261.407 162.882 261.474 163.513L261.861 167.218L266.596 164.578L268.954 167.913L280.157 162.519L276.645 158.515Z" fill="#407BFF"/>
<path opacity="0.3" d="M276.645 158.515L267.317 162.73L266.772 159.351L263.34 160.556C262.741 160.767 262.231 161.173 261.893 161.71C261.554 162.247 261.407 162.882 261.474 163.513L261.861 167.218L266.596 164.578L268.954 167.913L280.157 162.519L276.645 158.515Z" fill="#121415"/>
<path d="M257.761 131.666C257.761 131.666 256.309 141.064 261.281 144.699C266.253 148.333 266.314 130.83 266.314 130.83L257.761 131.666Z" fill="#263238"/>
<path d="M275.757 152.241C274.705 153.786 273.176 154.943 271.404 155.536C269.632 156.129 267.714 156.125 265.945 155.523C263.649 154.794 261.715 153.222 260.533 151.123C260.368 150.838 260.218 150.544 260.084 150.243C257.646 144.488 256.89 134.403 262.979 130.69C264.322 129.865 265.852 129.395 267.427 129.326C269.001 129.257 270.567 129.591 271.976 130.296C273.386 131 274.592 132.053 275.482 133.354C276.371 134.655 276.914 136.161 277.059 137.73C277.816 144.321 278.564 148.246 275.757 152.241Z" fill="#E4897B"/>
<path d="M267.282 141.17C267.414 141.707 267.168 142.2 266.807 142.261C266.446 142.323 266.094 141.927 265.998 141.381C265.901 140.836 266.121 140.352 266.473 140.299C266.825 140.246 267.186 140.624 267.282 141.17Z" fill="#263238"/>
<path d="M261.149 142.199C261.281 142.736 261.026 143.229 260.674 143.291C260.322 143.352 259.952 142.947 259.864 142.411C259.776 141.874 259.987 141.381 260.339 141.319C260.691 141.258 261.061 141.68 261.149 142.199Z" fill="#263238"/>
<path d="M263.12 142.139C262.752 143.906 262.142 145.615 261.307 147.216C261.718 147.413 262.166 147.52 262.621 147.529C263.077 147.538 263.529 147.45 263.947 147.269L263.12 142.139Z" fill="#DE5753"/>
<path d="M258.438 139.965C258.494 139.981 258.552 139.984 258.609 139.974C258.665 139.963 258.718 139.939 258.764 139.903C259.063 139.63 259.421 139.429 259.81 139.316C260.199 139.203 260.609 139.181 261.008 139.252C261.049 139.264 261.092 139.267 261.134 139.262C261.177 139.257 261.218 139.244 261.255 139.222C261.292 139.201 261.324 139.172 261.35 139.138C261.375 139.104 261.394 139.065 261.404 139.023C261.426 138.942 261.415 138.855 261.374 138.781C261.333 138.707 261.265 138.652 261.184 138.627C260.682 138.523 260.162 138.539 259.668 138.676C259.174 138.812 258.719 139.064 258.341 139.41C258.281 139.471 258.248 139.554 258.248 139.639C258.248 139.725 258.281 139.807 258.341 139.868C258.367 139.906 258.4 139.939 258.438 139.965Z" fill="#263238"/>
<path d="M268.092 138.512C268.155 138.499 268.213 138.469 268.259 138.424C268.302 138.35 268.316 138.262 268.296 138.179C268.276 138.095 268.225 138.022 268.154 137.975C267.719 137.701 267.226 137.536 266.714 137.493C266.202 137.45 265.688 137.531 265.214 137.729C265.138 137.767 265.079 137.833 265.051 137.914C265.023 137.995 265.028 138.083 265.065 138.16C265.104 138.235 265.171 138.292 265.252 138.318C265.332 138.344 265.42 138.338 265.496 138.301C265.875 138.16 266.282 138.108 266.685 138.149C267.088 138.19 267.476 138.323 267.819 138.539C267.864 138.555 267.911 138.561 267.959 138.556C268.006 138.552 268.051 138.537 268.092 138.512Z" fill="#263238"/>
<path d="M270.802 130.117V133.118C271.331 133.296 271.773 133.667 272.04 134.156C272.308 134.645 272.381 135.217 272.245 135.758C271.585 138.354 273.46 142.05 275.545 143.361C275.545 143.361 275.484 142.27 276.425 142.42C277.367 142.569 277.79 148.21 276.329 151.105C276.329 151.105 278.722 148.36 279.541 142.305C280.289 136.682 279.928 132.124 278.555 130.152L270.802 130.117Z" fill="#263238"/>
<path d="M280.922 142.561C280.435 144.194 279.322 145.567 277.825 146.38C275.836 147.445 274.349 145.773 274.49 143.644C274.639 141.752 275.827 138.856 278.01 138.689C280.192 138.522 281.494 140.581 280.922 142.561Z" fill="#E4897B"/>
<path d="M264.721 148.914C265.192 149.63 265.61 150.38 265.971 151.158L266.411 151.035C268.382 150.463 269.104 149.539 269.306 148.703C269.4 148.288 269.4 147.858 269.306 147.444C269.25 147.21 269.161 146.985 269.042 146.775C267.986 147.673 266.75 148.333 265.417 148.711C264.985 148.852 264.721 148.914 264.721 148.914Z" fill="#263238"/>
<path d="M265.39 148.721L265.778 149.372C267.634 148.827 268.858 148.193 269.298 147.454C269.241 147.22 269.152 146.995 269.034 146.785C267.972 147.685 266.73 148.345 265.39 148.721Z" fill="#121415"/>
<path d="M266.411 151.035C268.382 150.463 269.104 149.539 269.306 148.703C268.56 148.933 267.863 149.297 267.247 149.777C266.844 150.099 266.552 150.539 266.411 151.035Z" fill="#DE5753"/>
<path d="M274.815 141.074L273.935 140.555C273.935 140.555 274.49 144.154 273.346 145.166C273.346 145.166 269.386 145.588 268.004 145.958C267.056 146.326 266.272 147.023 265.795 147.92C265.795 147.92 262.689 147.26 261.342 149.592C260.225 148.595 259.341 147.363 258.755 145.984C258.755 145.984 258.861 152.567 262.548 156.069C266.235 159.571 272.228 157.829 275.044 155.092C277.86 152.355 274.815 141.074 274.815 141.074ZM272.175 151.449C271.938 151.802 271.612 152.086 271.23 152.274C270.849 152.462 270.425 152.546 270.001 152.52C269.576 152.493 269.166 152.356 268.811 152.122C268.457 151.888 268.169 151.565 267.978 151.185L266.746 151.863C266.746 151.863 268.101 153.007 267.071 154.063C266.042 155.119 262.856 154.74 262.53 151.704C262.205 148.668 266.05 148.325 266.05 148.325C266.53 147.841 267.102 147.458 267.732 147.2C268.363 146.941 269.039 146.812 269.72 146.82C270.25 146.842 270.765 147.001 271.215 147.282C271.665 147.564 272.034 147.957 272.285 148.425C272.536 148.892 272.662 149.416 272.649 149.947C272.635 150.477 272.484 150.995 272.21 151.449H272.175Z" fill="#263238"/>
<path d="M270.793 133.118C270.793 133.118 255.833 138.222 257.593 128.137C257.593 128.137 265.663 123.385 272.694 124.714C279.725 126.043 279.18 133.338 279.18 133.338L270.793 133.118Z" fill="#263238"/>
<path d="M300.652 184.308C299.772 181.439 294.835 166.127 291.905 164.596C290.174 166.228 288.783 168.187 287.813 170.36C285.815 174.425 285.384 182.574 285.384 182.574L286.677 184.334L300.652 184.308Z" fill="#407BFF"/>
<path opacity="0.2" d="M300.652 184.308C299.772 181.439 294.835 166.127 291.905 164.596C290.174 166.228 288.783 168.187 287.813 170.36C285.815 174.425 285.384 182.574 285.384 182.574L286.677 184.334L300.652 184.308Z" fill="#121415"/>
<path opacity="0.6" d="M380.054 120.076H306.759V184.299H380.054V120.076Z" fill="#121415"/>
<path d="M325.151 184.308C327.923 181.615 329.859 179.485 329.859 179.485L328.838 163.892C325.565 165.652 314.978 180.066 311.045 184.308H325.151Z" fill="#263238"/>
<path opacity="0.3" d="M325.151 184.308C327.923 181.615 329.859 179.485 329.859 179.485L328.838 163.892C325.565 165.652 314.978 180.066 311.045 184.308H325.151Z" fill="#121415"/>
<path opacity="0.2" d="M325.151 184.307C327.923 181.623 329.859 179.485 329.859 179.485L329.622 175.789L328.451 172.189C326.921 173.782 325.765 175.697 325.069 177.793C324.374 179.89 324.155 182.115 324.43 184.307H325.151Z" fill="black"/>
<path d="M358.336 143.634C357.579 146.538 361.733 154.563 360.052 169.154C358.371 183.744 342.355 182.864 335.157 177.954C327.958 173.043 329.208 146.678 331.681 141.469C334.154 136.259 358.336 143.634 358.336 143.634Z" fill="#263238"/>
<path d="M357.201 184.307C357.729 182.31 358.362 180.119 359.119 177.69C359.659 175.93 360.26 174.061 360.923 172.084C361.428 170.588 361.973 168.96 362.56 167.2C358.987 166.063 355.337 165.181 351.639 164.56C347.736 163.874 343.79 163.459 339.83 163.319C334.717 163.319 328.83 163.856 328.83 163.856C328.83 163.856 327.994 164.05 327.474 169.479C327.193 172.454 326.911 177.171 326.946 184.272L357.201 184.307Z" fill="#263238"/>
<path opacity="0.3" d="M357.201 184.307C357.729 182.31 358.362 180.119 359.119 177.69C359.659 175.93 360.26 174.061 360.923 172.084C361.428 170.588 361.973 168.96 362.56 167.2C358.987 166.063 355.337 165.181 351.639 164.56C347.736 163.874 343.79 163.459 339.83 163.319C334.717 163.319 328.83 163.856 328.83 163.856C328.83 163.856 327.994 164.05 327.474 169.479C327.193 172.454 326.911 177.171 326.946 184.272L357.201 184.307Z" fill="#121415"/>
<path d="M344.564 162.598C347.723 162.792 352.774 162.756 356.004 167.808H350.02L353.276 171.785C353.276 171.785 342.795 174.284 339.521 181.157C339.521 181.157 334.822 173.008 332.27 171.116C333.827 169.566 335.606 168.258 337.55 167.236C335.856 166.512 334.085 165.987 332.27 165.669C332.27 165.669 340.296 162.343 344.564 162.598Z" fill="#121415"/>
<path d="M350.442 165.563C350.442 165.563 342.329 174.715 339.821 179.132C338.681 174.299 338.799 169.255 340.164 164.48L350.442 165.563Z" fill="#407BFF"/>
<path opacity="0.6" d="M350.442 165.563C350.442 165.563 342.329 174.715 339.821 179.132C338.681 174.299 338.799 169.255 340.164 164.48L350.442 165.563Z" fill="#121415"/>
<path d="M342.012 169.162C348.498 168.335 350.442 165.563 350.442 165.563C346.324 161.682 349.747 155.003 349.747 155.003L341.942 156.464C342.119 157.55 342.222 158.646 342.25 159.746C342.302 164.481 340.164 164.525 340.164 164.525C338.8 167.05 342.012 169.162 342.012 169.162Z" fill="#EEC1BB"/>
<path opacity="0.2" d="M341.942 156.42C342.119 157.506 342.222 158.602 342.25 159.702C347.53 159.702 349.747 154.959 349.747 154.959L341.942 156.42Z" fill="black"/>
<path d="M346.254 134.64C339.469 134.27 337.093 137.781 336.213 144.742C335.113 153.445 336.706 159.755 345.294 158.356C356.946 156.411 357.518 135.212 346.254 134.64Z" fill="#EEC1BB"/>
<path d="M340.613 144.558C340.019 145.544 339.306 146.454 338.492 147.268C338.674 147.564 338.935 147.803 339.246 147.959C339.557 148.114 339.906 148.18 340.252 148.148L340.613 144.558Z" fill="#D4827D"/>
<path d="M344.802 144.232C344.758 144.795 345.022 145.261 345.391 145.297C345.761 145.332 346.095 144.892 346.139 144.337C346.183 143.783 345.919 143.308 345.55 143.281C345.18 143.255 344.846 143.677 344.802 144.232Z" fill="#263238"/>
<path d="M345.699 143.317L344.529 142.754C344.529 142.754 345.048 143.819 345.699 143.317Z" fill="#263238"/>
<path d="M337.92 143.58C337.876 144.135 338.14 144.61 338.51 144.636C338.879 144.663 339.214 144.24 339.258 143.686C339.302 143.132 339.038 142.648 338.668 142.621C338.298 142.595 337.92 143.017 337.92 143.58Z" fill="#263238"/>
<path d="M338.8 142.666L337.63 142.094C337.63 142.094 338.14 143.159 338.8 142.666Z" fill="#263238"/>
<path d="M348.014 141.047C347.965 141.048 347.916 141.037 347.873 141.013C347.83 140.99 347.793 140.956 347.767 140.915C347.437 140.549 347.027 140.264 346.57 140.081C346.112 139.897 345.619 139.822 345.127 139.859C345.047 139.861 344.97 139.834 344.909 139.782C344.849 139.729 344.81 139.656 344.802 139.577C344.797 139.497 344.823 139.418 344.876 139.357C344.929 139.296 345.003 139.258 345.083 139.251C345.674 139.21 346.266 139.307 346.813 139.535C347.36 139.762 347.847 140.114 348.234 140.563C348.28 140.627 348.299 140.708 348.288 140.786C348.276 140.865 348.235 140.936 348.172 140.985C348.126 141.019 348.071 141.041 348.014 141.047Z" fill="#263238"/>
<path d="M337.471 139.709C337.419 139.708 337.369 139.694 337.324 139.668C337.279 139.642 337.242 139.604 337.216 139.559C337.195 139.525 337.182 139.487 337.176 139.448C337.17 139.409 337.172 139.369 337.182 139.33C337.192 139.292 337.209 139.256 337.233 139.224C337.257 139.192 337.287 139.166 337.322 139.146C337.757 138.849 338.255 138.656 338.777 138.583C339.299 138.51 339.831 138.558 340.331 138.723C340.404 138.756 340.46 138.816 340.49 138.889C340.52 138.963 340.519 139.046 340.49 139.119C340.457 139.192 340.397 139.249 340.323 139.278C340.25 139.308 340.167 139.307 340.094 139.278C339.68 139.151 339.244 139.12 338.817 139.187C338.39 139.255 337.984 139.418 337.63 139.665C337.581 139.691 337.527 139.707 337.471 139.709Z" fill="#263238"/>
<path d="M341.079 150.859C341.355 151.64 341.576 152.44 341.739 153.252C341.886 153.261 342.033 153.261 342.179 153.252C344.168 153.164 345.057 152.469 345.444 151.721C345.619 151.35 345.706 150.943 345.699 150.533C345.7 150.301 345.67 150.071 345.611 149.847C344.412 150.448 343.097 150.784 341.757 150.832L341.079 150.859Z" fill="#263238"/>
<path d="M341.757 150.815L341.968 151.519C343.834 151.422 345.145 151.114 345.699 150.516C345.7 150.284 345.671 150.053 345.611 149.829C344.412 150.431 343.097 150.767 341.757 150.815Z" fill="#121415"/>
<path d="M342.179 153.234C344.168 153.146 345.057 152.451 345.444 151.703C344.687 151.751 343.946 151.932 343.253 152.24C342.8 152.451 342.424 152.799 342.179 153.234Z" fill="#DE5753"/>
<path d="M353.047 146.431C353.047 146.431 350.178 140.685 350.891 136.408C350.891 136.408 337.753 130.187 336.345 143.791C336.345 143.791 335.694 131.603 347.362 131.973C359.031 132.343 358.054 149.397 351.762 154.149C351.754 154.149 354.816 150.031 353.047 146.431Z" fill="#263238"/>
<path d="M351.859 147.841C351.912 147.453 352.041 147.08 352.238 146.743C352.435 146.406 352.697 146.11 353.008 145.874C353.32 145.638 353.675 145.465 354.053 145.366C354.431 145.268 354.825 145.244 355.212 145.297C357.297 145.641 358.063 150.014 352.774 150.762C352 150.841 351.639 150.085 351.859 147.841Z" fill="#EEC1BB"/>
<path d="M349.087 135.74C348.627 141.349 350.015 146.955 353.038 151.703C356.858 157.467 352.475 162.509 352.475 162.509C352.475 162.509 361.53 159.385 357.579 146.537C357.579 146.537 361.838 135.053 353.461 131.964C353.461 131.964 353.417 128.444 345.84 129.131C338.263 129.817 332.174 136.285 331.012 144.557C329.85 152.829 334.171 162.06 334.171 162.06C334.171 162.06 329.586 132.739 349.087 135.74Z" fill="#263238"/>
<path d="M349.51 135.872C349.011 137.837 348.821 139.868 348.946 141.892C349.065 143.941 349.393 145.972 349.923 147.955C350.451 149.952 351.216 151.878 352.202 153.692C353.169 155.523 354.47 157.156 356.039 158.506C354.414 157.202 353.047 155.605 352.009 153.798C350.949 151.998 350.107 150.077 349.501 148.078C348.883 146.072 348.476 144.008 348.286 141.918C348.08 139.799 348.207 137.661 348.665 135.582L349.51 135.872Z" fill="#263238"/>
<path opacity="0.2" d="M357.201 184.307C357.315 183.885 357.43 183.427 357.553 183.022C356.734 180.154 355.89 182.398 355.89 182.398C355.753 183.028 355.653 183.665 355.59 184.307H357.201Z" fill="black"/>
<path d="M368.65 184.307C365.587 176.141 362.56 167.2 362.56 167.2C356.277 169.682 355.934 182.539 355.934 182.539L356.919 184.299L368.65 184.307Z" fill="#263238"/>
<path opacity="0.3" d="M368.65 184.307C365.587 176.141 362.56 167.2 362.56 167.2C356.277 169.682 355.934 182.539 355.934 182.539L356.919 184.299L368.65 184.307Z" fill="#121415"/>
<path opacity="0.5" d="M230.094 120.076H156.798V184.299H230.094V120.076Z" fill="#121415"/>
<path d="M194.454 130.521L187.097 137.887H185.574V130.521H194.454Z" fill="#121415"/>
<path d="M195.993 132.722V137.887H190.828L195.993 132.722Z" fill="#121415"/>
<path d="M199.707 137.174L196.918 136.294V132.229L199.707 131.349V137.174Z" fill="#121415"/>
<path d="M192.641 144.637C190.226 144.638 187.885 143.801 186.019 142.269C184.152 140.737 182.874 138.606 182.402 136.237C181.931 133.869 182.296 131.41 183.434 129.28C184.573 127.151 186.414 125.482 188.646 124.558C190.877 123.634 193.359 123.512 195.67 124.214C197.981 124.915 199.977 126.396 201.318 128.405C202.659 130.413 203.262 132.824 203.025 135.227C202.787 137.63 201.723 139.877 200.015 141.584C199.049 142.555 197.899 143.325 196.634 143.849C195.368 144.373 194.011 144.641 192.641 144.637ZM192.641 124.652C191.068 124.651 189.52 125.038 188.133 125.779C186.746 126.519 185.563 127.59 184.689 128.898C183.815 130.205 183.277 131.707 183.123 133.272C182.968 134.837 183.203 136.416 183.805 137.868C184.407 139.321 185.358 140.603 186.574 141.6C187.79 142.597 189.233 143.278 190.776 143.584C192.318 143.889 193.912 143.81 195.416 143.352C196.921 142.894 198.289 142.072 199.399 140.959C200.733 139.622 201.641 137.92 202.008 136.067C202.375 134.215 202.185 132.295 201.462 130.55C200.739 128.806 199.515 127.314 197.945 126.265C196.375 125.215 194.529 124.654 192.641 124.652Z" fill="#121415"/>
<path d="M199.396 126.834L185.265 140.966L185.887 141.588L200.018 127.457L199.396 126.834Z" fill="#121415"/>
<path d="M73.7 301.664L95.5064 299.525V268.875H104.148V299.517L126.051 301.664C127.101 301.769 128.074 302.26 128.781 303.042C129.489 303.824 129.88 304.842 129.879 305.897V309.17H69.8632V305.897C69.8646 304.841 70.2578 303.824 70.9667 303.042C71.6756 302.259 72.6497 301.768 73.7 301.664Z" fill="#263238"/>
<path opacity="0.3" d="M73.7 301.664L95.5064 299.525V268.875H104.148V299.517L126.051 301.664C127.101 301.769 128.074 302.26 128.781 303.042C129.489 303.824 129.88 304.842 129.879 305.897V309.17H69.8632V305.897C69.8646 304.841 70.2578 303.824 70.9667 303.042C71.6756 302.259 72.6497 301.768 73.7 301.664Z" fill="#121415"/>
<path d="M121.924 313.227C121.924 314.344 122.255 315.436 122.876 316.366C123.497 317.295 124.379 318.019 125.412 318.446C126.444 318.874 127.58 318.986 128.676 318.768C129.772 318.55 130.778 318.012 131.568 317.222C132.359 316.432 132.897 315.425 133.115 314.329C133.333 313.233 133.221 312.097 132.793 311.065C132.366 310.032 131.641 309.15 130.712 308.529C129.783 307.908 128.691 307.577 127.574 307.577C126.075 307.577 124.638 308.172 123.579 309.232C122.519 310.291 121.924 311.728 121.924 313.227Z" fill="#407BFF"/>
<path d="M77.8272 313.227C77.8289 314.346 77.4988 315.44 76.8785 316.372C76.2582 317.303 75.3756 318.03 74.3423 318.46C73.309 318.89 72.1715 319.004 71.0735 318.787C69.9756 318.57 68.9665 318.033 68.1739 317.243C67.3814 316.453 66.8409 315.445 66.6209 314.348C66.4008 313.251 66.5111 312.113 66.9378 311.078C67.3644 310.044 68.0883 309.159 69.0178 308.536C69.9474 307.912 71.0409 307.579 72.16 307.577C72.9031 307.576 73.6391 307.721 74.326 308.005C75.013 308.288 75.6374 308.704 76.1637 309.228C76.6899 309.753 77.1077 310.376 77.3931 311.062C77.6785 311.748 77.826 312.484 77.8272 313.227Z" fill="#407BFF"/>
<path d="M101.983 275.457H97.636C96.6721 275.457 95.7477 275.074 95.0661 274.392C94.3845 273.711 94.0016 272.786 94.0016 271.823V248.177H105.644V271.823C105.644 272.302 105.549 272.777 105.365 273.219C105.181 273.662 104.91 274.064 104.57 274.402C104.23 274.74 103.826 275.007 103.382 275.188C102.938 275.369 102.463 275.46 101.983 275.457Z" fill="#263238"/>
<path opacity="0.5" d="M101.983 275.457H97.636C96.6721 275.457 95.7477 275.074 95.0661 274.392C94.3845 273.711 94.0016 272.786 94.0016 271.823V248.177H105.644V271.823C105.644 272.302 105.549 272.777 105.365 273.219C105.181 273.662 104.91 274.064 104.57 274.402C104.23 274.74 103.826 275.007 103.382 275.188C102.938 275.369 102.463 275.46 101.983 275.457Z" fill="#121415"/>
<path d="M79.2 200.244C79.2 200.244 77.5192 241.12 88.88 248.16H75.9088C75.9088 248.16 65.8416 234.239 68.684 200.244H79.2Z" fill="#263238"/>
<path opacity="0.5" d="M79.2 200.244C79.2 200.244 77.5192 241.12 88.88 248.16H75.9088C75.9088 248.16 65.8416 234.239 68.684 200.244H79.2Z" fill="#121415"/>
<path d="M75.8825 242.439H125.312C126.479 242.439 127.598 242.903 128.423 243.728C129.248 244.553 129.712 245.673 129.712 246.839V251.292H71.4825V246.839C71.4825 245.673 71.946 244.553 72.7712 243.728C73.5963 242.903 74.7155 242.439 75.8825 242.439Z" fill="#407BFF"/>
<path d="M130.363 246.866H70.8224C69.8455 246.866 69.0536 247.658 69.0536 248.635V249.524C69.0536 250.501 69.8455 251.293 70.8224 251.293H130.363C131.34 251.293 132.132 250.501 132.132 249.524V248.635C132.132 247.658 131.34 246.866 130.363 246.866Z" fill="#407BFF"/>
<path opacity="0.6" d="M130.363 246.866H70.8224C69.8455 246.866 69.0536 247.658 69.0536 248.635V249.524C69.0536 250.501 69.8455 251.293 70.8224 251.293H130.363C131.34 251.293 132.132 250.501 132.132 249.524V248.635C132.132 247.658 131.34 246.866 130.363 246.866Z" fill="#121415"/>
<path d="M67.2849 208.551H84.5153C91.6013 208.551 97.3457 202.806 97.3457 195.72V191.162C97.3457 184.076 91.6013 178.332 84.5153 178.332H67.2849C60.1988 178.332 54.4545 184.076 54.4545 191.162V195.72C54.4545 202.806 60.1988 208.551 67.2849 208.551Z" fill="#407BFF"/>
<path d="M122.003 172.057C124.335 173.016 137.562 189.885 137.905 193.441C138.336 197.753 133.962 198.571 129.202 197.453C124.441 196.336 128.049 191.663 128.049 191.663L120.718 181.402L122.003 172.057Z" fill="#263238"/>
<path d="M119.891 214.068H103.171C103.171 214.068 106.392 191.98 106.92 191.663C107.448 191.347 119.134 190.563 119.134 190.563V202.883L119.891 214.068Z" fill="#263238"/>
<path d="M100.83 166.064C101.438 165.941 107.818 163.301 111.285 165.968C114.752 168.634 118.659 177.513 112.446 180.734C106.234 183.955 98.3048 182.274 97.3544 177.425C96.404 172.576 100.83 166.064 100.83 166.064Z" fill="#263238"/>
<path d="M95.8584 146.15C95.8584 146.15 91.6696 155.83 94.6 159.42C97.5304 163.011 116.644 165.862 119.962 162.491C123.279 159.121 118.932 145.771 118.932 145.771L95.8584 146.15Z" fill="#263238"/>
<path d="M170.993 288.094L166.012 289.291L163.495 282.418L161.207 276.17L166.874 273.75L169.057 281.336L170.993 288.094Z" fill="#E4897B"/>
<path opacity="0.2" d="M169.057 281.336L163.495 282.418L161.207 276.17L166.874 273.75L169.057 281.336Z" fill="black"/>
<path d="M168.555 277.71L161.656 280.271C161.656 280.271 143.238 234.229 139.454 234.071C135.67 233.912 97.1256 251.618 87.472 241.797C77.8184 231.976 91.7752 208.304 91.7752 208.304C91.7752 208.304 115.007 204.995 116.758 210.24C117.191 211.786 117.52 213.359 117.744 214.948C118.008 216.55 118.184 217.896 118.184 217.896C118.906 217.72 142.226 211.736 151.413 217.896C160.767 224.215 168.555 277.71 168.555 277.71Z" fill="#263238"/>
<path opacity="0.2" d="M168.555 277.71L161.656 280.271C161.656 280.271 143.238 234.229 139.454 234.071C135.67 233.912 97.1256 251.618 87.472 241.797C77.8184 231.976 91.7752 208.304 91.7752 208.304C91.7752 208.304 115.007 204.995 116.758 210.24C117.191 211.786 117.52 213.359 117.744 214.948C118.008 216.55 118.184 217.896 118.184 217.896C118.906 217.72 142.226 211.736 151.413 217.896C160.767 224.215 168.555 277.71 168.555 277.71Z" fill="#121415"/>
<path d="M128.85 307.735L123.886 306.459L124.846 299.349L125.726 292.819L131.859 293.374L130.266 300.977L128.85 307.735Z" fill="#E4897B"/>
<path opacity="0.2" d="M130.231 301.126L124.81 299.481L125.708 292.89L131.85 293.409L130.231 301.126Z" fill="black"/>
<path d="M158.805 277.719L168.854 274.305L169.286 278.423L161.665 281.116L158.805 277.719Z" fill="#263238"/>
<path d="M104.157 244.156C104.157 244.156 105.723 244.2 130.09 243.065C130.09 243.065 126.456 273.522 124.467 296.331L131.754 297.572C131.754 297.572 149.16 248.741 148.975 240.979C148.79 233.218 139.92 230.947 139.92 230.947C139.92 230.947 122.531 240.979 104.157 244.156Z" fill="#263238"/>
<path opacity="0.1" d="M104.157 244.156C104.157 244.156 105.723 244.2 130.09 243.065C130.09 243.065 126.456 273.522 124.467 296.331L131.754 297.572C131.754 297.572 149.16 248.741 148.975 240.979C148.79 233.218 139.92 230.947 139.92 230.947C139.92 230.947 122.531 240.979 104.157 244.156Z" fill="#121415"/>
<path d="M123.402 294.122L133.417 295.257L131.481 299.182L123.376 298.144L123.402 294.122Z" fill="#263238"/>
<path opacity="0.3" d="M118.184 217.896L104.597 220.73C104.597 220.73 112.112 216.585 117.744 214.948C118.008 216.55 118.184 217.896 118.184 217.896Z" fill="black"/>
<path d="M92.3384 204.696L91.7752 208.313L116.758 210.24L117.418 205.963L92.3384 204.696Z" fill="#263238"/>
<path opacity="0.2" d="M92.3384 204.696L91.7752 208.313L116.758 210.24L117.418 205.963L92.3384 204.696Z" fill="black"/>
<path d="M100.86 204.458L99.6255 204.331L98.9793 210.616L100.214 210.743L100.86 204.458Z" fill="#263238"/>
<path d="M111.558 205.966L106.087 205.614L105.819 209.768L111.29 210.12L111.558 205.966Z" fill="#121415"/>
<path d="M116.207 205.134L114.973 205.007L114.326 211.292L115.561 211.419L116.207 205.134Z" fill="#263238"/>
<path opacity="0.2" d="M100.86 204.458L99.6255 204.331L98.9793 210.616L100.214 210.743L100.86 204.458Z" fill="#121415"/>
<path opacity="0.2" d="M116.207 205.134L114.973 205.007L114.326 211.292L115.561 211.419L116.207 205.134Z" fill="#121415"/>
<path d="M120.366 171.511C116.194 168.858 111.416 167.307 106.48 167.006C98.4632 166.592 91.256 171.01 91.256 171.01L92.3208 204.696L117.401 205.963C117.401 205.963 125.33 183.488 120.366 171.511Z" fill="#407BFF"/>
<path d="M119.143 149.001C119.143 149.001 122.76 132.73 107.703 134.341C88.8096 136.365 95.9816 159.861 105.354 158.391C114.726 156.921 119.143 149.001 119.143 149.001Z" fill="#263238"/>
<path opacity="0.2" d="M116.037 170.799L116.486 177.892L111.047 173.017C111.047 173.017 110.678 176.537 109.419 182.389C109.023 179.342 108.163 176.374 106.867 173.589L101.728 178.816L98.3664 170.799C98.3664 170.799 108.662 163.337 116.037 170.799Z" fill="black"/>
<path d="M109.182 176.554L106.48 169.883L101.49 167.648C105.89 164.603 103.682 157.792 103.682 157.792L110.801 160.3C110.472 161.292 110.216 162.307 110.035 163.336C109.296 167.736 111.294 168.123 111.294 168.123L109.921 170.112L109.182 176.554Z" fill="#E4897B"/>
<path opacity="0.2" d="M110.792 160.3C110.463 161.292 110.208 162.307 110.026 163.336C106.621 161.972 103.673 157.792 103.673 157.792L110.792 160.3Z" fill="black"/>
<path d="M111.038 139.04C117.471 139.594 119.24 143.211 119.143 149.873C119.02 158.206 116.679 163.953 108.794 161.471C98.0848 158.136 100.364 138.16 111.038 139.04Z" fill="#E4897B"/>
<path d="M115.016 149.159C115.45 150.163 116.002 151.112 116.662 151.984C116.451 152.235 116.175 152.422 115.864 152.525C115.553 152.627 115.22 152.641 114.902 152.565L115.016 149.159Z" fill="#DE5753"/>
<path d="M111.126 148.298C111.126 148.826 110.783 149.239 110.431 149.178C110.079 149.116 109.815 148.711 109.85 148.183C109.886 147.655 110.194 147.242 110.546 147.259C110.898 147.277 111.162 147.77 111.126 148.298Z" fill="#263238"/>
<path d="M110.405 147.312L111.584 146.934C111.584 146.934 110.95 147.84 110.405 147.312Z" fill="#263238"/>
<path d="M117.718 148.597C117.718 149.125 117.366 149.538 117.014 149.477C116.662 149.415 116.406 149.01 116.433 148.482C116.459 147.954 116.785 147.541 117.137 147.558C117.489 147.576 117.744 148.069 117.718 148.597Z" fill="#263238"/>
<path d="M116.987 147.611L118.166 147.232C118.166 147.232 117.533 148.165 116.987 147.611Z" fill="#263238"/>
<path d="M108.574 144.901C108.534 144.901 108.493 144.894 108.456 144.879C108.418 144.863 108.383 144.841 108.354 144.813C108.324 144.784 108.299 144.749 108.283 144.71C108.266 144.672 108.257 144.63 108.257 144.588C108.257 144.546 108.266 144.505 108.283 144.466C108.299 144.427 108.324 144.393 108.354 144.364C108.781 143.988 109.29 143.718 109.84 143.574C110.39 143.431 110.966 143.418 111.522 143.537C111.604 143.556 111.676 143.606 111.722 143.676C111.768 143.747 111.785 143.832 111.769 143.915C111.76 143.956 111.744 143.995 111.72 144.03C111.697 144.065 111.666 144.094 111.631 144.117C111.596 144.14 111.557 144.156 111.515 144.164C111.474 144.171 111.431 144.17 111.39 144.161C110.94 144.069 110.475 144.079 110.028 144.19C109.582 144.301 109.167 144.511 108.812 144.804C108.781 144.835 108.744 144.859 108.703 144.876C108.662 144.892 108.618 144.901 108.574 144.901Z" fill="#263238"/>
<path d="M118.659 145.05C118.586 145.048 118.515 145.024 118.457 144.98C118.16 144.704 117.805 144.499 117.418 144.378C117.031 144.258 116.622 144.226 116.222 144.284C116.141 144.306 116.055 144.295 115.983 144.254C115.91 144.213 115.857 144.145 115.834 144.064C115.812 143.983 115.823 143.896 115.864 143.822C115.905 143.748 115.974 143.693 116.054 143.668C116.552 143.583 117.062 143.611 117.547 143.752C118.031 143.892 118.478 144.14 118.853 144.478C118.886 144.504 118.914 144.536 118.935 144.573C118.955 144.609 118.968 144.65 118.973 144.691C118.978 144.733 118.975 144.775 118.963 144.816C118.952 144.856 118.932 144.894 118.906 144.927C118.877 144.965 118.84 144.996 118.797 145.017C118.754 145.039 118.707 145.05 118.659 145.05Z" fill="#263238"/>
<path d="M103.083 149.265C103.083 149.265 106.542 144.249 106.436 140.131C106.436 140.131 119.636 136.021 119.143 149.001C119.143 149.001 121.37 137.632 110.343 136.426C99.3169 135.221 97.9705 151.386 103.303 156.666C103.268 156.701 100.936 152.416 103.083 149.265Z" fill="#263238"/>
<path d="M104.016 150.717C104.022 150.343 103.953 149.971 103.815 149.624C103.676 149.276 103.47 148.959 103.208 148.692C102.946 148.424 102.634 148.211 102.289 148.065C101.945 147.919 101.574 147.842 101.2 147.84C99.1936 147.893 97.8912 151.897 102.758 153.305C103.462 153.542 103.919 152.882 104.016 150.717Z" fill="#E4897B"/>
<path d="M115.28 155.188C114.894 155.876 114.556 156.591 114.268 157.326L113.863 157.238C112.015 156.824 111.302 156.032 111.065 155.267C110.952 154.893 110.934 154.497 111.012 154.114C111.047 153.898 111.112 153.687 111.206 153.489C112.231 154.247 113.407 154.775 114.655 155.038C115.016 155.144 115.28 155.188 115.28 155.188Z" fill="#263238"/>
<path d="M114.638 155.038L114.321 155.663C112.561 155.276 111.417 154.783 110.994 154.114C111.029 153.898 111.094 153.687 111.188 153.489C112.213 154.247 113.39 154.775 114.638 155.038Z" fill="#121415"/>
<path d="M113.846 157.238C111.998 156.824 111.285 156.032 111.047 155.267C111.745 155.444 112.406 155.741 113.001 156.147C113.386 156.416 113.681 156.797 113.846 157.238Z" fill="#DE5753"/>
<path d="M110.88 139.515C110.88 139.515 107.36 149.864 100.734 149.195C94.1073 148.526 105.512 135.995 105.512 135.995C105.512 135.995 116.741 132.827 121.607 139.057C126.474 145.288 119.161 149.054 119.161 149.054C119.161 149.054 120.252 140.844 110.88 139.515Z" fill="#263238"/>
<path d="M105.538 148.35C105.494 148.35 105.452 148.336 105.416 148.311C105.38 148.286 105.352 148.25 105.336 148.209C105.316 148.153 105.318 148.092 105.343 148.037C105.368 147.983 105.413 147.941 105.468 147.919C110.748 145.921 110.642 138.829 110.642 138.758C110.642 138.7 110.666 138.644 110.707 138.603C110.748 138.561 110.804 138.538 110.862 138.538C110.891 138.537 110.919 138.542 110.946 138.552C110.973 138.562 110.997 138.577 111.017 138.597C111.038 138.617 111.054 138.64 111.066 138.667C111.077 138.693 111.082 138.721 111.082 138.749C111.082 138.82 111.188 146.221 105.618 148.333L105.538 148.35Z" fill="#263238"/>
<path d="M103.409 165.044L106.471 169.884L102.634 176.554L99.8536 167.992L103.409 165.044Z" fill="#407BFF"/>
<path d="M109.912 165.968V170.113L114.444 175.12L112.966 167.93L109.912 165.968Z" fill="#407BFF"/>
<path d="M179.23 297.756C178.475 297.41 177.664 297.204 176.836 297.149C176.836 297.149 173.958 295.459 171.107 288.886H167.904C167.362 288.891 166.835 289.063 166.395 289.377C165.954 289.692 165.621 290.135 165.44 290.646C165.389 290.787 165.359 290.936 165.352 291.086C165.386 291.862 165.468 292.635 165.598 293.4C166.071 295.947 166.697 298.462 167.473 300.933L168.01 300.801L167.024 296.014C166.698 294.395 168.406 295.961 169.198 297.598C169.99 299.235 171.204 300.889 174.742 300.079C178.869 299.094 180.523 298.504 179.23 297.756Z" fill="#263238"/>
<path d="M170.526 287.161C170.526 287.161 174.53 295.53 176.836 297.149C176.836 297.149 173.747 298.989 170.526 294.888C166.364 289.608 165.352 291.069 165.352 291.069C165.436 290.155 165.604 289.25 165.854 288.367C166.478 286.66 170.526 287.161 170.526 287.161Z" fill="#E4897B"/>
<path d="M135.159 317.679C134.508 317.163 133.769 316.77 132.977 316.518C132.977 316.518 130.583 314.195 129.369 307.128L126.262 306.354C125.735 306.231 125.184 306.274 124.682 306.475C124.179 306.677 123.751 307.027 123.455 307.48C123.368 307.606 123.303 307.746 123.262 307.894C123.11 308.652 123.007 309.419 122.954 310.191C122.794 312.778 122.794 315.373 122.954 317.961H123.508L123.684 313.086C123.754 311.431 125.039 313.359 125.444 315.136C125.849 316.914 126.614 318.806 130.24 318.859C134.49 318.92 136.242 318.735 135.159 317.679Z" fill="#263238"/>
<path d="M129.219 305.359C129.219 305.359 131.12 314.45 132.977 316.562C132.977 316.562 129.536 317.618 127.38 312.875C124.599 306.715 123.262 307.938 123.262 307.938C123.558 307.068 123.935 306.229 124.388 305.43C125.4 303.899 129.219 305.359 129.219 305.359Z" fill="#E4897B"/>
<path d="M99.044 167.596C99.044 167.596 106.85 190.784 95.8496 217.113L85.1664 215.723L91.7752 200.763L90.332 170.632L99.044 167.596Z" fill="#263238"/>
<path d="M113.846 168.423C113.846 168.423 117.418 174.178 116.987 191.664L119.143 216.418L121.22 214.948L119.522 202.875C119.522 202.875 124.036 181.623 122.003 172.075L113.846 168.423Z" fill="#263238"/>
<path d="M111.285 165.968C111.285 165.968 117.348 169.153 120.446 173.509L118.184 175.595L121.22 179.995L116.987 191.62C116.987 191.62 114.69 169.84 111.285 165.968Z" fill="#263238"/>
<path opacity="0.2" d="M111.285 165.968C111.285 165.968 117.348 169.153 120.446 173.509L118.184 175.595L121.22 179.995L116.987 191.62C116.987 191.62 114.69 169.84 111.285 165.968Z" fill="#121415"/>
<path d="M100.83 166.064C100.83 166.064 103.611 181.904 101.482 192.913L94.8289 177.839L98.6393 174.178L93.5617 170.552C95.594 168.501 98.0856 166.962 100.83 166.064Z" fill="#263238"/>
<path opacity="0.2" d="M100.83 166.064C100.83 166.064 103.611 181.904 101.482 192.913L94.8289 177.839L98.6393 174.178L93.5617 170.552C95.594 168.501 98.0856 166.962 100.83 166.064Z" fill="#121415"/>
<path d="M108.706 193.978L117.709 194.611C118.438 194.13 119.232 193.757 120.067 193.502C121.167 193.238 127.565 192.543 128.726 192.992C129.888 193.441 130.926 197.234 130.821 198.017C130.715 198.8 121.044 199.064 120.736 199.09C120.428 199.117 119.328 198.096 119.328 198.096L108.706 197.999V193.978Z" fill="#E4897B"/>
<path d="M90.332 170.597C84.4712 174.117 81.2768 193.081 85.1664 196.046C89.056 199.012 115.782 199.091 115.782 199.091L116.662 193.441C116.662 193.441 93.7024 191.145 92.532 188.918C91.3616 186.692 91.7752 177.892 91.7752 177.892L90.332 170.597Z" fill="#263238"/>
<path d="M193.987 318.885H198.625L206.958 202.875H200.807L193.987 318.885Z" fill="#263238"/>
<path opacity="0.7" d="M193.987 318.885H198.625L206.554 208.639L206.958 203.068H200.807L200.473 208.639L193.987 318.885Z" fill="#121415"/>
<path opacity="0.2" d="M200.473 208.366H206.554L206.958 203.068H200.807L200.473 208.366Z" fill="black"/>
<path d="M159.958 318.885H164.595L165.352 202.875H159.201L159.958 318.885Z" fill="#263238"/>
<path opacity="0.7" d="M159.192 203.068L159.315 221.777L159.949 318.885H164.595L165.229 221.777L165.352 203.068H159.192Z" fill="#121415"/>
<path opacity="0.2" d="M159.192 203.068L159.315 221.988H165.229L165.352 203.068H159.192Z" fill="black"/>
<path d="M110.722 318.885H115.359L123.693 202.875H117.542L110.722 318.885Z" fill="#263238"/>
<path opacity="0.7" d="M110.722 318.885H115.359L123.288 208.639L123.693 203.068H117.542L117.207 208.639L110.722 318.885Z" fill="#121415"/>
<path opacity="0.2" d="M117.207 208.366H123.288L123.693 203.068H117.542L117.207 208.366Z" fill="black"/>
<path d="M247.042 318.885H251.68L244.86 202.875H238.709L247.042 318.885Z" fill="#263238"/>
<path opacity="0.7" d="M238.709 203.068L239.114 208.639L247.042 318.885H251.671L245.194 208.639L244.86 203.068H238.709Z" fill="#121415"/>
<path opacity="0.2" d="M244.86 203.068H238.709L239.114 208.366H245.194L244.86 203.068Z" fill="black"/>
<path d="M247.834 205.787L114.567 205.787C114.063 205.787 113.58 205.587 113.223 205.23C112.867 204.874 112.666 204.39 112.666 203.886V199.979L249.762 199.979V203.886C249.762 204.138 249.712 204.387 249.614 204.62C249.517 204.852 249.375 205.063 249.196 205.24C249.016 205.416 248.804 205.556 248.57 205.65C248.336 205.744 248.086 205.79 247.834 205.787Z" fill="#407BFF"/>
<path opacity="0.6" d="M247.834 205.787L114.567 205.787C114.063 205.787 113.58 205.587 113.223 205.23C112.867 204.874 112.666 204.39 112.666 203.886V199.979L249.762 199.979V203.886C249.762 204.138 249.712 204.387 249.614 204.62C249.517 204.852 249.375 205.063 249.196 205.24C249.016 205.416 248.804 205.556 248.57 205.65C248.336 205.744 248.086 205.79 247.834 205.787Z" fill="#121415"/>
<path opacity="0.2" d="M112.666 202.883L249.744 202.883V199.979L112.666 199.979V202.883Z" fill="black"/>
<path d="M109.789 200.728H252.613C253.047 200.728 253.463 200.555 253.77 200.248C254.077 199.941 254.25 199.525 254.25 199.091C254.247 198.657 254.074 198.243 253.768 197.936C253.461 197.63 253.046 197.456 252.613 197.454H109.789C109.355 197.454 108.938 197.627 108.631 197.933C108.324 198.24 108.152 198.657 108.152 199.091C108.152 199.525 108.324 199.941 108.631 200.248C108.938 200.555 109.355 200.728 109.789 200.728Z" fill="#407BFF"/>
<path opacity="0.6" d="M109.789 200.728H252.613C253.047 200.728 253.463 200.555 253.77 200.248C254.077 199.941 254.25 199.525 254.25 199.091C254.247 198.657 254.074 198.243 253.768 197.936C253.461 197.63 253.046 197.456 252.613 197.454H109.789C109.355 197.454 108.938 197.627 108.631 197.933C108.324 198.24 108.152 198.657 108.152 199.091C108.152 199.525 108.324 199.941 108.631 200.248C108.938 200.555 109.355 200.728 109.789 200.728Z" fill="#121415"/>
<path d="M194.04 197.454L193.292 194.638H162.598L148.465 196.046L147.919 197.454H194.04Z" fill="#263238"/>
<path opacity="0.4" d="M162.598 194.638V197.454H194.04L193.292 194.638H162.598Z" fill="black"/>
<path d="M168.766 181.121C168.725 181.463 168.757 181.811 168.861 182.14C168.965 182.468 169.139 182.771 169.37 183.027C169.601 183.283 169.884 183.487 170.201 183.624C170.517 183.761 170.859 183.829 171.204 183.823H218.24C218.976 183.808 219.681 183.525 220.224 183.028C220.766 182.531 221.109 181.853 221.188 181.121L223.978 151.016C224.016 150.674 223.982 150.328 223.877 150.001C223.771 149.673 223.598 149.372 223.367 149.116C223.137 148.861 222.855 148.657 222.54 148.519C222.225 148.381 221.884 148.311 221.54 148.315H174.504C173.767 148.326 173.06 148.607 172.516 149.105C171.973 149.603 171.631 150.283 171.556 151.016L168.766 181.121Z" fill="#263238"/>
<path opacity="0.4" d="M171.362 183.823H218.24C218.976 183.808 219.681 183.526 220.224 183.028C220.766 182.531 221.109 181.853 221.188 181.122L223.978 151.017C224.011 150.722 223.99 150.424 223.916 150.137H177.047C176.311 150.152 175.606 150.434 175.064 150.932C174.521 151.429 174.178 152.107 174.099 152.838L171.31 182.943C171.278 183.237 171.296 183.535 171.362 183.823Z" fill="black"/>
<path d="M203.676 165.36H193.943L196.539 193.212L181.157 195.518V197.454H213.55V195.518L206.914 193.212L203.676 165.36Z" fill="#263238"/>
<path opacity="0.1" d="M193.943 165.36L201.15 197.014L206.914 196.847L203.676 165.36H193.943Z" fill="#121415"/>
<path d="M199.135 146.265H197.261V149.529H199.135V146.265Z" fill="#263238"/>
<path d="M197.261 146.141H194.999C194.769 145.68 194.657 145.169 194.674 144.654C194.649 144.141 194.761 143.631 194.999 143.176H197.261V146.141Z" fill="#263238"/>
<path d="M201.124 144.531C201.124 145.07 200.964 145.598 200.664 146.046C200.365 146.495 199.938 146.845 199.44 147.051C198.942 147.258 198.393 147.312 197.864 147.206C197.335 147.101 196.849 146.841 196.467 146.46C196.086 146.078 195.826 145.592 195.72 145.063C195.615 144.534 195.669 143.985 195.876 143.487C196.082 142.988 196.432 142.562 196.88 142.263C197.329 141.963 197.856 141.803 198.396 141.803C198.755 141.802 199.11 141.871 199.441 142.008C199.773 142.145 200.074 142.346 200.328 142.599C200.581 142.853 200.782 143.154 200.919 143.485C201.055 143.817 201.125 144.172 201.124 144.531Z" fill="#263238"/>
<path opacity="0.1" d="M201.124 144.531C201.124 145.07 200.964 145.598 200.664 146.046C200.365 146.495 199.938 146.845 199.44 147.051C198.942 147.258 198.393 147.312 197.864 147.206C197.335 147.101 196.849 146.841 196.467 146.46C196.086 146.078 195.826 145.592 195.72 145.063C195.615 144.534 195.669 143.985 195.876 143.487C196.082 142.988 196.432 142.562 196.88 142.263C197.329 141.963 197.856 141.803 198.396 141.803C198.755 141.802 199.11 141.871 199.441 142.008C199.773 142.145 200.074 142.346 200.328 142.599C200.581 142.853 200.782 143.154 200.919 143.485C201.055 143.817 201.125 144.172 201.124 144.531Z" fill="#121415"/>
<path d="M231.642 176.43V197.454H221.162C221.234 190.15 222.26 182.887 224.215 175.85C224.342 175.401 224.611 175.006 224.983 174.725C225.355 174.444 225.808 174.292 226.274 174.292H229.504C229.785 174.292 230.063 174.347 230.322 174.455C230.582 174.562 230.818 174.72 231.016 174.918C231.215 175.117 231.372 175.353 231.48 175.612C231.587 175.872 231.642 176.15 231.642 176.43Z" fill="#263238"/>
<path opacity="0.4" d="M231.642 176.431V197.454H226.362V177.214C226.362 176.441 226.669 175.7 227.216 175.154C227.762 174.608 228.503 174.301 229.275 174.301H229.469C229.752 174.296 230.033 174.348 230.296 174.453C230.559 174.558 230.798 174.714 231.001 174.912C231.203 175.11 231.364 175.346 231.474 175.607C231.584 175.868 231.641 176.148 231.642 176.431Z" fill="black"/>
<path d="M164.762 176.43V197.454H154.282C154.354 190.15 155.38 182.887 157.335 175.85C157.462 175.401 157.731 175.006 158.103 174.725C158.475 174.444 158.928 174.292 159.394 174.292H162.624C162.905 174.292 163.183 174.347 163.442 174.455C163.702 174.562 163.937 174.72 164.136 174.918C164.335 175.117 164.492 175.353 164.6 175.612C164.707 175.872 164.762 176.15 164.762 176.43Z" fill="#263238"/>
<path opacity="0.4" d="M164.762 176.431V197.454H159.482V177.214C159.482 176.441 159.789 175.7 160.336 175.154C160.882 174.608 161.623 174.301 162.395 174.301H162.589C162.872 174.296 163.153 174.348 163.416 174.453C163.679 174.558 163.918 174.714 164.121 174.912C164.323 175.11 164.484 175.346 164.594 175.607C164.704 175.868 164.761 176.148 164.762 176.431Z" fill="black"/>
</svg>
