<svg width="24" height="24" viewBox="0 0 24 24" fill="none" xmlns="http://www.w3.org/2000/svg">
<path fill-rule="evenodd" clip-rule="evenodd" d="M12.0001 2C6.47712 2 2.00012 6.477 2.00012 12C2.00012 13.89 2.52512 15.66 3.43812 17.168L2.54612 20.2C2.49491 20.3741 2.49154 20.5587 2.53637 20.7346C2.5812 20.9104 2.67257 21.0709 2.80088 21.1992C2.92919 21.3276 3.0897 21.4189 3.26554 21.4638C3.44137 21.5086 3.62604 21.5052 3.80012 21.454L6.83212 20.562C8.3908 21.5051 10.1783 22.0025 12.0001 22C17.5231 22 22.0001 17.523 22.0001 12C22.0001 6.477 17.5231 2 12.0001 2ZM9.73812 14.263C11.7611 16.285 13.6921 16.552 14.3741 16.577C15.4111 16.615 16.4211 15.823 16.8141 14.904C16.8637 14.7897 16.8817 14.6641 16.8663 14.5405C16.8508 14.4168 16.8024 14.2996 16.7261 14.201C16.1781 13.501 15.4371 12.998 14.7131 12.498C14.562 12.3935 14.3762 12.3516 14.1948 12.381C14.0134 12.4105 13.8504 12.509 13.7401 12.656L13.1401 13.571C13.1086 13.6202 13.0594 13.6555 13.0027 13.6696C12.946 13.6837 12.8861 13.6756 12.8351 13.647C12.4281 13.414 11.8351 13.018 11.4091 12.592C10.9831 12.166 10.6111 11.6 10.4021 11.219C10.3762 11.1706 10.3687 11.1144 10.381 11.0609C10.3934 11.0074 10.4247 10.9602 10.4691 10.928L11.3931 10.242C11.525 10.1273 11.6101 9.9682 11.6322 9.79486C11.6543 9.62153 11.612 9.44611 11.5131 9.302C11.0651 8.646 10.5431 7.812 9.78612 7.259C9.68843 7.1882 9.57399 7.14406 9.45405 7.13091C9.33412 7.11776 9.21284 7.13606 9.10212 7.184C8.18212 7.578 7.38612 8.588 7.42412 9.627C7.44912 10.309 7.71612 12.24 9.73812 14.263Z" fill="#121415"/>
</svg>
