<svg width="429" height="333" viewBox="0 0 429 333" fill="none" xmlns="http://www.w3.org/2000/svg">
<g filter="url(#filter0_d_57_115046)">
<path d="M424.45 285.13H4V285.348H424.45V285.13Z" fill="#EBEBEB"/>
<path d="M382.319 299.144H354.469V299.362H382.319V299.144Z" fill="#EBEBEB"/>
<path d="M282.518 301.514H275.211V301.732H282.518V301.514Z" fill="#EBEBEB"/>
<path d="M353.629 291.064H337.492V291.281H353.629V291.064Z" fill="#EBEBEB"/>
<path d="M84.4278 292.527H48.1094V292.745H84.4278V292.527Z" fill="#EBEBEB"/>
<path d="M97.2526 292.527H91.9297V292.745H97.2526V292.527Z" fill="#EBEBEB"/>
<path d="M193.33 296.203H114.555V296.42H193.33V296.203Z" fill="#EBEBEB"/>
<path d="M203.295 246.29H40.9259C39.654 246.287 38.4348 245.762 37.5362 244.83C36.6375 243.898 36.1328 242.634 36.1328 241.317V4.92928C36.1439 3.61947 36.6535 2.36708 37.5509 1.44414C38.4484 0.521195 39.6612 0.00224377 40.9259 0H203.295C204.569 0 205.79 0.523921 206.69 1.45651C207.591 2.38909 208.097 3.65395 208.097 4.97282V241.317C208.097 242.636 207.591 243.901 206.69 244.833C205.79 245.766 204.569 246.29 203.295 246.29ZM40.9259 0.17418C39.7097 0.176487 38.544 0.678485 37.6848 1.56999C36.8256 2.46149 36.343 3.66965 36.343 4.92928V241.317C36.343 242.576 36.8256 243.785 37.6848 244.676C38.544 245.568 39.7097 246.07 40.9259 246.072H203.295C204.512 246.07 205.679 245.568 206.539 244.677C207.4 243.785 207.884 242.577 207.887 241.317V4.92928C207.884 3.66885 207.4 2.46071 206.539 1.56946C205.679 0.678202 204.512 0.176482 203.295 0.17418H40.9259Z" fill="#EBEBEB"/>
<path d="M385.195 246.29H222.817C221.544 246.287 220.324 245.763 219.424 244.831C218.524 243.898 218.018 242.635 218.016 241.317V4.92928C218.029 3.61867 218.54 2.36629 219.439 1.44359C220.338 0.520891 221.552 0.0022193 222.817 0H385.195C386.458 0.00453258 387.669 0.524497 388.564 1.44719C389.46 2.36989 389.969 3.62097 389.98 4.92928V241.317C389.98 242.633 389.476 243.895 388.579 244.827C387.682 245.759 386.465 246.285 385.195 246.29ZM222.817 0.17418C221.6 0.176482 220.434 0.678202 219.573 1.56946C218.713 2.46071 218.228 3.66885 218.226 4.92928V241.317C218.228 242.577 218.713 243.785 219.573 244.677C220.434 245.568 221.6 246.07 222.817 246.072H385.195C386.412 246.07 387.578 245.568 388.439 244.677C389.3 243.785 389.784 242.577 389.786 241.317V4.92928C389.784 3.66885 389.3 2.46071 388.439 1.56946C387.578 0.678202 386.412 0.176482 385.195 0.17418H222.817Z" fill="#EBEBEB"/>
<path d="M207.782 103.534H88.3906V284.829H207.782V103.534Z" fill="#F0F0F0"/>
<path d="M203.566 109.236H92.6094V142.722H203.566V109.236Z" fill="#E0E0E0"/>
<path d="M98.9161 114.652H92.6094V142.713H98.9161V114.652Z" fill="#EBEBEB"/>
<path d="M129.393 114.652H123.086V142.713H129.393V114.652Z" fill="#EBEBEB"/>
<path d="M163.989 113.949L157.773 115.059L162.376 142.711L168.591 141.602L163.989 113.949Z" fill="#EBEBEB"/>
<path d="M106.729 118.354H100.422V142.721H106.729V118.354Z" fill="#EBEBEB"/>
<path d="M121.205 118.354H114.898V142.721H121.205V118.354Z" fill="#EBEBEB"/>
<path d="M157.783 118.354H151.477V142.721H157.783V118.354Z" fill="#EBEBEB"/>
<path d="M137.68 117.509L131.523 118.926L136.628 142.714L142.784 141.297L137.68 117.509Z" fill="#EBEBEB"/>
<path d="M112.177 113.26H109.023V142.713H112.177V113.26Z" fill="#EBEBEB"/>
<path d="M149.661 113.26H146.508V142.713H149.661V113.26Z" fill="#EBEBEB"/>
<path d="M92.6136 181.51H203.57V148.025H92.6136V181.51Z" fill="#E0E0E0"/>
<path d="M197.256 181.505H203.562V153.445H197.256V181.505Z" fill="#EBEBEB"/>
<path d="M166.779 181.505H173.086V153.445H166.779V181.505Z" fill="#EBEBEB"/>
<path d="M127.59 180.389L133.805 181.498L138.407 153.846L132.192 152.736L127.59 180.389Z" fill="#EBEBEB"/>
<path d="M189.435 181.51H195.742V157.143H189.435V181.51Z" fill="#EBEBEB"/>
<path d="M174.967 181.51H181.273V157.143H174.967V181.51Z" fill="#EBEBEB"/>
<path d="M138.396 181.51H144.703V157.143H138.396V181.51Z" fill="#EBEBEB"/>
<path d="M153.414 180.088L159.57 181.505L164.675 157.718L158.518 156.301L153.414 180.088Z" fill="#EBEBEB"/>
<path d="M183.995 181.505H187.148V152.051H183.995V181.505Z" fill="#EBEBEB"/>
<path d="M146.511 181.505H149.664V152.051H146.511V181.505Z" fill="#EBEBEB"/>
<path d="M98.9161 153.445H92.6094V181.505H98.9161V153.445Z" fill="#EBEBEB"/>
<path d="M106.729 157.135H100.422V181.502H106.729V157.135Z" fill="#EBEBEB"/>
<path d="M121.205 157.135H114.898V181.502H121.205V157.135Z" fill="#EBEBEB"/>
<path d="M112.177 152.05H109.023V181.504H112.177V152.05Z" fill="#EBEBEB"/>
<path d="M203.566 186.808H92.6094V220.294H203.566V186.808Z" fill="#E0E0E0"/>
<path d="M162.604 192.224H156.297V220.284H162.604V192.224Z" fill="#EBEBEB"/>
<path d="M197.199 191.517L190.984 192.627L195.587 220.279L201.802 219.17L197.199 191.517Z" fill="#EBEBEB"/>
<path d="M139.932 195.925H133.625V220.293H139.932V195.925Z" fill="#EBEBEB"/>
<path d="M154.416 195.925H148.109V220.293H154.416V195.925Z" fill="#EBEBEB"/>
<path d="M190.986 195.925H184.68V220.293H190.986V195.925Z" fill="#EBEBEB"/>
<path d="M170.891 195.081L164.734 196.499L169.839 220.286L175.995 218.869L170.891 195.081Z" fill="#EBEBEB"/>
<path d="M145.38 190.832H142.227V220.285H145.38V190.832Z" fill="#EBEBEB"/>
<path d="M182.872 190.832H179.719V220.285H182.872V190.832Z" fill="#EBEBEB"/>
<path d="M124.692 191.525L118.477 192.634L123.079 220.287L129.294 219.177L124.692 191.525Z" fill="#EBEBEB"/>
<path d="M118.471 195.925H112.164V220.293H118.471V195.925Z" fill="#EBEBEB"/>
<path d="M98.3753 195.081L92.2188 196.499L97.3233 220.286L103.48 218.869L98.3753 195.081Z" fill="#EBEBEB"/>
<path d="M110.356 190.832H107.203V220.285H110.356V190.832Z" fill="#EBEBEB"/>
<path d="M67.7886 285.299H88.3906L88.3906 103.534H67.7886L67.7886 285.299Z" fill="#E0E0E0"/>
<path d="M277.655 280.552H260.156L269.356 202.92C269.576 201.298 270.346 199.81 271.527 198.72C272.708 197.631 274.224 197.011 275.805 196.972H352.125L340.933 280.517L277.655 280.552Z" fill="#F5F5F5"/>
<path d="M333.156 280.55H350.655L359.863 202.918C359.976 202.172 359.928 201.409 359.725 200.684C359.521 199.958 359.166 199.288 358.684 198.721C358.203 198.154 357.607 197.703 356.939 197.4C356.271 197.097 355.547 196.95 354.818 196.97H348.805C347.227 197.02 345.716 197.643 344.537 198.73C343.358 199.818 342.586 201.3 342.356 202.918L333.156 280.55Z" fill="#F0F0F0"/>
<path d="M326.721 280.429L329.891 242.893C329.958 242.079 330.292 241.313 330.839 240.723C331.385 240.134 332.11 239.756 332.893 239.653L334.196 239.479C335.249 239.343 336.223 238.835 336.957 238.042C337.69 237.249 338.138 236.219 338.224 235.125L338.805 228.279C338.862 227.616 338.785 226.947 338.579 226.316C338.373 225.685 338.042 225.105 337.608 224.613C337.174 224.122 336.645 223.729 336.056 223.461C335.468 223.192 334.831 223.054 334.188 223.054H363.435C364.078 223.054 364.714 223.192 365.303 223.461C365.892 223.729 366.42 224.122 366.854 224.613C367.289 225.105 367.619 225.685 367.825 226.316C368.031 226.947 368.108 227.616 368.051 228.279L367.471 235.125C367.384 236.219 366.937 237.249 366.203 238.042C365.47 238.835 364.495 239.343 363.443 239.479L362.14 239.653C361.357 239.757 360.633 240.136 360.087 240.725C359.541 241.314 359.206 242.079 359.138 242.893L355.967 280.429C355.854 281.748 355.268 282.975 354.325 283.87C353.382 284.764 352.15 285.261 350.871 285.262H321.625C322.904 285.261 324.136 284.764 325.079 283.87C326.022 282.975 326.607 281.748 326.721 280.429Z" fill="#E6E6E6"/>
<path d="M246.224 233.532C245.992 230.683 244.735 228.027 242.703 226.092C240.671 224.156 238.011 223.082 235.25 223.081H260.712C263.466 223.093 266.116 224.172 268.139 226.107C270.162 228.041 271.413 230.69 271.644 233.532L274.167 263.282H248.738L246.224 233.532Z" fill="#E6E6E6"/>
<path d="M223.95 223.117H235.252C238.013 223.118 240.673 224.193 242.705 226.128C244.737 228.063 245.994 230.719 246.226 233.568L248.748 263.318H309.394L311.917 233.568C312.146 230.725 313.396 228.075 315.42 226.14C317.444 224.206 320.094 223.127 322.849 223.117H334.159C334.802 223.117 335.438 223.255 336.027 223.524C336.616 223.792 337.144 224.185 337.579 224.676C338.013 225.168 338.344 225.748 338.55 226.379C338.756 227.01 338.832 227.679 338.775 228.343L338.195 235.188C338.109 236.282 337.661 237.313 336.927 238.106C336.194 238.899 335.219 239.406 334.167 239.542L332.864 239.716C332.081 239.819 331.356 240.197 330.809 240.786C330.263 241.376 329.929 242.142 329.862 242.956L326.725 280.431C326.612 281.75 326.026 282.977 325.083 283.872C324.14 284.766 322.908 285.263 321.629 285.264H236.513C235.235 285.263 234.003 284.766 233.06 283.872C232.117 282.977 231.531 281.75 231.418 280.431L228.247 242.895C228.177 242.082 227.842 241.318 227.296 240.729C226.75 240.14 226.027 239.761 225.245 239.656L223.942 239.481C222.889 239.344 221.914 238.836 221.18 238.044C220.445 237.251 219.995 236.222 219.906 235.127L219.334 228.282C219.285 227.623 219.368 226.961 219.578 226.337C219.788 225.713 220.12 225.141 220.554 224.656C220.987 224.171 221.512 223.784 222.097 223.519C222.681 223.255 223.312 223.118 223.95 223.117Z" fill="#F0F0F0"/>
<path d="M89.9091 94.4738C89.9091 94.4738 88.9757 88.1075 93.4577 84.023C97.9397 79.9385 97.5444 77.5174 96.2579 77.2039C94.9713 76.8904 93.8024 80.9662 91.8347 82.0897C91.8347 82.0897 91.7675 76.2721 93.7688 74.1384C95.7701 72.0047 96.8213 66.4745 94.9124 66.3787C93.0036 66.2829 92.8186 69.6532 92.3897 72.0482C91.9609 74.4432 89.867 77.8048 89.867 77.8048C89.867 77.8048 89.455 72.5795 88.1852 70.4632C86.9155 68.3469 90.3379 63.4263 89.0261 61.2926C87.7143 59.1589 85.3346 63.226 85.528 67.8157C85.7214 72.4053 88.6814 77.2997 87.9918 82.0897C87.9918 82.0897 86.6884 78.7193 85.5196 78.4145C84.3507 78.1097 83.1651 75.8889 82.383 75.0615C81.601 74.2342 80.6087 77.0907 82.383 79.7382C84.1573 82.3858 88.6814 89.4836 87.9918 95.2141L89.9091 94.4738Z" fill="#E6E6E6"/>
<path d="M92.5796 91.575L94.0511 101.111C94.1569 101.804 94.1164 102.512 93.9326 103.186C93.7488 103.861 93.4261 104.486 92.9865 105.019C92.5469 105.552 92.001 105.98 91.3864 106.274C90.7718 106.568 90.103 106.72 89.4262 106.72H87.8621C87.1853 106.72 86.5165 106.568 85.9019 106.274C85.2873 105.98 84.7414 105.552 84.3018 105.019C83.8623 104.486 83.5395 103.861 83.3557 103.186C83.1719 102.512 83.1315 101.804 83.2372 101.111L84.7256 91.575H92.5796Z" fill="#E6E6E6"/>
<path d="M180.629 104.858H185.195V84.5227H180.629V104.858Z" fill="#EBEBEB"/>
<path d="M158.551 104.858H163.117V84.5227H158.551V104.858Z" fill="#EBEBEB"/>
<path d="M130.149 104.048L134.648 104.851L137.984 84.8109L133.484 84.0076L130.149 104.048Z" fill="#EBEBEB"/>
<path d="M174.973 104.847H179.539V87.1941H174.973V104.847Z" fill="#EBEBEB"/>
<path d="M164.481 104.847H169.047V87.1941H164.481V104.847Z" fill="#EBEBEB"/>
<path d="M137.973 104.847H142.539V87.1941H137.973V104.847Z" fill="#EBEBEB"/>
<path d="M148.855 103.821L153.312 104.847L157.01 87.6146L152.553 86.5886L148.855 103.821Z" fill="#EBEBEB"/>
<path d="M171.025 104.858H173.312V83.5125H171.025V104.858Z" fill="#EBEBEB"/>
<path d="M143.853 104.858H146.141V83.5125H143.853V104.858Z" fill="#EBEBEB"/>
<path d="M127.563 88.7097H105.305V104.621H127.563V88.7097Z" fill="#EBEBEB"/>
<path d="M203.908 95.2236H185.266V107.103H203.908V95.2236Z" fill="#EBEBEB"/>
<path d="M199.552 84.782H190.227V96.661H199.552V84.782Z" fill="#EBEBEB"/>
<path d="M355.331 69.0618H333.156V164.756H355.331V69.0618Z" fill="#E0E0E0"/>
<path d="M270.024 165.02H352.953V69.0728L270.024 69.0728V165.02Z" fill="#E0E0E0"/>
<path d="M267.35 165.02H353.391V69.0728L267.35 69.0728V165.02Z" fill="#F0F0F0"/>
<path d="M271.041 160.602H349.867V72.1189L271.041 72.1189V160.602Z" fill="white"/>
<path d="M271.029 160.602H272.492V72.1189H271.029V160.602Z" fill="#E0E0E0"/>
<path d="M272.258 135.755V138.141H350.075V135.755H272.258Z" fill="#E0E0E0"/>
<path d="M271.032 135.746H351.094V131.74H271.032V135.746Z" fill="#F0F0F0"/>
<path d="M214.222 324.461C304.267 324.461 377.264 320.048 377.264 314.603C377.264 309.158 304.267 304.744 214.222 304.744C124.176 304.744 51.1797 309.158 51.1797 314.603C51.1797 320.048 124.176 324.461 214.222 324.461Z" fill="#F5F5F5"/>
<path d="M274.726 85.1914H124.28C120.881 85.1914 118.125 88.0456 118.125 91.5664V275.029C118.125 278.55 120.881 281.404 124.28 281.404H274.726C278.125 281.404 280.881 278.55 280.881 275.029V91.5664C280.881 88.0456 278.125 85.1914 274.726 85.1914Z" fill="#407BFF"/>
<path opacity="0.6" d="M274.726 85.1914H124.28C120.881 85.1914 118.125 88.0456 118.125 91.5664V275.029C118.125 278.55 120.881 281.404 124.28 281.404H274.726C278.125 281.404 280.881 278.55 280.881 275.029V91.5664C280.881 88.0456 278.125 85.1914 274.726 85.1914Z" fill="white"/>
<path d="M254.516 175.181H144.492V194.689H254.516V175.181Z" fill="white"/>
<g opacity="0.4">
<path d="M154.333 186.833V187.347H150.516V181.756H154.216V182.261H151.087V184.255H153.879V184.752H151.087V186.833H154.333Z" fill="#263238"/>
<path d="M155.094 184.935H157.12V185.423H155.094V184.935Z" fill="#263238"/>
<path d="M165.037 184.909V187.348H164.491V184.962C164.491 184.091 164.062 183.62 163.33 183.62C163.141 183.611 162.951 183.645 162.776 183.72C162.6 183.794 162.442 183.908 162.313 184.052C162.184 184.196 162.087 184.368 162.029 184.555C161.971 184.743 161.953 184.941 161.976 185.136V187.348H161.421V184.962C161.421 184.091 160.993 183.62 160.253 183.62C160.063 183.611 159.874 183.645 159.698 183.72C159.522 183.794 159.364 183.908 159.235 184.052C159.106 184.196 159.01 184.368 158.951 184.555C158.893 184.743 158.875 184.941 158.899 185.136V187.348H158.344V183.142H158.874V183.908C159.032 183.651 159.253 183.442 159.514 183.301C159.776 183.161 160.068 183.094 160.362 183.107C160.659 183.081 160.957 183.15 161.214 183.306C161.471 183.462 161.676 183.697 161.8 183.978C161.968 183.697 162.206 183.468 162.488 183.315C162.771 183.162 163.088 183.09 163.406 183.107C163.634 183.089 163.863 183.124 164.077 183.21C164.29 183.296 164.482 183.43 164.639 183.603C164.795 183.776 164.912 183.983 164.981 184.209C165.05 184.435 165.069 184.675 165.037 184.909Z" fill="#263238"/>
<path d="M169.601 184.734V187.346H169.071V186.685C168.921 186.92 168.712 187.109 168.466 187.232C168.22 187.355 167.947 187.406 167.675 187.381C166.759 187.381 166.195 186.885 166.195 186.162C166.195 185.439 166.599 184.969 167.759 184.969H169.046V184.716C169.046 183.994 168.659 183.602 167.902 183.602C167.409 183.596 166.929 183.772 166.548 184.098L166.305 183.68C166.78 183.284 167.377 183.08 167.986 183.105C168.201 183.078 168.419 183.101 168.624 183.173C168.829 183.245 169.015 183.363 169.17 183.519C169.325 183.675 169.444 183.866 169.519 184.076C169.593 184.286 169.621 184.511 169.601 184.734ZM169.046 186.084V185.396H167.776C166.994 185.396 166.733 185.709 166.733 186.145C166.733 186.58 167.112 186.937 167.759 186.937C168.034 186.956 168.307 186.883 168.538 186.73C168.77 186.576 168.948 186.35 169.046 186.084Z" fill="#263238"/>
<path d="M170.961 181.817C170.962 181.764 170.973 181.711 170.994 181.661C171.015 181.612 171.045 181.568 171.083 181.531C171.12 181.493 171.164 181.464 171.213 181.445C171.261 181.425 171.313 181.416 171.365 181.417C171.415 181.416 171.466 181.425 171.513 181.444C171.561 181.463 171.604 181.492 171.641 181.528C171.677 181.564 171.707 181.608 171.727 181.656C171.748 181.704 171.759 181.756 171.76 181.809C171.761 181.863 171.752 181.917 171.732 181.968C171.713 182.019 171.684 182.065 171.647 182.104C171.61 182.143 171.566 182.174 171.518 182.195C171.469 182.216 171.417 182.227 171.365 182.227C171.312 182.228 171.26 182.218 171.211 182.198C171.162 182.178 171.117 182.148 171.08 182.11C171.042 182.072 171.012 182.026 170.992 181.976C170.971 181.926 170.961 181.872 170.961 181.817ZM171.087 183.141H171.634V187.348H171.087V183.141Z" fill="#263238"/>
<path d="M173.148 181.417H173.695V187.348H173.148V181.417Z" fill="#263238"/>
</g>
<path d="M254.516 201.829H144.492V221.337H254.516V201.829Z" fill="white"/>
<g opacity="0.4">
<path d="M154.737 210.348C154.737 211.541 153.896 212.264 152.534 212.264H151.087V214.006H150.516V208.415H152.534C153.904 208.432 154.737 209.155 154.737 210.348ZM154.165 210.348C154.165 209.477 153.602 208.946 152.483 208.946H151.054V211.742H152.483C153.602 211.742 154.165 211.228 154.165 210.348Z" fill="#263238"/>
<path d="M158.882 211.422V214.035H158.352V213.373C158.202 213.608 157.993 213.798 157.747 213.92C157.501 214.043 157.228 214.094 156.957 214.07C156.04 214.07 155.477 213.573 155.477 212.842C155.477 212.11 155.88 211.631 157.041 211.631H158.327V211.37C158.327 210.656 157.932 210.264 157.175 210.264C156.684 210.257 156.206 210.433 155.83 210.76L155.577 210.333C156.057 209.946 156.652 209.746 157.259 209.767C157.477 209.738 157.698 209.761 157.906 209.833C158.114 209.905 158.303 210.026 158.46 210.185C158.616 210.345 158.735 210.539 158.809 210.753C158.882 210.968 158.907 211.196 158.882 211.422ZM158.336 212.763V212.075H157.041C156.259 212.075 156.006 212.397 156.006 212.833C156.006 213.268 156.376 213.617 157.032 213.617C157.309 213.638 157.585 213.566 157.82 213.413C158.055 213.259 158.235 213.031 158.336 212.763Z" fill="#263238"/>
<path d="M159.812 213.546L160.056 213.102C160.481 213.409 160.985 213.573 161.503 213.573C162.268 213.573 162.587 213.303 162.587 212.885C162.587 211.787 159.955 212.649 159.955 210.995C159.955 210.307 160.527 209.793 161.562 209.793C162.066 209.788 162.563 209.923 163 210.185L162.756 210.638C162.402 210.396 161.985 210.271 161.562 210.281C160.83 210.281 160.502 210.577 160.502 210.977C160.502 212.109 163.134 211.256 163.134 212.867C163.134 213.599 162.52 214.069 161.452 214.069C160.865 214.085 160.289 213.901 159.812 213.546Z" fill="#263238"/>
<path d="M163.57 213.547L163.823 213.102C164.242 213.413 164.745 213.577 165.261 213.573C166.034 213.573 166.345 213.303 166.345 212.885C166.345 211.787 163.722 212.649 163.722 210.995C163.722 210.307 164.293 209.793 165.319 209.793C165.824 209.786 166.321 209.922 166.757 210.185L166.522 210.638C166.165 210.397 165.746 210.272 165.319 210.281C164.588 210.281 164.268 210.577 164.268 210.977C164.268 212.11 166.9 211.256 166.9 212.867C166.9 213.599 166.278 214.069 165.218 214.069C164.629 214.084 164.051 213.9 163.57 213.547Z" fill="#263238"/>
<path d="M173.784 209.827L172.254 214.025H171.741L170.496 210.585L169.218 214.025H168.705L167.133 209.827H167.654L168.932 213.398L170.236 209.827H170.707L172.002 213.398L173.288 209.827H173.784Z" fill="#263238"/>
<path d="M174.087 211.926C174.087 211.503 174.208 211.088 174.436 210.736C174.663 210.384 174.986 210.109 175.364 209.947C175.742 209.785 176.158 209.742 176.559 209.825C176.961 209.908 177.329 210.112 177.618 210.411C177.908 210.711 178.105 211.093 178.185 211.508C178.264 211.924 178.223 212.355 178.067 212.746C177.91 213.138 177.645 213.472 177.305 213.708C176.965 213.943 176.565 214.069 176.156 214.069C175.882 214.078 175.608 214.03 175.353 213.925C175.098 213.821 174.866 213.664 174.672 213.463C174.478 213.262 174.326 213.022 174.225 212.758C174.125 212.493 174.078 212.21 174.087 211.926ZM177.661 211.926C177.648 211.619 177.548 211.323 177.373 211.074C177.199 210.826 176.957 210.636 176.679 210.528C176.402 210.42 176.099 210.399 175.81 210.468C175.521 210.537 175.257 210.692 175.053 210.915C174.848 211.138 174.711 211.418 174.659 211.72C174.607 212.023 174.641 212.335 174.759 212.617C174.877 212.899 175.072 213.139 175.32 213.308C175.568 213.476 175.859 213.565 176.156 213.564C176.361 213.568 176.565 213.528 176.754 213.446C176.944 213.364 177.115 213.242 177.256 213.088C177.398 212.934 177.507 212.751 177.577 212.551C177.646 212.351 177.675 212.138 177.661 211.926Z" fill="#263238"/>
<path d="M181.379 209.792V210.341H181.245C181.052 210.331 180.86 210.366 180.682 210.442C180.504 210.518 180.345 210.633 180.215 210.78C180.084 210.928 179.987 211.103 179.93 211.293C179.873 211.483 179.856 211.685 179.883 211.882V214.025H179.336V209.827H179.857V210.646C179.999 210.362 180.22 210.128 180.491 209.976C180.763 209.824 181.072 209.76 181.379 209.792Z" fill="#263238"/>
<path d="M186.022 208.146V214.068H185.501V213.241C185.338 213.516 185.107 213.742 184.832 213.895C184.557 214.048 184.249 214.123 183.937 214.112C183.412 214.077 182.92 213.837 182.56 213.44C182.2 213.043 182 212.518 182 211.974C182 211.429 182.2 210.905 182.56 210.508C182.92 210.111 183.412 209.87 183.937 209.836C184.244 209.829 184.549 209.905 184.819 210.058C185.089 210.211 185.315 210.435 185.476 210.707V208.146H186.022ZM185.484 211.969C185.471 211.662 185.371 211.366 185.196 211.117C185.022 210.869 184.781 210.679 184.503 210.571C184.225 210.463 183.922 210.443 183.633 210.511C183.344 210.58 183.08 210.736 182.876 210.958C182.671 211.181 182.534 211.461 182.482 211.763C182.43 212.066 182.465 212.378 182.582 212.66C182.7 212.942 182.895 213.183 183.143 213.351C183.391 213.519 183.682 213.608 183.979 213.607C184.188 213.611 184.396 213.57 184.588 213.486C184.781 213.401 184.954 213.275 185.096 213.117C185.238 212.958 185.346 212.77 185.413 212.564C185.48 212.359 185.504 212.142 185.484 211.926V211.969Z" fill="#263238"/>
</g>
<path opacity="0.2" d="M254.516 241.238H144.492V260.746H254.516V241.238Z" fill="black"/>
<g opacity="0.5">
<path d="M171.258 232.277H169.459L169.072 233.148H168.719L170.19 229.813H170.527L171.998 233.148H171.645L171.258 232.277ZM171.132 231.99L170.359 230.196L169.585 231.99H171.132Z" fill="black"/>
<path d="M172.469 229.628H172.797V233.164H172.469V229.628Z" fill="black"/>
<path d="M174.933 230.641V230.972H174.849C174.731 230.961 174.613 230.978 174.503 231.022C174.393 231.065 174.294 231.134 174.213 231.223C174.132 231.311 174.071 231.418 174.036 231.534C174 231.651 173.991 231.774 174.008 231.895V233.175H173.68V230.667H173.999V231.154C174.084 230.979 174.219 230.835 174.386 230.742C174.554 230.65 174.745 230.615 174.933 230.641Z" fill="black"/>
<path d="M177.608 232.014H175.548C175.555 232.136 175.584 232.256 175.636 232.366C175.687 232.476 175.759 232.574 175.848 232.655C175.936 232.736 176.039 232.799 176.151 232.838C176.262 232.877 176.381 232.893 176.498 232.885C176.638 232.89 176.777 232.864 176.906 232.808C177.036 232.753 177.152 232.669 177.247 232.563L177.423 232.781C177.25 232.97 177.026 233.101 176.78 233.159C176.534 233.217 176.277 233.198 176.042 233.105C175.807 233.011 175.603 232.848 175.457 232.636C175.31 232.423 175.228 232.171 175.22 231.91C175.212 231.744 175.237 231.579 175.293 231.424C175.349 231.269 175.436 231.127 175.547 231.008C175.658 230.889 175.792 230.794 175.939 230.731C176.087 230.667 176.246 230.636 176.406 230.638C176.566 230.634 176.725 230.665 176.873 230.728C177.021 230.791 177.154 230.886 177.265 231.005C177.376 231.125 177.461 231.267 177.516 231.423C177.571 231.579 177.594 231.744 177.583 231.91C177.583 231.91 177.608 231.979 177.608 232.014ZM175.582 231.762H177.264C177.264 231.531 177.175 231.309 177.017 231.146C176.86 230.983 176.646 230.891 176.423 230.891C176.2 230.891 175.986 230.983 175.828 231.146C175.67 231.309 175.582 231.531 175.582 231.762Z" fill="black"/>
<path d="M180.046 231.659V233.209H179.76V232.817C179.671 232.96 179.545 233.075 179.396 233.149C179.248 233.223 179.083 233.252 178.919 233.235C178.372 233.235 178.078 232.939 178.078 232.503C178.078 232.068 178.314 231.789 179.012 231.789H179.76V231.641C179.76 231.214 179.524 230.979 179.07 230.979C178.764 230.968 178.465 231.073 178.229 231.275L178.087 231.023C178.365 230.792 178.714 230.672 179.07 230.683C179.201 230.66 179.334 230.669 179.46 230.709C179.586 230.75 179.702 230.82 179.797 230.915C179.892 231.01 179.964 231.127 180.007 231.256C180.05 231.385 180.064 231.523 180.046 231.659ZM179.726 232.46V232.042H178.961C178.49 232.042 178.339 232.233 178.339 232.495C178.339 232.756 178.566 232.965 178.953 232.965C179.127 232.979 179.301 232.932 179.447 232.833C179.593 232.734 179.703 232.587 179.76 232.416L179.726 232.46Z" fill="black"/>
<path d="M183.121 229.628V233.164H182.81V232.667C182.714 232.833 182.577 232.97 182.413 233.062C182.248 233.154 182.063 233.198 181.876 233.19C181.567 233.163 181.279 233.017 181.069 232.781C180.859 232.545 180.742 232.235 180.742 231.914C180.742 231.593 180.859 231.283 181.069 231.047C181.279 230.81 181.567 230.664 181.876 230.638C182.059 230.633 182.239 230.676 182.401 230.762C182.563 230.849 182.7 230.977 182.801 231.134V229.628H183.121ZM182.801 231.909C182.793 231.727 182.734 231.552 182.63 231.404C182.526 231.257 182.383 231.144 182.218 231.08C182.053 231.016 181.873 231.004 181.702 231.045C181.53 231.085 181.374 231.177 181.252 231.309C181.13 231.441 181.049 231.607 181.017 231.787C180.986 231.966 181.006 232.151 181.075 232.319C181.144 232.487 181.26 232.63 181.406 232.73C181.553 232.831 181.726 232.885 181.902 232.885C182.027 232.893 182.152 232.873 182.27 232.826C182.387 232.78 182.493 232.708 182.581 232.616C182.67 232.523 182.738 232.413 182.782 232.291C182.825 232.169 182.844 232.039 182.835 231.909H182.801Z" fill="black"/>
<path d="M186.101 230.658L184.89 233.471C184.689 233.959 184.428 234.115 184.05 234.115C183.832 234.121 183.622 234.04 183.461 233.889L183.612 233.636C183.73 233.759 183.891 233.828 184.058 233.828C184.277 233.828 184.42 233.724 184.563 233.401L184.663 233.166L183.579 230.658H183.957L184.874 232.792L185.782 230.658H186.101Z" fill="black"/>
<path d="M189.595 231.659V233.209H189.283V232.817C189.194 232.96 189.068 233.075 188.92 233.149C188.771 233.223 188.606 233.252 188.442 233.235C187.896 233.235 187.602 232.939 187.602 232.503C187.602 232.068 187.837 231.789 188.535 231.789H189.3V231.641C189.3 231.214 189.073 230.979 188.619 230.979C188.313 230.968 188.014 231.073 187.778 231.275L187.627 231.023C187.909 230.793 188.26 230.672 188.619 230.683C188.749 230.66 188.883 230.669 189.009 230.709C189.135 230.75 189.25 230.82 189.345 230.915C189.44 231.01 189.512 231.127 189.556 231.256C189.599 231.385 189.612 231.523 189.595 231.659ZM189.267 232.46V232.042H188.51C188.039 232.042 187.887 232.233 187.887 232.495C187.887 232.756 188.115 232.965 188.501 232.965C188.669 232.972 188.834 232.922 188.973 232.823C189.111 232.724 189.214 232.581 189.267 232.416V232.46Z" fill="black"/>
<path d="M195.733 231.711V233.166H195.413V231.746C195.413 231.215 195.153 230.945 194.715 230.945C194.603 230.936 194.489 230.952 194.383 230.992C194.277 231.033 194.181 231.097 194.101 231.18C194.021 231.262 193.96 231.362 193.92 231.472C193.881 231.582 193.866 231.699 193.874 231.816V233.131H193.555V231.746C193.555 231.215 193.294 230.945 192.849 230.945C192.736 230.936 192.623 230.952 192.517 230.992C192.411 231.033 192.314 231.097 192.234 231.18C192.154 231.262 192.093 231.362 192.054 231.472C192.014 231.582 191.999 231.699 192.008 231.816V233.131H191.68V230.623H191.991V231.084C192.084 230.928 192.215 230.801 192.372 230.717C192.529 230.632 192.706 230.594 192.882 230.605C193.058 230.591 193.235 230.635 193.386 230.73C193.537 230.825 193.655 230.968 193.723 231.136C193.821 230.966 193.962 230.826 194.131 230.733C194.3 230.639 194.49 230.595 194.682 230.605C194.827 230.578 194.976 230.589 195.117 230.635C195.258 230.681 195.385 230.762 195.489 230.871C195.592 230.98 195.669 231.114 195.711 231.26C195.754 231.406 195.761 231.561 195.733 231.711Z" fill="black"/>
<path d="M198.706 232.016H196.68C196.697 232.262 196.807 232.492 196.987 232.655C197.166 232.818 197.4 232.901 197.638 232.887C197.777 232.892 197.915 232.866 198.043 232.811C198.171 232.755 198.285 232.671 198.378 232.565L198.563 232.782C198.445 232.916 198.301 233.022 198.14 233.092C197.979 233.163 197.805 233.197 197.63 233.192C197.463 233.203 197.296 233.177 197.14 233.117C196.983 233.058 196.84 232.964 196.721 232.844C196.601 232.723 196.507 232.578 196.445 232.417C196.383 232.256 196.354 232.084 196.36 231.911C196.36 231.588 196.484 231.278 196.705 231.049C196.926 230.821 197.225 230.692 197.537 230.692C197.85 230.692 198.149 230.821 198.37 231.049C198.591 231.278 198.715 231.588 198.715 231.911C198.715 231.911 198.706 231.981 198.706 232.016ZM196.68 231.763H198.404C198.404 231.527 198.313 231.3 198.151 231.132C197.99 230.965 197.77 230.871 197.542 230.871C197.313 230.871 197.094 230.965 196.932 231.132C196.771 231.3 196.68 231.527 196.68 231.763Z" fill="black"/>
<path d="M203.373 231.711V233.166H203.046V231.746C203.046 231.215 202.793 230.945 202.356 230.945C202.243 230.934 202.129 230.949 202.022 230.989C201.916 231.029 201.819 231.093 201.738 231.176C201.658 231.259 201.597 231.36 201.558 231.47C201.519 231.581 201.505 231.699 201.515 231.816V233.131H201.187V231.746C201.187 231.215 200.935 230.945 200.489 230.945C200.376 230.934 200.262 230.949 200.156 230.989C200.049 231.029 199.952 231.093 199.872 231.176C199.791 231.259 199.73 231.36 199.691 231.47C199.653 231.581 199.638 231.699 199.648 231.816V233.131H199.32V230.623H199.631V231.084C199.723 230.928 199.855 230.8 200.012 230.716C200.17 230.631 200.346 230.593 200.523 230.605C200.699 230.591 200.875 230.635 201.026 230.73C201.177 230.825 201.295 230.968 201.364 231.136C201.462 230.966 201.603 230.826 201.772 230.733C201.941 230.639 202.131 230.595 202.322 230.605C202.468 230.578 202.617 230.589 202.758 230.635C202.898 230.681 203.026 230.762 203.129 230.871C203.233 230.98 203.309 231.114 203.352 231.26C203.394 231.406 203.402 231.561 203.373 231.711Z" fill="black"/>
<path d="M206.729 231.909C206.737 232.077 206.712 232.244 206.655 232.401C206.598 232.558 206.51 232.701 206.397 232.821C206.284 232.941 206.149 233.036 205.999 233.099C205.849 233.163 205.688 233.193 205.526 233.19C205.34 233.198 205.154 233.154 204.99 233.062C204.826 232.97 204.688 232.833 204.593 232.667V233.164H204.273V229.628H204.601V231.134C204.702 230.977 204.84 230.848 205.001 230.761C205.163 230.674 205.344 230.632 205.526 230.638C205.688 230.633 205.848 230.663 205.998 230.725C206.148 230.787 206.284 230.881 206.397 231.001C206.51 231.12 206.597 231.263 206.655 231.419C206.712 231.575 206.737 231.742 206.729 231.909ZM206.401 231.909C206.393 231.727 206.333 231.552 206.229 231.404C206.126 231.257 205.982 231.144 205.817 231.08C205.652 231.016 205.473 231.004 205.301 231.045C205.13 231.085 204.973 231.177 204.852 231.309C204.73 231.441 204.648 231.607 204.617 231.787C204.585 231.966 204.605 232.151 204.675 232.319C204.744 232.487 204.859 232.63 205.006 232.73C205.153 232.831 205.325 232.885 205.501 232.885C205.624 232.888 205.745 232.864 205.858 232.815C205.972 232.767 206.074 232.694 206.158 232.602C206.243 232.511 206.308 232.402 206.35 232.282C206.392 232.163 206.409 232.036 206.401 231.909Z" fill="black"/>
<path d="M209.512 232.014H207.502C207.508 232.137 207.538 232.256 207.589 232.366C207.641 232.476 207.713 232.575 207.801 232.656C207.89 232.737 207.993 232.799 208.104 232.838C208.216 232.878 208.334 232.894 208.452 232.885C208.592 232.885 208.73 232.853 208.856 232.791C208.983 232.73 209.095 232.64 209.184 232.528L209.369 232.746C209.195 232.935 208.971 233.067 208.725 233.124C208.479 233.182 208.223 233.163 207.987 233.07C207.752 232.977 207.548 232.814 207.402 232.601C207.256 232.389 207.174 232.136 207.166 231.875C207.157 231.71 207.182 231.544 207.238 231.389C207.295 231.234 207.381 231.092 207.492 230.973C207.603 230.854 207.737 230.76 207.885 230.696C208.032 230.632 208.191 230.601 208.351 230.604C208.511 230.6 208.67 230.63 208.817 230.693C208.965 230.757 209.098 230.851 209.208 230.971C209.318 231.091 209.403 231.233 209.456 231.389C209.51 231.545 209.532 231.71 209.52 231.875L209.512 232.014ZM207.485 231.762H209.167C209.167 231.531 209.078 231.309 208.921 231.146C208.763 230.983 208.549 230.891 208.326 230.891C208.103 230.891 207.889 230.983 207.731 231.146C207.574 231.309 207.485 231.531 207.485 231.762Z" fill="black"/>
<path d="M211.401 230.64V230.971H211.325C211.208 230.96 211.09 230.978 210.979 231.021C210.869 231.064 210.77 231.133 210.689 231.222C210.608 231.311 210.548 231.417 210.512 231.534C210.477 231.65 210.467 231.773 210.484 231.894V233.174H210.156V230.666H210.467V231.154C210.553 230.979 210.688 230.835 210.855 230.743C211.022 230.651 211.213 230.615 211.401 230.64Z" fill="black"/>
<path d="M213.523 230.684C213.523 230.335 213.254 230.1 212.783 230.1C212.617 230.091 212.452 230.12 212.299 230.186C212.146 230.253 212.01 230.354 211.9 230.483L211.656 230.292C211.8 230.124 211.978 229.993 212.177 229.907C212.377 229.821 212.593 229.783 212.808 229.795C213.456 229.795 213.868 230.118 213.868 230.666C213.868 231.476 213.027 231.537 213.027 232.199H212.682C212.682 231.38 213.523 231.302 213.523 230.684ZM212.615 232.939C212.625 232.881 212.655 232.829 212.699 232.792C212.743 232.754 212.798 232.733 212.855 232.733C212.911 232.733 212.966 232.754 213.01 232.792C213.054 232.829 213.084 232.881 213.094 232.939C213.101 232.976 213.1 233.013 213.091 233.049C213.082 233.085 213.065 233.119 213.042 233.147C213.019 233.176 212.991 233.199 212.958 233.215C212.926 233.23 212.89 233.239 212.855 233.239C212.819 233.239 212.783 233.23 212.751 233.215C212.718 233.199 212.69 233.176 212.667 233.147C212.644 233.119 212.627 233.085 212.618 233.049C212.609 233.013 212.608 232.976 212.615 232.939Z" fill="black"/>
<path d="M215.797 229.831H216.545V232.531H218.16V233.158H215.797V229.831Z" fill="black"/>
<path d="M218.339 231.886C218.322 231.604 218.387 231.323 218.526 231.08C218.665 230.836 218.872 230.642 219.119 230.522C219.366 230.402 219.642 230.361 219.911 230.405C220.181 230.449 220.431 230.576 220.63 230.77C220.829 230.963 220.968 231.214 221.027 231.49C221.087 231.765 221.066 232.053 220.965 232.316C220.865 232.579 220.691 232.805 220.466 232.964C220.24 233.123 219.974 233.209 219.701 233.209C219.526 233.221 219.351 233.196 219.186 233.135C219.021 233.074 218.87 232.978 218.742 232.854C218.614 232.73 218.513 232.58 218.443 232.413C218.374 232.247 218.338 232.067 218.339 231.886ZM220.331 231.886C220.322 231.759 220.277 231.638 220.202 231.538C220.127 231.438 220.025 231.362 219.909 231.321C219.793 231.279 219.669 231.273 219.55 231.304C219.431 231.335 219.323 231.401 219.24 231.494C219.157 231.587 219.102 231.703 219.081 231.828C219.061 231.954 219.076 232.082 219.124 232.198C219.173 232.315 219.254 232.414 219.356 232.484C219.459 232.553 219.578 232.591 219.701 232.591C219.788 232.593 219.875 232.575 219.956 232.54C220.037 232.504 220.109 232.451 220.169 232.385C220.228 232.318 220.273 232.239 220.301 232.153C220.33 232.067 220.34 231.976 220.331 231.886Z" fill="black"/>
<path d="M224.091 230.596V232.738C224.114 232.931 224.094 233.126 224.032 233.309C223.969 233.492 223.867 233.657 223.732 233.793C223.598 233.928 223.435 234.028 223.257 234.087C223.078 234.146 222.889 234.161 222.704 234.131C222.271 234.149 221.844 234.024 221.484 233.774L221.77 233.243C222.016 233.425 222.309 233.525 222.611 233.531C223.116 233.531 223.343 233.295 223.343 232.834V232.721C223.242 232.829 223.12 232.914 222.985 232.969C222.851 233.025 222.706 233.05 222.561 233.043C222.395 233.057 222.228 233.036 222.071 232.98C221.913 232.924 221.769 232.835 221.646 232.718C221.524 232.602 221.426 232.46 221.359 232.302C221.292 232.145 221.258 231.974 221.258 231.802C221.258 231.629 221.292 231.459 221.359 231.301C221.426 231.143 221.524 231.002 221.646 230.885C221.769 230.768 221.913 230.679 222.071 230.624C222.228 230.568 222.395 230.546 222.561 230.561C222.719 230.548 222.878 230.574 223.024 230.638C223.171 230.701 223.3 230.8 223.402 230.927V230.596H224.091ZM223.385 231.806C223.388 231.719 223.372 231.632 223.34 231.551C223.308 231.471 223.26 231.398 223.199 231.338C223.138 231.278 223.065 231.232 222.985 231.203C222.906 231.174 222.821 231.163 222.737 231.17C222.651 231.16 222.564 231.168 222.481 231.195C222.399 231.222 222.322 231.267 222.258 231.327C222.193 231.386 222.141 231.46 222.106 231.541C222.07 231.623 222.052 231.712 222.052 231.802C222.052 231.892 222.07 231.98 222.106 232.062C222.141 232.144 222.193 232.217 222.258 232.277C222.322 232.337 222.399 232.381 222.481 232.408C222.564 232.435 222.651 232.444 222.737 232.433C222.821 232.441 222.904 232.43 222.983 232.401C223.062 232.373 223.135 232.328 223.196 232.269C223.257 232.21 223.305 232.138 223.338 232.058C223.37 231.979 223.386 231.893 223.385 231.806Z" fill="black"/>
<path d="M226 229.83C226.001 229.772 226.013 229.715 226.037 229.661C226.06 229.608 226.094 229.561 226.135 229.521C226.177 229.482 226.226 229.452 226.28 229.434C226.333 229.415 226.39 229.408 226.446 229.412C226.501 229.406 226.556 229.412 226.609 229.429C226.662 229.447 226.711 229.475 226.753 229.512C226.794 229.55 226.828 229.596 226.852 229.648C226.876 229.7 226.889 229.756 226.891 229.813C226.891 229.935 226.844 230.053 226.761 230.139C226.677 230.226 226.564 230.275 226.446 230.275C226.327 230.275 226.214 230.226 226.131 230.139C226.047 230.053 226 229.935 226 229.813V229.83ZM226.084 230.597H226.799V233.21H226.084V230.597Z" fill="black"/>
<path d="M229.992 231.658V233.129H229.277V231.779C229.277 231.361 229.092 231.17 228.773 231.17C228.453 231.17 228.176 231.388 228.176 231.858V233.129H227.461V230.517H228.15V230.821C228.259 230.706 228.39 230.615 228.535 230.557C228.68 230.498 228.836 230.473 228.991 230.482C229.137 230.474 229.282 230.501 229.416 230.559C229.55 230.618 229.669 230.707 229.765 230.82C229.862 230.933 229.932 231.067 229.971 231.212C230.01 231.357 230.018 231.509 229.992 231.658Z" fill="black"/>
</g>
<path d="M254.516 240.043H144.492V259.551H254.516V240.043Z" fill="#407BFF"/>
<path d="M185.295 252.829L183.95 250.818H183.546H181.948V252.847H181.023V246.167H183.546C185.228 246.167 186.229 247.038 186.229 248.501C186.25 248.964 186.123 249.422 185.868 249.803C185.612 250.184 185.242 250.467 184.816 250.609L186.346 252.847L185.295 252.829ZM185.295 248.475C185.295 247.517 184.681 246.977 183.496 246.977H181.932V249.982H183.496C184.656 249.99 185.27 249.433 185.27 248.484L185.295 248.475Z" fill="white"/>
<path d="M191.957 250.612H187.996C188.059 251.043 188.274 251.434 188.601 251.708C188.928 251.982 189.342 252.119 189.762 252.092C190.026 252.102 190.289 252.053 190.533 251.947C190.777 251.842 190.996 251.684 191.175 251.483L191.663 252.075C191.303 252.453 190.845 252.716 190.345 252.832C189.844 252.947 189.322 252.911 188.841 252.727C188.36 252.543 187.94 252.22 187.632 251.795C187.324 251.37 187.141 250.863 187.105 250.333C187.087 249.991 187.138 249.649 187.255 249.329C187.371 249.008 187.55 248.716 187.781 248.47C188.011 248.225 188.289 248.032 188.595 247.903C188.901 247.774 189.23 247.712 189.56 247.72C189.889 247.711 190.216 247.773 190.52 247.903C190.825 248.032 191.099 248.226 191.327 248.472C191.554 248.718 191.729 249.011 191.841 249.332C191.952 249.652 191.997 249.993 191.974 250.333C191.974 250.411 191.965 250.525 191.957 250.612ZM187.996 249.95H191.124C191.084 249.549 190.902 249.178 190.613 248.909C190.324 248.639 189.949 248.49 189.56 248.49C189.171 248.49 188.796 248.639 188.507 248.909C188.219 249.178 188.036 249.549 187.996 249.95Z" fill="white"/>
<path d="M197.869 247.779V252.133C197.869 253.918 196.986 254.746 195.347 254.746C194.51 254.783 193.687 254.518 193.017 253.997L193.438 253.291C193.976 253.724 194.64 253.954 195.321 253.944C196.473 253.944 197.003 253.396 197.003 252.246V251.846C196.786 252.104 196.515 252.309 196.211 252.445C195.906 252.58 195.577 252.643 195.246 252.629C194.619 252.629 194.018 252.372 193.575 251.913C193.132 251.454 192.883 250.831 192.883 250.182C192.883 249.533 193.132 248.911 193.575 248.452C194.018 247.993 194.619 247.735 195.246 247.735C195.592 247.724 195.936 247.797 196.249 247.948C196.563 248.1 196.839 248.325 197.054 248.606V247.822L197.869 247.779ZM197.028 250.173C197.047 249.826 196.964 249.48 196.791 249.181C196.618 248.882 196.362 248.644 196.057 248.498C195.752 248.351 195.411 248.303 195.079 248.359C194.747 248.415 194.439 248.572 194.194 248.812C193.95 249.051 193.78 249.361 193.707 249.701C193.634 250.041 193.662 250.396 193.786 250.72C193.91 251.044 194.125 251.322 194.403 251.518C194.682 251.714 195.01 251.819 195.347 251.819C195.562 251.833 195.777 251.8 195.98 251.723C196.182 251.645 196.367 251.526 196.522 251.371C196.678 251.217 196.801 251.031 196.884 250.824C196.966 250.618 197.007 250.397 197.003 250.173H197.028Z" fill="white"/>
<path d="M199.406 246.212C199.407 246.132 199.424 246.053 199.454 245.979C199.485 245.906 199.529 245.839 199.585 245.783C199.64 245.728 199.706 245.684 199.777 245.654C199.849 245.625 199.926 245.61 200.003 245.611C200.085 245.601 200.167 245.609 200.246 245.634C200.324 245.659 200.396 245.702 200.458 245.758C200.519 245.814 200.568 245.884 200.602 245.961C200.636 246.039 200.653 246.123 200.653 246.208C200.653 246.293 200.636 246.377 200.602 246.454C200.568 246.532 200.519 246.601 200.458 246.657C200.396 246.714 200.324 246.756 200.246 246.781C200.167 246.807 200.085 246.814 200.003 246.804C199.926 246.807 199.85 246.793 199.778 246.764C199.706 246.736 199.641 246.693 199.585 246.637C199.53 246.582 199.485 246.516 199.454 246.443C199.424 246.37 199.407 246.292 199.406 246.212ZM199.566 247.78H200.449V252.831H199.566V247.78Z" fill="white"/>
<path d="M201.516 252.297L201.886 251.574C202.387 251.911 202.97 252.093 203.567 252.097C204.408 252.097 204.728 251.836 204.728 251.409C204.728 250.277 201.642 251.261 201.642 249.24C201.642 248.37 202.424 247.725 203.677 247.725C204.297 247.715 204.909 247.874 205.451 248.187L205.073 248.909C204.653 248.636 204.164 248.496 203.668 248.509C202.895 248.509 202.516 248.805 202.516 249.206C202.516 250.399 205.611 249.423 205.611 251.392C205.611 252.262 204.77 252.889 203.5 252.889C202.797 252.9 202.106 252.694 201.516 252.297Z" fill="white"/>
<path d="M209.503 252.56C209.197 252.802 208.82 252.928 208.435 252.917C208.228 252.941 208.017 252.917 207.82 252.847C207.623 252.776 207.443 252.66 207.295 252.508C207.146 252.356 207.033 252.171 206.962 251.968C206.892 251.764 206.866 251.547 206.888 251.332V248.554H206.047V247.805H206.888V246.698H207.729V247.805H209.183V248.554H207.779V251.297C207.759 251.409 207.765 251.524 207.795 251.634C207.825 251.743 207.879 251.844 207.954 251.928C208.028 252.013 208.119 252.078 208.222 252.12C208.324 252.161 208.435 252.178 208.544 252.168C208.793 252.17 209.035 252.088 209.234 251.933L209.503 252.56Z" fill="white"/>
<path d="M214.798 250.612H210.863C210.925 251.044 211.142 251.436 211.471 251.711C211.8 251.985 212.216 252.121 212.637 252.092C212.9 252.102 213.162 252.053 213.404 251.948C213.647 251.843 213.864 251.684 214.041 251.483L214.529 252.075C214.17 252.454 213.713 252.718 213.213 252.834C212.713 252.95 212.191 252.914 211.71 252.73C211.229 252.546 210.81 252.222 210.503 251.796C210.196 251.371 210.014 250.863 209.98 250.333C209.962 249.991 210.013 249.649 210.13 249.328C210.246 249.008 210.425 248.716 210.656 248.47C210.886 248.225 211.164 248.032 211.47 247.903C211.776 247.773 212.105 247.711 212.435 247.72C212.764 247.712 213.09 247.775 213.394 247.905C213.697 248.035 213.972 248.229 214.199 248.475C214.426 248.721 214.601 249.013 214.713 249.333C214.825 249.653 214.871 249.994 214.849 250.333C214.84 250.427 214.823 250.521 214.798 250.612ZM210.863 249.95H213.999C213.951 249.555 213.765 249.191 213.476 248.928C213.187 248.664 212.816 248.519 212.431 248.519C212.046 248.519 211.675 248.664 211.386 248.928C211.097 249.191 210.911 249.555 210.863 249.95Z" fill="white"/>
<path d="M218.67 247.729V248.6H218.469C218.25 248.584 218.031 248.619 217.827 248.703C217.623 248.787 217.441 248.918 217.293 249.085C217.145 249.253 217.035 249.453 216.973 249.67C216.91 249.888 216.895 250.117 216.93 250.341V252.858H216.047V247.807H216.888V248.678C217.065 248.359 217.328 248.1 217.644 247.932C217.96 247.763 218.317 247.693 218.67 247.729Z" fill="white"/>
<g opacity="0.6">
<path d="M180.234 106.781L180.613 105.962C181.265 106.529 182.091 106.838 182.942 106.833C184.161 106.833 184.683 106.346 184.683 105.71C184.683 103.968 180.411 105.048 180.411 102.34C180.411 101.207 181.252 100.249 183.11 100.249C183.911 100.236 184.699 100.459 185.381 100.894L185.044 101.765C184.467 101.382 183.796 101.176 183.11 101.173C181.908 101.173 181.428 101.695 181.428 102.331C181.428 104.073 185.709 102.993 185.709 105.684C185.709 106.799 184.868 107.756 182.976 107.756C181.979 107.778 181.008 107.432 180.234 106.781Z" fill="#263238"/>
<path d="M186.836 100.36C186.837 100.273 186.855 100.186 186.889 100.106C186.922 100.025 186.971 99.9524 187.032 99.8916C187.093 99.8308 187.165 99.7832 187.244 99.7516C187.323 99.7199 187.407 99.7048 187.492 99.7071C187.575 99.7036 187.659 99.7173 187.737 99.7475C187.815 99.7777 187.887 99.8237 187.948 99.8828C188.009 99.942 188.058 100.013 188.093 100.092C188.127 100.171 188.146 100.256 188.148 100.343C188.148 100.523 188.079 100.696 187.956 100.823C187.833 100.951 187.666 101.022 187.492 101.022C187.318 101.022 187.151 100.951 187.028 100.823C186.905 100.696 186.836 100.523 186.836 100.343V100.36ZM187.004 102.102H187.98V107.641H187.004V102.102Z" fill="#263238"/>
<path d="M194.932 102.076V106.857C194.932 108.817 193.974 109.705 192.166 109.705C191.259 109.735 190.369 109.443 189.643 108.878L190.106 108.103C190.691 108.582 191.419 108.838 192.166 108.826C193.427 108.826 193.999 108.216 193.999 106.962V106.526C193.761 106.811 193.465 107.037 193.131 107.188C192.798 107.338 192.437 107.41 192.073 107.397C191.721 107.418 191.369 107.364 191.038 107.239C190.707 107.114 190.404 106.92 190.147 106.669C189.891 106.418 189.687 106.116 189.547 105.781C189.408 105.446 189.336 105.084 189.336 104.719C189.336 104.354 189.408 103.993 189.547 103.658C189.687 103.322 189.891 103.02 190.147 102.769C190.404 102.519 190.707 102.325 191.038 102.199C191.369 102.074 191.721 102.02 192.073 102.041C192.445 102.021 192.816 102.089 193.159 102.24C193.501 102.391 193.806 102.621 194.05 102.912V102.041L194.932 102.076ZM193.991 104.689C194.009 104.308 193.917 103.93 193.726 103.604C193.535 103.278 193.255 103.019 192.92 102.86C192.586 102.701 192.213 102.649 191.85 102.711C191.487 102.774 191.15 102.948 190.883 103.21C190.616 103.473 190.432 103.812 190.353 104.184C190.274 104.557 190.304 104.945 190.441 105.299C190.577 105.653 190.813 105.957 191.117 106.171C191.422 106.385 191.781 106.5 192.149 106.5C192.39 106.522 192.632 106.492 192.861 106.411C193.089 106.33 193.299 106.2 193.476 106.031C193.654 105.861 193.795 105.655 193.891 105.425C193.986 105.195 194.035 104.948 194.033 104.697L193.991 104.689Z" fill="#263238"/>
<path d="M201.867 104.429V107.616H200.891V104.507C200.891 103.419 200.37 102.887 199.454 102.887C199.221 102.872 198.987 102.909 198.77 102.997C198.553 103.085 198.357 103.222 198.196 103.397C198.036 103.573 197.915 103.783 197.841 104.012C197.768 104.242 197.744 104.485 197.772 104.725V107.581H196.805V102.043H197.738V102.913C197.968 102.618 198.262 102.385 198.598 102.233C198.933 102.082 199.299 102.016 199.664 102.043C199.967 102.021 200.271 102.07 200.555 102.184C200.838 102.298 201.094 102.475 201.304 102.702C201.514 102.93 201.673 103.202 201.771 103.501C201.868 103.799 201.901 104.116 201.867 104.429Z" fill="#263238"/>
<path d="M211.355 102.076V107.615H210.439V106.744C210.225 107.029 209.949 107.257 209.633 107.408C209.317 107.56 208.97 107.631 208.622 107.615C208.31 107.648 207.994 107.608 207.698 107.499C207.402 107.389 207.133 107.212 206.912 106.98C206.691 106.749 206.523 106.469 206.42 106.161C206.318 105.853 206.283 105.526 206.318 105.202V102.015H207.285V105.089C207.285 106.169 207.815 106.718 208.732 106.718C208.965 106.735 209.199 106.699 209.417 106.611C209.635 106.523 209.831 106.387 209.992 106.211C210.153 106.035 210.274 105.825 210.347 105.595C210.42 105.364 210.443 105.12 210.413 104.88V102.015L211.355 102.076Z" fill="#263238"/>
<path d="M218.736 104.847C218.755 105.221 218.699 105.595 218.57 105.945C218.442 106.295 218.244 106.614 217.99 106.88C217.736 107.146 217.431 107.355 217.095 107.492C216.758 107.63 216.398 107.693 216.037 107.678C215.682 107.692 215.329 107.621 215.005 107.47C214.681 107.319 214.395 107.092 214.17 106.807V109.663H213.203V102.104H214.128V102.975C214.35 102.672 214.64 102.429 214.972 102.266C215.304 102.104 215.67 102.027 216.037 102.043C216.396 102.027 216.755 102.088 217.09 102.224C217.425 102.359 217.729 102.565 217.983 102.829C218.237 103.093 218.435 103.409 218.565 103.756C218.695 104.104 218.753 104.475 218.736 104.847ZM217.761 104.847C217.744 104.483 217.625 104.132 217.418 103.838C217.211 103.543 216.925 103.318 216.596 103.19C216.266 103.062 215.908 103.036 215.565 103.117C215.221 103.198 214.909 103.381 214.665 103.644C214.421 103.907 214.257 104.238 214.194 104.596C214.13 104.955 214.169 105.325 214.306 105.66C214.443 105.996 214.672 106.283 214.965 106.485C215.257 106.687 215.601 106.796 215.953 106.798C216.198 106.803 216.442 106.756 216.669 106.659C216.895 106.562 217.1 106.417 217.27 106.233C217.44 106.05 217.571 105.832 217.656 105.594C217.74 105.355 217.776 105.101 217.761 104.847Z" fill="#263238"/>
</g>
<path d="M254.516 148.523H144.492V168.031H254.516V148.523Z" fill="white"/>
<g opacity="0.4">
<path d="M150.516 155.098H151.087V160.175H154.106V160.689H150.516V155.098Z" fill="#263238"/>
<path d="M158.014 158.083V160.696H157.493V160.043C157.34 160.276 157.13 160.463 156.885 160.585C156.64 160.708 156.368 160.761 156.097 160.74C155.181 160.74 154.617 160.243 154.617 159.512C154.617 158.78 155.012 158.327 156.181 158.327H157.468V158.075C157.468 157.352 157.073 156.96 156.316 156.96C155.824 156.953 155.347 157.129 154.97 157.456L154.718 157.03C155.198 156.644 155.793 156.444 156.4 156.463C156.614 156.437 156.831 156.46 157.035 156.531C157.239 156.602 157.425 156.719 157.58 156.875C157.735 157.03 157.854 157.219 157.929 157.428C158.004 157.637 158.034 157.861 158.014 158.083ZM157.468 159.425V158.737H156.198C155.408 158.737 155.155 159.059 155.155 159.494C155.155 159.93 155.534 160.278 156.181 160.278C156.455 160.295 156.728 160.222 156.959 160.069C157.19 159.915 157.368 159.69 157.468 159.425Z" fill="#263238"/>
<path d="M158.938 160.245L159.181 159.8C159.606 160.107 160.11 160.271 160.628 160.271C161.401 160.271 161.712 160.001 161.712 159.583C161.712 158.485 159.089 159.348 159.089 157.693C159.089 157.005 159.652 156.491 160.687 156.491C161.191 156.484 161.688 156.62 162.125 156.883L161.881 157.336C161.527 157.094 161.11 156.969 160.687 156.979C159.955 156.979 159.635 157.275 159.635 157.675C159.635 158.808 162.259 157.954 162.259 159.565C162.259 160.297 161.645 160.767 160.577 160.767C159.991 160.78 159.415 160.597 158.938 160.245Z" fill="#263238"/>
<path d="M165.446 160.438C165.207 160.634 164.91 160.739 164.605 160.734C164.445 160.752 164.283 160.732 164.131 160.677C163.98 160.621 163.842 160.531 163.728 160.414C163.614 160.296 163.528 160.153 163.474 159.996C163.421 159.839 163.402 159.671 163.419 159.506V156.971H162.688V156.492H163.419V155.569H163.966V156.492H165.193V156.971H163.966V159.48C163.951 159.58 163.959 159.682 163.988 159.779C164.018 159.876 164.068 159.964 164.135 160.038C164.202 160.112 164.285 160.169 164.376 160.205C164.468 160.241 164.566 160.255 164.664 160.246C164.884 160.253 165.1 160.175 165.269 160.028L165.446 160.438Z" fill="#263238"/>
<path d="M173.015 155.098V160.689H172.544L169.08 156.152V160.689H168.508V155.098H168.979L172.452 159.635V155.098H173.015Z" fill="#263238"/>
<path d="M177.758 158.086V160.699H177.22V160.046C177.068 160.28 176.858 160.468 176.613 160.59C176.368 160.713 176.095 160.765 175.824 160.742C174.907 160.742 174.344 160.246 174.344 159.514C174.344 158.783 174.747 158.33 175.916 158.33H177.22V158.077C177.22 157.354 176.824 156.963 176.068 156.963C175.576 156.956 175.099 157.132 174.722 157.459L174.47 157.032C174.949 156.645 175.544 156.445 176.152 156.466C176.365 156.441 176.581 156.465 176.784 156.537C176.987 156.608 177.172 156.726 177.326 156.881C177.48 157.036 177.598 157.225 177.673 157.433C177.748 157.642 177.777 157.865 177.758 158.086ZM177.211 159.427V158.739H175.933C175.151 158.739 174.899 159.061 174.899 159.497C174.899 159.932 175.277 160.281 175.925 160.281C176.2 160.3 176.474 160.228 176.707 160.074C176.94 159.92 177.12 159.694 177.22 159.427H177.211Z" fill="#263238"/>
<path d="M185.944 158.253V160.691H185.397V158.313C185.397 157.443 184.96 156.972 184.228 156.972C184.038 156.963 183.849 156.997 183.673 157.072C183.498 157.146 183.34 157.26 183.211 157.404C183.082 157.548 182.985 157.72 182.927 157.907C182.869 158.094 182.851 158.293 182.874 158.488V160.691H182.328V158.313C182.328 157.443 181.89 156.972 181.15 156.972C180.961 156.963 180.771 156.997 180.596 157.072C180.42 157.146 180.262 157.26 180.133 157.404C180.004 157.548 179.907 157.72 179.849 157.907C179.791 158.094 179.773 158.293 179.797 158.488V160.691H179.25V156.493H179.746V157.26C179.905 157.003 180.126 156.794 180.387 156.653C180.648 156.513 180.94 156.445 181.235 156.458C181.533 156.433 181.831 156.503 182.09 156.659C182.348 156.814 182.555 157.048 182.681 157.329C182.847 157.049 183.083 156.82 183.364 156.666C183.645 156.513 183.961 156.441 184.279 156.458C184.509 156.435 184.741 156.466 184.958 156.549C185.175 156.632 185.371 156.765 185.531 156.938C185.691 157.11 185.811 157.318 185.883 157.546C185.954 157.774 185.975 158.015 185.944 158.253Z" fill="#263238"/>
<path d="M190.983 158.765H187.62C187.631 158.969 187.682 159.17 187.769 159.354C187.855 159.539 187.977 159.704 188.125 159.84C188.273 159.976 188.446 160.08 188.634 160.146C188.821 160.213 189.019 160.241 189.217 160.228C189.451 160.235 189.683 160.19 189.898 160.096C190.113 160.001 190.305 159.859 190.462 159.679L190.764 160.045C190.473 160.36 190.098 160.579 189.687 160.675C189.276 160.771 188.847 160.74 188.453 160.584C188.06 160.429 187.719 160.157 187.473 159.803C187.228 159.448 187.088 159.026 187.073 158.59C187.059 158.313 187.1 158.036 187.194 157.776C187.288 157.515 187.432 157.278 187.619 157.078C187.805 156.878 188.028 156.72 188.276 156.613C188.523 156.506 188.789 156.453 189.057 156.457C189.325 156.451 189.591 156.504 189.838 156.61C190.086 156.717 190.309 156.875 190.494 157.076C190.679 157.276 190.822 157.515 190.913 157.775C191.004 158.036 191.043 158.314 191.025 158.59C190.992 158.643 190.983 158.704 190.983 158.765ZM187.62 158.347H190.495C190.495 157.952 190.344 157.573 190.074 157.293C189.805 157.014 189.439 156.857 189.057 156.857C188.676 156.857 188.31 157.014 188.041 157.293C187.771 157.573 187.62 157.952 187.62 158.347Z" fill="#263238"/>
</g>
<path d="M254.516 121.873H144.492V141.381H254.516V121.873Z" fill="white"/>
<g opacity="0.4">
<path d="M150.697 128.641V130.835H153.489V131.349H150.697V133.718H150.125V128.127H153.825V128.641H150.697Z" fill="#263238"/>
<path d="M155.078 128.508C155.077 128.425 155.099 128.343 155.143 128.273C155.186 128.203 155.249 128.148 155.323 128.115C155.398 128.082 155.479 128.073 155.558 128.089C155.638 128.105 155.71 128.145 155.767 128.204C155.824 128.263 155.863 128.338 155.878 128.42C155.893 128.502 155.885 128.587 155.853 128.664C155.821 128.74 155.768 128.805 155.701 128.851C155.633 128.896 155.554 128.919 155.473 128.918C155.369 128.918 155.268 128.874 155.194 128.798C155.12 128.721 155.078 128.617 155.078 128.508ZM155.196 129.841H155.743V134.038H155.196V129.841Z" fill="#263238"/>
<path d="M159.317 129.807V130.355H159.182C158.989 130.346 158.796 130.38 158.617 130.457C158.439 130.533 158.279 130.65 158.148 130.798C158.018 130.946 157.921 131.122 157.864 131.314C157.808 131.505 157.793 131.707 157.82 131.905V134.048H157.273V129.85H157.795V130.634C157.94 130.355 158.163 130.127 158.434 129.98C158.705 129.832 159.012 129.772 159.317 129.807Z" fill="#263238"/>
<path d="M159.773 133.558L160.017 133.106C160.438 133.421 160.945 133.589 161.464 133.585C162.237 133.585 162.548 133.306 162.548 132.897C162.548 131.799 159.925 132.661 159.925 130.998C159.925 130.319 160.488 129.805 161.523 129.805C162.028 129.793 162.526 129.929 162.96 130.197L162.717 130.65C162.363 130.408 161.946 130.283 161.523 130.293C160.791 130.293 160.471 130.589 160.471 130.989C160.471 132.121 163.095 131.268 163.095 132.879C163.095 133.602 162.481 134.072 161.413 134.072C160.827 134.088 160.252 133.908 159.773 133.558Z" fill="#263238"/>
<path d="M166.289 133.787C166.048 133.977 165.752 134.078 165.449 134.074C165.289 134.093 165.127 134.075 164.976 134.021C164.824 133.966 164.686 133.877 164.572 133.76C164.458 133.643 164.371 133.501 164.318 133.344C164.264 133.187 164.245 133.02 164.263 132.855V130.32H163.531V129.841H164.263V128.892H164.809V129.815H166.037V130.294H164.809V132.794C164.795 132.894 164.803 132.997 164.833 133.094C164.862 133.191 164.912 133.28 164.979 133.355C165.046 133.429 165.128 133.487 165.22 133.524C165.311 133.561 165.409 133.576 165.507 133.569C165.728 133.572 165.942 133.495 166.113 133.351L166.289 133.787Z" fill="#263238"/>
<path d="M173.859 128.45V134.041H173.388L169.923 129.503V134.041H169.352V128.45H169.822L173.295 132.987V128.45H173.859Z" fill="#263238"/>
<path d="M178.593 131.434V134.047H178.063V133.394C177.913 133.626 177.704 133.813 177.46 133.934C177.216 134.055 176.945 134.106 176.676 134.082C175.751 134.082 175.188 133.594 175.188 132.862C175.188 132.131 175.591 131.678 176.76 131.678H178.063V131.417C178.063 130.702 177.668 130.311 176.911 130.311C176.42 130.304 175.943 130.48 175.566 130.807L175.314 130.38C175.793 129.994 176.388 129.793 176.995 129.814C177.208 129.789 177.424 129.812 177.627 129.884C177.83 129.956 178.014 130.074 178.168 130.229C178.321 130.385 178.438 130.573 178.512 130.782C178.586 130.99 178.613 131.213 178.593 131.434ZM178.047 132.775V132.087H176.768C175.986 132.087 175.734 132.409 175.734 132.836C175.734 133.263 176.112 133.629 176.76 133.629C177.037 133.649 177.312 133.577 177.547 133.423C177.781 133.27 177.962 133.043 178.063 132.775H178.047Z" fill="#263238"/>
<path d="M186.772 131.6V134.039H186.225V131.661C186.225 130.791 185.788 130.32 185.056 130.32C184.867 130.311 184.677 130.345 184.502 130.42C184.326 130.494 184.168 130.608 184.039 130.752C183.91 130.896 183.813 131.068 183.755 131.255C183.697 131.442 183.679 131.64 183.702 131.836V134.039H183.156V131.661C183.156 130.791 182.719 130.32 181.979 130.32C181.789 130.311 181.6 130.345 181.424 130.42C181.248 130.494 181.09 130.608 180.961 130.752C180.832 130.896 180.736 131.068 180.677 131.255C180.619 131.442 180.601 131.64 180.625 131.836V134.039H180.078V129.841H180.583V130.634C180.741 130.377 180.962 130.168 181.224 130.027C181.485 129.887 181.777 129.82 182.071 129.833C182.369 129.807 182.668 129.877 182.926 130.033C183.185 130.188 183.391 130.423 183.517 130.703C183.682 130.422 183.918 130.191 184.199 130.038C184.481 129.885 184.798 129.813 185.115 129.833C185.342 129.811 185.571 129.843 185.785 129.925C185.998 130.007 186.192 130.138 186.35 130.307C186.509 130.477 186.629 130.681 186.702 130.905C186.775 131.128 186.799 131.366 186.772 131.6Z" fill="#263238"/>
<path d="M191.811 132.112H188.448C188.459 132.317 188.51 132.518 188.597 132.702C188.684 132.887 188.805 133.052 188.953 133.188C189.102 133.324 189.274 133.428 189.462 133.494C189.649 133.561 189.848 133.589 190.045 133.576C190.28 133.583 190.513 133.538 190.728 133.441C190.943 133.345 191.135 133.2 191.29 133.018L191.593 133.393C191.301 133.708 190.927 133.927 190.516 134.023C190.105 134.119 189.675 134.088 189.281 133.932C188.888 133.777 188.547 133.505 188.301 133.151C188.056 132.796 187.917 132.374 187.901 131.938C187.887 131.661 187.928 131.384 188.022 131.123C188.116 130.863 188.261 130.626 188.447 130.426C188.633 130.226 188.856 130.067 189.104 129.961C189.351 129.854 189.617 129.801 189.886 129.805C190.153 129.799 190.419 129.851 190.667 129.958C190.914 130.065 191.137 130.223 191.322 130.424C191.507 130.624 191.65 130.863 191.741 131.123C191.833 131.384 191.871 131.661 191.853 131.938C191.82 131.982 191.811 132.043 191.811 132.112ZM188.448 131.686H191.324C191.324 131.291 191.172 130.912 190.902 130.633C190.633 130.353 190.267 130.196 189.886 130.196C189.504 130.196 189.138 130.353 188.869 130.633C188.599 130.912 188.448 131.291 188.448 131.686Z" fill="#263238"/>
</g>
<path d="M103.096 287.639H102.297C102.297 286.411 103.281 257.637 108.116 252.803C113.086 247.796 118.93 252.734 118.98 252.803L118.476 253.43C118.257 253.248 113.119 248.928 108.662 253.43C104.063 257.968 103.104 287.343 103.096 287.639Z" fill="#407BFF"/>
<path d="M102.685 293.414L101.894 293.336C101.894 292.987 105.022 258.395 92.9219 244.008L93.5189 243.468C105.847 258.125 102.718 293.066 102.685 293.414Z" fill="#407BFF"/>
<path d="M103.081 289.722C102.98 288.084 100.651 249.66 109.951 240.777L110.489 241.387C101.467 249.974 103.846 289.286 103.872 289.661L103.081 289.722Z" fill="#407BFF"/>
<path d="M101.896 289.695C101.896 289.433 101.61 263.568 94.9926 259.675C94.43 259.291 93.7864 259.052 93.1162 258.979C92.4459 258.906 91.7686 259.002 91.1413 259.257C87.2647 260.92 85.2045 268.584 85.1793 268.662L84.4141 268.445C84.4982 268.114 86.6004 260.319 90.8385 258.499C91.5769 258.192 92.3758 258.073 93.1677 258.154C93.9595 258.234 94.7211 258.511 95.3878 258.961C102.392 263.115 102.687 288.571 102.695 289.686L101.896 289.695Z" fill="#407BFF"/>
<path d="M104.624 289.712C104.574 288.841 103.557 269.298 108.913 262.043C110.343 260.119 111.923 259.204 113.639 259.335C117.448 259.605 120.366 264.952 120.526 265.178L119.836 265.588C119.836 265.536 116.96 260.362 113.58 260.153C112.159 260.04 110.797 260.85 109.544 262.548C104.364 269.516 105.407 289.468 105.415 289.668L104.624 289.712Z" fill="#407BFF"/>
<path d="M103.555 292.422L102.764 292.361C102.764 291.891 106.128 245.228 100.578 237.442L101.217 236.954C106.952 244.984 103.698 290.488 103.555 292.422Z" fill="#407BFF"/>
<path d="M89.3 263.143C89.3 263.143 92.7309 264.458 91.7134 267.55C90.6959 270.641 79.8315 275.736 79.8315 275.736C79.8315 275.736 75.2822 271.425 79.4615 264.415C83.6407 257.404 89.2075 260.931 89.3 263.143Z" fill="#407BFF"/>
<path opacity="0.2" d="M89.3 263.143C89.3 263.143 92.7309 264.458 91.7134 267.55C90.6959 270.641 79.8315 275.736 79.8315 275.736C79.8315 275.736 75.2822 271.425 79.4615 264.415C83.6407 257.404 89.2075 260.931 89.3 263.143Z" fill="black"/>
<path d="M104.224 257.256C104.224 257.256 100.566 257.099 100.356 260.356C100.145 263.614 108.26 272.654 108.26 272.654C108.26 272.654 114.062 270.476 112.818 262.333C111.573 254.191 105.132 255.244 104.224 257.256Z" fill="#407BFF"/>
<path opacity="0.2" d="M104.224 257.256C104.224 257.256 100.566 257.099 100.356 260.356C100.145 263.614 108.26 272.654 108.26 272.654C108.26 272.654 114.062 270.476 112.818 262.333C111.573 254.191 105.132 255.244 104.224 257.256Z" fill="black"/>
<path d="M107.319 241.632C107.319 241.632 104.88 241.362 105.073 239.829C105.267 238.297 114.55 234.334 120.025 240.7C120.025 240.7 116.518 246.936 111.456 247.023C106.394 247.11 107.319 241.632 107.319 241.632Z" fill="#407BFF"/>
<path opacity="0.2" d="M107.319 241.632C107.319 241.632 104.88 241.362 105.073 239.829C105.267 238.297 114.55 234.334 120.025 240.7C120.025 240.7 116.518 246.936 111.456 247.023C106.394 247.11 107.319 241.632 107.319 241.632Z" fill="black"/>
<path d="M102.781 237.895C102.781 237.895 104.984 239.001 105.606 237.59C106.229 236.179 100.368 227.74 92.4548 230.17C92.4548 230.17 92.2446 237.381 96.4996 240.229C100.755 243.077 102.781 237.895 102.781 237.895Z" fill="#407BFF"/>
<path opacity="0.2" d="M102.781 237.895C102.781 237.895 104.984 239.001 105.606 237.59C106.229 236.179 100.368 227.74 92.4548 230.17C92.4548 230.17 92.2446 237.381 96.4996 240.229C100.755 243.077 102.781 237.895 102.781 237.895Z" fill="black"/>
<path d="M114.315 261.904C114.315 261.904 112.633 260.494 114.45 259.806C116.266 259.118 125.171 259.318 125.264 268.454C125.264 268.454 114.887 270.239 113.609 266.755C112.331 263.272 114.315 261.904 114.315 261.904Z" fill="#407BFF"/>
<path opacity="0.2" d="M114.315 261.904C114.315 261.904 112.633 260.494 114.45 259.806C116.266 259.118 125.171 259.318 125.264 268.454C125.264 268.454 114.887 270.239 113.609 266.755C112.331 263.272 114.315 261.904 114.315 261.904Z" fill="black"/>
<path d="M93.1282 241.406C93.1282 241.406 94.81 239.995 92.9937 239.316C91.1773 238.636 82.2722 238.819 82.1797 247.955C82.1797 247.955 92.5564 249.749 93.8346 246.265C95.1127 242.782 93.1282 241.406 93.1282 241.406Z" fill="#407BFF"/>
<path opacity="0.2" d="M93.1282 241.406C93.1282 241.406 94.81 239.995 92.9937 239.316C91.1773 238.636 82.2722 238.819 82.1797 247.955C82.1797 247.955 92.5564 249.749 93.8346 246.265C95.1127 242.782 93.1282 241.406 93.1282 241.406Z" fill="black"/>
<path d="M98.6371 248.764C98.6371 248.764 98.7884 247.022 97.4514 247.727C96.1144 248.433 91.481 253.588 96.291 258.509C96.291 258.509 102.774 253.536 101.605 250.95C100.437 248.363 98.6371 248.764 98.6371 248.764Z" fill="#407BFF"/>
<path opacity="0.2" d="M98.6371 248.764C98.6371 248.764 98.7884 247.022 97.4514 247.727C96.1144 248.433 91.481 253.588 96.291 258.509C96.291 258.509 102.774 253.536 101.605 250.95C100.437 248.363 98.6371 248.764 98.6371 248.764Z" fill="black"/>
<path d="M115.83 251.204C115.83 251.204 114.821 249.836 116.301 249.671C117.781 249.505 124.374 251.325 122.835 258.153C122.835 258.153 114.796 257.526 114.426 254.67C114.056 251.813 115.83 251.204 115.83 251.204Z" fill="#407BFF"/>
<path opacity="0.2" d="M115.83 251.204C115.83 251.204 114.821 249.836 116.301 249.671C117.781 249.505 124.374 251.325 122.835 258.153C122.835 258.153 114.796 257.526 114.426 254.67C114.056 251.813 115.83 251.204 115.83 251.204Z" fill="black"/>
<path d="M89.9014 315.02H115.894L119.35 288.841H86.4453L89.9014 315.02Z" fill="#263238"/>
<path opacity="0.2" d="M89.9014 315.02H115.894L119.35 288.841H86.4453L89.9014 315.02Z" fill="white"/>
<path d="M122.609 286.716V289.207C122.609 290.006 122.302 290.772 121.757 291.337C121.211 291.902 120.471 292.22 119.699 292.22H85.7689C84.9972 292.22 84.2572 291.902 83.7116 291.337C83.1659 290.772 82.8594 290.006 82.8594 289.207V286.716H122.609Z" fill="#263238"/>
<path d="M339.202 38.5888H315.043C313.071 38.5888 311.181 39.3999 309.787 40.8437C308.393 42.2875 307.609 44.2457 307.609 46.2875V68.0599C307.608 69.0717 307.8 70.0737 308.173 71.0088C308.546 71.9439 309.093 72.7936 309.784 73.5094C310.474 74.2252 311.294 74.7931 312.196 75.1805C313.099 75.568 314.066 75.7674 315.043 75.7674H322.098L320.416 82.6388L327.143 75.7674H339.244C341.218 75.7674 343.111 74.9554 344.506 73.5099C345.902 72.0645 346.686 70.1041 346.686 68.0599V46.2875C346.686 45.2721 346.492 44.2667 346.115 43.3292C345.739 42.3918 345.187 41.5407 344.491 40.8252C343.795 40.1096 342.97 39.5436 342.062 39.1598C341.154 38.776 340.182 38.5819 339.202 38.5888Z" fill="#407BFF"/>
<path opacity="0.7" d="M339.202 38.5888H315.043C313.071 38.5888 311.181 39.3999 309.787 40.8437C308.393 42.2875 307.609 44.2457 307.609 46.2875V68.0599C307.608 69.0717 307.8 70.0737 308.173 71.0088C308.546 71.9439 309.093 72.7936 309.784 73.5094C310.474 74.2252 311.294 74.7931 312.196 75.1805C313.099 75.568 314.066 75.7674 315.043 75.7674H322.098L320.416 82.6388L327.143 75.7674H339.244C341.218 75.7674 343.111 74.9554 344.506 73.5099C345.902 72.0645 346.686 70.1041 346.686 68.0599V46.2875C346.686 45.2721 346.492 44.2667 346.115 43.3292C345.739 42.3918 345.187 41.5407 344.491 40.8252C343.795 40.1096 342.97 39.5436 342.062 39.1598C341.154 38.776 340.182 38.5819 339.202 38.5888Z" fill="white"/>
<path d="M327.126 66.7994C332.304 66.7994 336.502 62.4519 336.502 57.0889C336.502 51.726 332.304 47.3784 327.126 47.3784C321.948 47.3784 317.75 51.726 317.75 57.0889C317.75 62.4519 321.948 66.7994 327.126 66.7994Z" fill="white"/>
<path d="M327.124 44.6672C324.752 44.6672 322.434 45.3956 320.462 46.7602C318.49 48.1248 316.953 50.0644 316.046 52.3337C315.138 54.603 314.901 57.1 315.363 59.509C315.826 61.9181 316.968 64.131 318.645 65.8678C320.322 67.6046 322.459 68.7874 324.785 69.2666C327.111 69.7458 329.522 69.4998 331.713 68.5599C333.904 67.6199 335.777 66.0281 337.094 63.9858C338.412 61.9436 339.115 59.5425 339.115 57.0862C339.116 55.455 338.807 53.8396 338.205 52.3323C337.603 50.8251 336.719 49.4556 335.606 48.3021C334.492 47.1487 333.17 46.234 331.714 45.6102C330.259 44.9865 328.699 44.6661 327.124 44.6672ZM333.927 53.3762L326.704 62.1897C326.601 62.317 326.472 62.4191 326.327 62.4884C326.181 62.5577 326.023 62.5925 325.863 62.5903C325.703 62.5913 325.545 62.5559 325.399 62.4867C325.254 62.4175 325.125 62.3161 325.022 62.1897L320.321 56.4505C320.222 56.337 320.146 56.204 320.097 56.0593C320.048 55.9147 320.028 55.7614 320.038 55.6085C320.048 55.4557 320.087 55.3065 320.154 55.1698C320.221 55.0331 320.313 54.9117 320.426 54.8128C320.539 54.714 320.67 54.6397 320.812 54.5944C320.953 54.5491 321.102 54.5338 321.249 54.5492C321.396 54.5647 321.538 54.6107 321.668 54.6845C321.798 54.7583 321.912 54.8583 322.003 54.9787L325.863 59.6902L332.245 51.9044C332.437 51.6853 332.703 51.5519 332.988 51.5322C333.273 51.5126 333.554 51.6083 333.772 51.7992C333.99 51.99 334.128 52.2611 334.157 52.5553C334.186 52.8495 334.104 53.1438 333.927 53.3762Z" fill="#407BFF"/>
<path d="M335.01 172.925C335.01 172.925 320.37 171.009 298.187 177.279C298.187 177.279 294.622 136.225 295.042 130.582C295.463 124.938 329.292 126.593 329.292 126.593C329.292 126.593 330.133 143.027 332.336 152.938C334.539 162.848 336.154 171.017 335.01 172.925Z" fill="#407BFF"/>
<path opacity="0.2" d="M335.01 172.925C335.01 172.925 320.37 171.009 298.187 177.279C298.187 177.279 294.622 136.225 295.042 130.582C295.463 124.938 329.292 126.593 329.292 126.593C329.292 126.593 330.133 143.027 332.336 152.938C334.539 162.848 336.154 171.017 335.01 172.925Z" fill="black"/>
<path d="M287.484 308.837L293.455 310.588L294.876 300.964L295.641 295.817L289.671 294.067L288.653 300.964L287.484 308.837Z" fill="#E4897B"/>
<path d="M321.812 309.345L327.968 310.19L328.027 300.967L328.069 295.236L321.905 294.4L321.863 300.967L321.812 309.345Z" fill="#E4897B"/>
<path opacity="0.2" d="M321.901 294.4L321.859 300.967H328.023L328.065 295.236L321.901 294.4Z" fill="black"/>
<path opacity="0.2" d="M288.656 300.964H294.879L295.644 295.817L289.674 294.067L288.656 300.964Z" fill="black"/>
<path d="M260.983 133.952L255.055 132.141L256.139 139.152C256.139 139.152 261.521 140.432 262.026 137.532L260.983 133.952Z" fill="#E4897B"/>
<path d="M249.133 133.769L252.042 139.465L256.138 139.152L255.053 132.141L249.133 133.769Z" fill="#E4897B"/>
<path d="M269.16 135.746L259.422 133.49L258.539 138.384L267.377 140.614L269.16 135.746Z" fill="#E4897B"/>
<path d="M298.619 131.322L298.048 132.028C296.82 133.517 293.843 137.114 290.74 140.214C288.217 142.74 285.695 144.943 284.013 145.387C279.245 146.659 261.914 141.372 261.914 141.372L263.705 134.092C263.705 134.092 279.85 136.313 281.103 136.313C282.054 136.313 291.875 121.577 294.255 120.366L298.619 131.322Z" fill="#407BFF"/>
<path opacity="0.2" d="M298.05 132.029C296.822 133.518 293.845 137.115 290.742 140.215C291.364 135.112 293.172 130.426 295.552 127.465C295.774 127.18 296.028 126.922 296.309 126.699L298.05 132.029Z" fill="black"/>
<path d="M287.567 307.87L294.344 307.687C294.467 307.683 294.586 307.723 294.684 307.798C294.782 307.874 294.852 307.983 294.883 308.105L296.312 313.757C296.346 313.893 296.351 314.034 296.325 314.172C296.299 314.309 296.243 314.438 296.163 314.55C296.082 314.663 295.978 314.754 295.858 314.819C295.738 314.884 295.606 314.92 295.471 314.924C293.024 314.924 289.484 314.924 286.415 314.985C282.816 315.09 280.528 314.907 276.324 314.985C273.801 315.055 272.96 312.425 274.037 312.155C278.855 310.918 282.008 311.162 286.112 308.375C286.545 308.076 287.047 307.902 287.567 307.87Z" fill="#263238"/>
<path d="M286.972 308.775C285.98 309.001 284.214 309.306 283.508 308.705C283.405 308.617 283.324 308.504 283.271 308.377C283.218 308.25 283.196 308.112 283.205 307.974C283.205 307.891 283.226 307.809 283.265 307.737C283.305 307.665 283.363 307.606 283.432 307.564C284.181 307.103 286.712 308.348 287.006 308.487C287.032 308.502 287.053 308.523 287.068 308.549C287.083 308.575 287.091 308.605 287.09 308.635C287.089 308.669 287.076 308.701 287.055 308.727C287.033 308.752 287.004 308.769 286.972 308.775ZM283.609 307.808H283.558C283.53 307.825 283.507 307.849 283.491 307.878C283.475 307.907 283.466 307.94 283.466 307.974C283.459 308.064 283.473 308.154 283.506 308.237C283.54 308.321 283.592 308.394 283.659 308.453C284.054 308.792 285.08 308.827 286.443 308.548C285.459 308.122 284.088 307.625 283.626 307.808H283.609Z" fill="#407BFF"/>
<path d="M286.972 308.776H286.871C286.106 308.445 284.575 307.103 284.66 306.381C284.66 306.206 284.794 305.989 285.198 305.936C285.346 305.916 285.497 305.927 285.641 305.967C285.785 306.008 285.92 306.077 286.039 306.172C286.88 306.825 287.073 308.54 287.09 308.61C287.092 308.637 287.088 308.663 287.078 308.688C287.067 308.712 287.051 308.733 287.031 308.749L286.972 308.776ZM285.088 306.276C284.962 306.32 284.954 306.389 284.954 306.415C284.903 306.851 285.946 307.913 286.728 308.366C286.638 307.635 286.326 306.952 285.837 306.415C285.754 306.343 285.657 306.29 285.552 306.26C285.448 306.23 285.338 306.224 285.231 306.241C285.182 306.246 285.134 306.257 285.088 306.276Z" fill="#407BFF"/>
<path d="M322.06 307.87L328.837 307.687C328.96 307.683 329.082 307.722 329.181 307.798C329.28 307.874 329.352 307.982 329.384 308.105L330.805 313.758C330.841 313.893 330.846 314.035 330.821 314.173C330.796 314.311 330.741 314.441 330.66 314.554C330.579 314.666 330.474 314.758 330.353 314.822C330.233 314.887 330.1 314.922 329.964 314.925C327.517 314.925 323.977 314.925 320.899 314.985C317.308 315.09 315.013 314.907 310.808 314.985C308.286 315.055 307.445 312.425 308.521 312.155C313.339 310.918 316.484 311.162 320.588 308.375C321.026 308.073 321.534 307.899 322.06 307.87Z" fill="#263238"/>
<path d="M321.48 308.775C320.488 309.001 318.714 309.306 318.016 308.705C317.913 308.617 317.832 308.504 317.779 308.377C317.726 308.25 317.704 308.112 317.713 307.974C317.713 307.891 317.733 307.809 317.773 307.737C317.813 307.665 317.871 307.606 317.94 307.564C318.68 307.103 321.22 308.348 321.505 308.487C321.533 308.499 321.557 308.52 321.572 308.546C321.587 308.573 321.593 308.605 321.59 308.635C321.587 308.667 321.576 308.698 321.556 308.723C321.536 308.748 321.51 308.766 321.48 308.775ZM318.117 307.808H318.066C318.038 307.825 318.016 307.849 318.001 307.878C317.986 307.907 317.979 307.941 317.982 307.974C317.974 308.064 317.987 308.155 318.021 308.238C318.054 308.322 318.108 308.395 318.175 308.453C318.571 308.792 319.588 308.827 320.959 308.548C319.958 308.122 318.588 307.625 318.125 307.808H318.117Z" fill="#407BFF"/>
<path d="M321.473 308.776H321.363C320.607 308.445 319.068 307.104 319.16 306.381C319.16 306.207 319.286 305.99 319.69 305.937C319.838 305.916 319.989 305.926 320.133 305.967C320.278 306.007 320.413 306.077 320.531 306.172C321.119 306.851 321.487 307.704 321.582 308.611C321.586 308.638 321.583 308.665 321.573 308.69C321.562 308.714 321.545 308.735 321.523 308.75L321.473 308.776ZM319.581 306.277C319.463 306.32 319.455 306.39 319.455 306.416C319.396 306.852 320.447 307.914 321.229 308.367C321.133 307.637 320.821 306.956 320.338 306.416C320.254 306.344 320.157 306.292 320.053 306.262C319.948 306.232 319.839 306.225 319.732 306.242L319.581 306.277Z" fill="#407BFF"/>
<path d="M334.516 169.181C337.778 183.821 332.178 298.997 332.178 298.997H321.364L316.739 203.016L299.711 298.997L288.148 298.126C295.717 223.769 302.385 179.38 302.385 179.38V173.771L334.516 169.181Z" fill="#263238"/>
<path opacity="0.4" d="M288.148 298.126L299.711 298.997L313.115 223.438L316.739 203.016L321.364 298.997H332.178C332.178 298.997 337.778 183.821 334.516 169.181L302.368 173.771V179.38C302.368 179.38 295.708 223.769 288.148 298.126Z" fill="white"/>
<path d="M328.677 114.961C328.345 121.96 328.517 128.976 329.19 135.949C329.644 140.826 330.266 145.433 330.93 149.588C332.486 159.333 334.252 166.64 334.504 169.191L302.357 173.781C290.635 139.816 295.049 120.082 295.049 120.082C297.453 119.054 299.916 118.181 302.424 117.469C302.954 117.321 303.492 117.181 304.047 117.051C308.562 116.131 313.124 115.479 317.711 115.1C318.552 115.022 319.469 114.961 320.327 114.917C324.716 114.691 328.677 114.961 328.677 114.961Z" fill="#263238"/>
<path d="M311.478 99.6738C311.713 104.333 312.193 113.077 315.935 115.298C315.935 115.298 313.605 119.887 308.568 120.358C304.759 120.706 305.011 116.813 305.011 116.813C307.214 115.115 306.693 112.232 305.011 108.975L311.478 99.6738Z" fill="#E4897B"/>
<path opacity="0.2" d="M308.84 103.473L305.039 108.977C305.439 109.729 305.777 110.516 306.048 111.328C307.814 110.597 309.841 107.845 309.546 105.85C309.454 105.019 309.215 104.213 308.84 103.473Z" fill="black"/>
<path d="M295.076 90.2967C294.345 92.7178 294.748 97.6819 298.003 96.0708C301.257 94.4596 296.338 86.1426 295.076 90.2967Z" fill="#263238"/>
<path d="M311.9 93.5688C312.261 99.7783 312.74 103.392 310.125 106.911C306.148 112.197 298.445 110.229 296.292 104.237C294.358 98.8377 294.098 89.5888 299.656 86.4536C300.888 85.7593 302.27 85.4001 303.673 85.4096C305.075 85.4191 306.453 85.7969 307.676 86.5078C308.899 87.2187 309.928 88.2393 310.667 89.4742C311.406 90.7091 311.83 92.1179 311.9 93.5688Z" fill="#E4897B"/>
<path d="M307.695 90.1922V83.225C307.695 83.225 314.826 82.6764 314.507 86.4561C318.459 88.4853 316.592 94.8515 311.286 97.9693C308.376 95.5569 308.713 89.7568 308.713 89.7568C308.402 89.9222 308.048 90.0616 307.695 90.1922Z" fill="#263238"/>
<path d="M314.797 98.411C314.66 99.1706 314.377 99.8941 313.965 100.539C313.554 101.183 313.022 101.736 312.401 102.165C310.719 103.305 309.264 101.903 309.205 99.9438C309.155 98.202 309.954 95.4499 311.888 95.1016C312.311 95.0333 312.744 95.0747 313.148 95.222C313.551 95.3694 313.914 95.6182 314.202 95.946C314.49 96.2739 314.695 96.6707 314.799 97.1009C314.903 97.531 314.903 97.9812 314.797 98.411Z" fill="#E4897B"/>
<path d="M303.045 96.338C303.104 96.8432 302.893 97.2786 302.574 97.3134C302.254 97.3483 301.952 96.9738 301.893 96.4425C301.834 95.9113 302.044 95.502 302.355 95.4671C302.666 95.4323 302.986 95.7981 303.045 96.338Z" fill="#263238"/>
<path d="M297.545 96.9743C297.604 97.4794 297.393 97.9149 297.074 97.9497C296.754 97.9846 296.452 97.6101 296.393 97.0788C296.334 96.5476 296.544 96.1383 296.864 96.1034C297.183 96.0686 297.469 96.4692 297.545 96.9743Z" fill="#263238"/>
<path d="M299.313 97.0171C298.888 98.5744 298.257 100.063 297.438 101.441C297.8 101.634 298.198 101.746 298.605 101.768C299.013 101.791 299.42 101.724 299.8 101.572L299.313 97.0171Z" fill="#DE5753"/>
<path d="M302.641 103.194C302.433 103.249 302.223 103.29 302.01 103.316C301.972 103.316 301.936 103.301 301.909 103.273C301.882 103.245 301.867 103.207 301.867 103.168C301.867 103.129 301.882 103.091 301.909 103.064C301.936 103.036 301.972 103.02 302.01 103.02C302.614 102.963 303.196 102.76 303.711 102.428C304.225 102.095 304.656 101.641 304.97 101.104C304.977 101.087 304.988 101.071 305.001 101.058C305.015 101.044 305.031 101.034 305.048 101.028C305.065 101.021 305.084 101.018 305.102 101.02C305.121 101.021 305.139 101.026 305.155 101.035C305.172 101.043 305.188 101.055 305.201 101.069C305.213 101.084 305.223 101.101 305.23 101.12C305.236 101.139 305.238 101.158 305.237 101.178C305.236 101.198 305.231 101.217 305.222 101.235C304.947 101.729 304.576 102.159 304.131 102.497C303.687 102.834 303.179 103.072 302.641 103.194Z" fill="#263238"/>
<path d="M304.523 94.3111C304.472 94.3233 304.419 94.3217 304.369 94.3065C304.319 94.2912 304.274 94.2628 304.237 94.224C303.994 93.9476 303.692 93.7337 303.354 93.5992C303.017 93.4647 302.655 93.4132 302.295 93.4489C302.258 93.4577 302.219 93.4586 302.182 93.4514C302.145 93.4442 302.109 93.4291 302.077 93.407C302.046 93.385 302.019 93.3564 301.999 93.3232C301.978 93.2899 301.965 93.2527 301.959 93.2137C301.951 93.1754 301.951 93.136 301.959 93.0977C301.966 93.0594 301.981 93.023 302.002 92.9906C302.023 92.9582 302.05 92.9305 302.082 92.909C302.113 92.8875 302.149 92.8727 302.186 92.8654C302.64 92.8094 303.1 92.8663 303.528 93.0314C303.957 93.1965 304.341 93.465 304.649 93.8147C304.677 93.8415 304.699 93.8739 304.714 93.9099C304.729 93.9458 304.736 93.9845 304.736 94.0237C304.736 94.0628 304.729 94.1015 304.714 94.1375C304.699 94.1734 304.677 94.2058 304.649 94.2327C304.613 94.2681 304.57 94.2949 304.523 94.3111Z" fill="#263238"/>
<path d="M294.946 95.2939C294.892 95.3153 294.832 95.3153 294.778 95.2939C294.706 95.2682 294.648 95.2144 294.615 95.1443C294.582 95.0741 294.577 94.9933 294.601 94.9194C294.74 94.4712 294.981 94.0644 295.305 93.7337C295.629 93.4031 296.025 93.1585 296.459 93.0209C296.533 93.0012 296.611 93.0127 296.677 93.0527C296.742 93.0927 296.789 93.158 296.808 93.2342C296.827 93.3104 296.816 93.3914 296.778 93.4591C296.739 93.5269 296.676 93.576 296.602 93.5956C296.259 93.7054 295.946 93.901 295.692 94.1652C295.439 94.4295 295.252 94.7543 295.148 95.111C295.132 95.1567 295.105 95.1974 295.069 95.2294C295.034 95.2614 294.992 95.2836 294.946 95.2939Z" fill="#263238"/>
<path d="M310.854 92.7684C310.854 92.7684 306.649 91.1747 304.732 88.6491C304.732 88.6491 300.914 89.6854 300.132 91.2618C299.775 90.9453 299.545 90.5031 299.484 90.0206C299.423 89.5382 299.538 89.0495 299.804 88.6491C299.804 88.6491 296.945 89.2761 296.382 91.2618C295.917 91.0327 295.536 90.6553 295.294 90.185C295.051 89.7147 294.961 89.1764 295.036 88.6491C295.036 88.6491 293.767 89.1455 293.355 91.2618C293.355 91.2618 290.201 84.4514 300.62 82.5006C299.832 82.2235 299.005 82.0794 298.173 82.0738C298.173 82.0738 305.447 79.0344 311.207 81.8126C316.967 84.5907 315.966 89.9729 310.854 92.7684Z" fill="#263238"/>
<path d="M336.993 175.051L326.902 176.444C326.902 176.444 322.739 146.32 320.906 136.592V115.83L326.179 114.393L330.265 115.83C331.386 120.007 332.249 124.254 332.847 128.545C333.343 131.802 333.789 135.286 334.184 138.813C334.731 143.62 335.185 148.515 335.572 153.096C336.177 160.49 336.581 167.03 336.799 171.027C336.925 173.536 336.993 175.051 336.993 175.051Z" fill="#407BFF"/>
<path d="M320.91 136.577C320.91 136.577 321.751 121.919 326.183 114.36C326.183 114.36 326.074 112.2 325.191 111.852C324.308 111.504 320.91 113.594 320.91 113.594C320.91 113.594 318.8 112.096 318.337 112.792C317.875 113.489 316.748 118.122 320.91 136.577Z" fill="#407BFF"/>
<path opacity="0.7" d="M320.91 136.577C320.91 136.577 321.751 121.919 326.183 114.36C326.183 114.36 326.074 112.2 325.191 111.852C324.308 111.504 320.91 113.594 320.91 113.594C320.91 113.594 318.8 112.096 318.337 112.792C317.875 113.489 316.748 118.122 320.91 136.577Z" fill="white"/>
<path d="M297.967 179.065L299.119 179.936C299.119 179.936 297.437 170.226 298.126 145.666C298.126 144.482 298.202 143.341 298.244 142.253C299.085 121.473 302.213 117.693 302.449 117.467L299.539 118.494L294.267 120.376C292.677 138.098 297.967 179.065 297.967 179.065Z" fill="#407BFF"/>
<path d="M298.423 138.672C298.423 138.672 295.514 124.425 296.38 119.513C297.246 114.601 300.349 116.787 300.349 116.787C300.349 116.787 303.199 114.401 304.049 117.031C304.049 117.031 300.13 119.887 298.423 138.672Z" fill="#407BFF"/>
<path opacity="0.7" d="M298.423 138.672C298.423 138.672 295.514 124.425 296.38 119.513C297.246 114.601 300.349 116.787 300.349 116.787C300.349 116.787 303.199 114.401 304.049 117.031C304.049 117.031 300.13 119.887 298.423 138.672Z" fill="white"/>
<path opacity="0.2" d="M334.158 138.778C329.853 136.279 329.281 129.756 329.281 129.756C329.542 129.651 331.14 129.085 332.821 128.51C333.318 131.768 333.763 135.251 334.158 138.778Z" fill="black"/>
<path opacity="0.2" d="M313.11 223.438L316.734 203.016L316.036 192.208C316.036 192.208 311.067 210.949 313.11 223.438Z" fill="black"/>
<path opacity="0.2" d="M336.785 170.992C334.077 170.8 331.739 170.618 331.739 170.618L331.227 159.218C332.07 158.671 333.084 158.477 334.06 158.678C334.726 156.856 335.23 154.976 335.566 153.06C336.154 160.454 336.566 167.003 336.785 170.992Z" fill="black"/>
<path d="M337.702 153.053L332.43 161.823L336.601 164.305L341.553 156.406L337.702 153.053Z" fill="#E4897B"/>
<path d="M330.04 115.69C333.589 116.09 348.675 137.532 349.339 143.994C350.003 150.456 340.476 161.612 340.476 161.612L334.119 157.737C334.119 157.737 340.577 147.451 340.913 144.673C341.249 141.895 329.098 130.669 329.098 130.669C328.18 128.083 327.674 125.359 327.602 122.605C327.433 117.884 330.04 115.69 330.04 115.69Z" fill="#407BFF"/>
<path d="M331.209 159.228C331.209 159.228 336.633 160.429 338.819 163.965C338.819 163.965 336.548 171.324 334.926 172.126C333.303 172.927 329.283 172.927 329.283 172.927C329.283 172.927 329.022 164.74 331.209 159.228Z" fill="#407BFF"/>
</g>
<defs>
<filter id="filter0_d_57_115046" x="0" y="0" width="428.453" height="332.461" filterUnits="userSpaceOnUse" color-interpolation-filters="sRGB">
<feFlood flood-opacity="0" result="BackgroundImageFix"/>
<feColorMatrix in="SourceAlpha" type="matrix" values="0 0 0 0 0 0 0 0 0 0 0 0 0 0 0 0 0 0 127 0" result="hardAlpha"/>
<feOffset dy="4"/>
<feGaussianBlur stdDeviation="2"/>
<feComposite in2="hardAlpha" operator="out"/>
<feColorMatrix type="matrix" values="0 0 0 0 0 0 0 0 0 0 0 0 0 0 0 0 0 0 0.25 0"/>
<feBlend mode="normal" in2="BackgroundImageFix" result="effect1_dropShadow_57_115046"/>
<feBlend mode="normal" in="SourceGraphic" in2="effect1_dropShadow_57_115046" result="shape"/>
</filter>
</defs>
</svg>
