<svg width="45" height="38" viewBox="0 0 45 38" fill="none" xmlns="http://www.w3.org/2000/svg">
<path d="M16.6364 25H38.1364M16.6364 17H24.4545M16.6364 9H24.4545M5.88636 37C7.18231 37 8.42517 36.4732 9.34154 35.5355C10.2579 34.5979 10.7727 33.3261 10.7727 32V1H44V32C44 33.3261 43.4852 34.5979 42.5688 35.5355C41.6524 36.4732 40.4096 37 39.1136 37H5.88636ZM5.88636 37C4.59042 37 3.34755 36.4732 2.43118 35.5355C1.51481 34.5979 1 33.3261 1 32V9H10.8216M30.3182 9H36.1818V17H30.3182V9Z" stroke="white" stroke-width="2"/>
</svg>
