<svg width="32" height="32" viewBox="0 0 32 32" fill="none" xmlns="http://www.w3.org/2000/svg">
<path d="M1 26.7143C1 25.5776 1.45153 24.4876 2.25526 23.6838C3.05898 22.8801 4.14907 22.4286 5.28571 22.4286C6.42236 22.4286 7.51244 22.8801 8.31617 23.6838C9.1199 24.4876 9.57143 25.5776 9.57143 26.7143C9.57143 27.8509 9.1199 28.941 8.31617 29.7447C7.51244 30.5485 6.42236 31 5.28571 31C4.14907 31 3.05898 30.5485 2.25526 29.7447C1.45153 28.941 1 27.8509 1 26.7143ZM1 26.7143V15.2857M5.28571 1C19.4643 1 31 12.5357 31 26.7143M23.8571 26.7143C23.8571 16.4743 15.5257 8.14286 5.28571 8.14286M16.7143 26.7143C16.7143 20.4129 11.5871 15.2857 5.28571 15.2857" stroke="white" stroke-width="2"/>
</svg>
