<svg width="40" height="40" viewBox="0 0 40 40" fill="none" xmlns="http://www.w3.org/2000/svg">
<path d="M38.4 5.71429C38.4 4.95652 38.0629 4.2298 37.4627 3.69398C36.8626 3.15816 36.0487 2.85714 35.2 2.85714H28.8V0H25.6V2.85714H12.8V0H9.6V2.85714H3.2C2.35131 2.85714 1.53737 3.15816 0.937258 3.69398C0.337142 4.2298 0 4.95652 0 5.71429V34.2857C0 35.0435 0.337142 35.7702 0.937258 36.306C1.53737 36.8418 2.35131 37.1429 3.2 37.1429H9.6V34.2857H3.2V5.71429H9.6V8.57143H12.8V5.71429H25.6V8.57143H28.8V5.71429H35.2V14.2857H38.4V5.71429Z" fill="white"/>
<path d="M27.1984 18.5715L31.2768 25.6258L39.9984 26.7558L33.5984 32.2472L35.1984 40.0001L27.1984 36.3401L19.1984 40.0001L20.7984 32.2472L14.3984 26.7558L23.3584 25.6258L27.1984 18.5715Z" fill="white"/>
</svg>
